<?xml version="1.0" standalone="no"?><!DOCTYPE svg PUBLIC "-//W3C//DTD SVG 1.1//EN" "http://www.w3.org/Graphics/SVG/1.1/DTD/svg11.dtd"><svg t="1584161637264" class="icon" viewBox="0 0 1529 1024" version="1.1" xmlns="http://www.w3.org/2000/svg" p-id="11038" xmlns:xlink="http://www.w3.org/1999/xlink" width="298.6328125" height="200"><defs><style type="text/css"></style></defs><path d="M231.535132 354.573891h91.92186l123.959566-145.519131h475.136l123.927814 145.519131h107.162791v123.070512h228.836217v-108.496372h64.837457v501.426605H1382.47938V762.046512h-184.034233l-153.266604 179.938232h-388.961241l-175.778728-206.419349H231.535132V354.573891zM493.456868 0v82.015256h119.069768V127.007752h-208.991256L279.575814 272.526884H149.519876v164.062263H82.047008V272.526884H0V817.612403h82.047008v-299.008h67.472868v299.008h276.654636l175.778728 206.387597h497.552869l153.266604-179.938233h47.723163V952.55814h228.867969V287.101023h-228.867969v108.496372h-64.805705V272.526884h-145.296869L966.465488 127.007752h-205.720806V82.015256h119.038016V0H493.456868z" p-id="11039" fill="#e6e6e6"></path></svg>