<?xml version="1.0" standalone="no"?><!DOCTYPE svg PUBLIC "-//W3C//DTD SVG 1.1//EN" "http://www.w3.org/Graphics/SVG/1.1/DTD/svg11.dtd"><svg t="1584161166654" class="icon" viewBox="0 0 1024 1024" version="1.1" xmlns="http://www.w3.org/2000/svg" p-id="5361" xmlns:xlink="http://www.w3.org/1999/xlink" width="200" height="200"><defs><style type="text/css"></style></defs><path d="M803.84 124.587h-83.627c-8.533-23.894-32.426-40.96-59.733-40.96h-23.893c-6.827-29.014-32.427-51.2-64.854-51.2H462.507c-30.72 0-58.027 22.186-64.854 51.2H373.76c-27.307 0-49.493 17.066-59.733 40.96H230.4c-51.2 0-92.16 37.546-92.16 85.333v663.893c0 47.787 40.96 85.334 92.16 85.334h570.027c51.2 0 92.16-37.547 92.16-85.334V209.92c3.413-47.787-37.547-85.333-88.747-85.333zM349.867 138.24c3.413-11.947 15.36-22.187 27.306-22.187h39.254c5.12 0 8.533-1.706 11.946-5.12 3.414-3.413 5.12-8.533 5.12-13.653v-1.707c0-17.066 13.654-32.426 32.427-32.426h109.227c17.066 0 32.426 13.653 32.426 30.72v3.413c0 5.12 1.707 8.533 5.12 11.947s8.534 5.12 11.947 5.12h39.253c15.36 0 29.014 13.653 29.014 29.013s-13.654 29.013-29.014 29.013h-286.72c-15.36 0-29.013-11.946-29.013-27.306 0-1.707 1.707-3.414 1.707-6.827 0 1.707 0 1.707 0 0z m512 735.573c0 29.014-25.6 51.2-58.027 51.2H235.52c-32.427 0-58.027-22.186-58.027-51.2V209.92c0-29.013 25.6-51.2 58.027-51.2h80.213c5.12 29.013 30.72 51.2 61.44 51.2h285.014c30.72 0 56.32-22.187 61.44-51.2h80.213c32.427 0 58.027 22.187 58.027 51.2v663.893z" fill="#cdcdcd" p-id="5362"></path><path d="M757.76 747.52H281.6c-10.24 0-17.067 6.827-17.067 17.067s6.827 17.066 17.067 17.066h474.453c10.24 0 17.067-6.826 17.067-17.066s-6.827-17.067-15.36-17.067zM431.787 638.293c3.413 3.414 6.826 5.12 11.946 5.12s8.534-1.706 11.947-5.12l302.08-302.08c6.827-6.826 6.827-17.066 0-23.893s-17.067-6.827-23.893 0L443.733 602.453l-138.24-138.24c-6.826-6.826-17.066-6.826-23.893 0s-6.827 17.067 0 23.894l150.187 150.186z" fill="#cdcdcd" p-id="5363"></path></svg>