<svg xmlns="http://www.w3.org/2000/svg" viewBox="0 0 500 500"><g id="freepik--background-simple--inject-356"><path d="M466,255.68c-7.79,41.36-30.17,88.54-69.73,108.2-59.78,29.7-58.53,81.81-172.23,96.6a230.91,230.91,0,0,1-50,1.27,190.56,190.56,0,0,1-24.27-3.67C79.15,442.76,34.59,389.92,21.11,328.89c-17.74-80.25,32-128.56,64.83-157.48S147.83,47.36,259.49,32a223.64,223.64,0,0,1,51.45-1.34c39.1,3.66,80.93,19.46,108.64,48.33q3.12,3.25,6.05,6.71C463.82,130.65,476.63,199.29,466,255.68Z" style="fill:#5696FF"></path><path d="M466,255.68c-7.79,41.36-30.17,88.54-69.73,108.2-59.78,29.7-58.53,81.81-172.23,96.6a230.91,230.91,0,0,1-50,1.27,190.56,190.56,0,0,1-24.27-3.67C79.15,442.76,34.59,389.92,21.11,328.89c-17.74-80.25,32-128.56,64.83-157.48S147.83,47.36,259.49,32a223.64,223.64,0,0,1,51.45-1.34c39.1,3.66,80.93,19.46,108.64,48.33q3.12,3.25,6.05,6.71C463.82,130.65,476.63,199.29,466,255.68Z" style="fill:#fff;opacity:0.7000000000000001"></path></g><g id="freepik--Clouds--inject-356"><path d="M362,217.24c.29-.91-.37-2.68-.61-3.21-1.24-2.76-4.3-4-7.2-3.77a8.35,8.35,0,0,1-3.15,0,5.13,5.13,0,0,1-2.73-2.73,26.26,26.26,0,0,0-4.29-6c-2.61-2.72-6.14-4.72-10-4.59-10.43.36-9.36,9-12.24,11.52-1.6,1.4-2.75-.6-4.11-1.28a4.77,4.77,0,0,0-5.38.57c-1.49,1.25-2.37,3.07-3.54,4.63s-2.93,3-4.87,2.75c-1.62-.17-2.91-1.43-4.46-1.95A6.68,6.68,0,0,0,294,214a14.26,14.26,0,0,0-3.62,3.27Z" style="fill:#fff;stroke:#263238;stroke-miterlimit:10"></path><path d="M463.78,106.12c.45-1.39-.56-4.1-.93-4.92-1.9-4.23-6.6-6.15-11.05-5.78-1.62.13-3.28.51-4.83,0-1.94-.6-3.25-2.39-4.2-4.19A40.23,40.23,0,0,0,436.19,82c-4-4.18-9.42-7.25-15.38-7-16,.56-14.36,13.81-18.78,17.68-2.46,2.16-4.23-.91-6.32-2a7.3,7.3,0,0,0-8.25.87c-2.29,1.93-3.64,4.72-5.44,7.11s-4.49,4.55-7.47,4.22c-2.49-.27-4.47-2.19-6.85-3a10.27,10.27,0,0,0-8.27,1.21,22.27,22.27,0,0,0-5.56,5Z" style="fill:#fff;stroke:#263238;stroke-miterlimit:10"></path><path d="M128.22,59.23c.29-.92-.37-2.68-.61-3.21-1.24-2.76-4.3-4-7.2-3.77a8.35,8.35,0,0,1-3.15,0,5.13,5.13,0,0,1-2.73-2.73,26.26,26.26,0,0,0-4.29-6c-2.61-2.72-6.14-4.72-10-4.59-10.43.36-9.36,9-12.24,11.52-1.6,1.4-2.75-.6-4.11-1.28a4.77,4.77,0,0,0-5.38.57C77,51,76.12,52.81,75,54.37s-2.93,3-4.87,2.75c-1.62-.18-2.91-1.43-4.46-1.95a6.65,6.65,0,0,0-5.39.79,14.26,14.26,0,0,0-3.62,3.27Z" style="fill:#fff;stroke:#263238;stroke-miterlimit:10"></path></g><g id="freepik--Smoke--inject-356"><path d="M445.15,431.36a11,11,0,0,0,1.11-4.82,10.62,10.62,0,0,0-10.36-10.85,9.93,9.93,0,0,0-5.31,1.55,9.82,9.82,0,0,0,.14-1.55,8.63,8.63,0,1,0-17.24-.57l-.6,0A19.31,19.31,0,0,0,402.77,418a20.82,20.82,0,0,0-12-9.32,9.41,9.41,0,0,0,4.88-8.33,8.92,8.92,0,1,0-17.83,0,9.43,9.43,0,0,0,4.09,7.85,19.9,19.9,0,0,0-6.18,2.15,16.47,16.47,0,0,0-15.46-11.51,15.87,15.87,0,0,0-10.72,4.2c-1.4-12.78-11.76-22.72-24.34-22.72a23.94,23.94,0,0,0-18.2,8.5c-4.16-12.08-15.19-20.72-28.15-20.72A28.8,28.8,0,0,0,262.76,373a17.77,17.77,0,0,0-16.12,1.42A17.77,17.77,0,0,0,230.52,373a28.8,28.8,0,0,0-16.08-4.92c-13,0-24,8.64-28.15,20.72a24,24,0,0,0-18.21-8.5c-12.58,0-22.94,9.94-24.33,22.72a15.89,15.89,0,0,0-10.72-4.2,16.46,16.46,0,0,0-15.46,11.51,20.08,20.08,0,0,0-6.18-2.15,9.43,9.43,0,0,0,4.09-7.85,8.92,8.92,0,1,0-17.83,0,9.39,9.39,0,0,0,4.88,8.33,20.82,20.82,0,0,0-12,9.32,19.34,19.34,0,0,0-10.12-2.88c-.21,0-.4,0-.61,0a8.62,8.62,0,1,0-17.09,2.12,9.94,9.94,0,0,0-5.32-1.55A10.61,10.61,0,0,0,47,426.54a11,11,0,0,0,1.11,4.82Z" style="fill:#fff;stroke:#263238;stroke-miterlimit:10"></path></g><g id="freepik--Rocket--inject-356"><path d="M307.56,167.55l-10,219.24H194.83l-10-219.24c0-29.9,12.51-57.25,26.1-78.53,12.41-19.43,25.72-33.8,31.24-40.48a4.69,4.69,0,0,1,7.19,0C255,55.18,268.51,69.57,281.09,89,294.88,110.3,307.56,137.64,307.56,167.55Z" style="fill:#fff;stroke:#263238;stroke-miterlimit:10"></path><line x1="300.09" y1="190.12" x2="291.75" y2="378.86" style="fill:#fff;stroke:#263238;stroke-miterlimit:10"></line><path d="M281.56,103.41c10.18,18,18.66,39.77,19.38,63.27" style="fill:#fff;stroke:#263238;stroke-miterlimit:10"></path><path d="M281.09,89H210.93c12.41-19.43,25.72-33.8,31.24-40.48a4.69,4.69,0,0,1,7.19,0C255,55.18,268.51,69.57,281.09,89Z" style="fill:#5696FF;stroke:#263238;stroke-linecap:round;stroke-linejoin:round"></path><path d="M189.68,275.11s-26.06,9-35.86,33.47c-7.68,19.21-9.71,56.15-10.23,71.15a6.36,6.36,0,0,0,6.36,6.58h0a6.34,6.34,0,0,0,5.59-3.33c5.1-9.46,21-35.88,37.58-31.86Z" style="fill:#5696FF;stroke:#263238;stroke-linecap:round;stroke-linejoin:round"></path><path d="M302.74,274.89s26.14,9.2,35.93,33.69c7.69,19.21,9.72,56.15,10.23,71.15a6.36,6.36,0,0,1-6.36,6.58h0A6.34,6.34,0,0,1,337,383c-5.1-9.46-21.19-35.73-37.78-31.71Z" style="fill:#5696FF;stroke:#263238;stroke-linecap:round;stroke-linejoin:round"></path><path d="M310,278.27a59.29,59.29,0,0,0-7.29-3.38l-3.57,76.38a14.76,14.76,0,0,1,5.24-.3Z" style="fill:#263238;stroke:#263238;stroke-linecap:round;stroke-linejoin:round"></path><rect x="204.51" y="386.63" width="84.63" height="15.01" style="fill:#263238;stroke:#263238;stroke-linecap:round;stroke-linejoin:round"></rect></g><g id="freepik--icon-4--inject-356"><circle cx="245.33" cy="328.22" r="22.81" transform="translate(-70.04 66.58) rotate(-13.54)" style="fill:#fff;stroke:#263238;stroke-miterlimit:10"></circle><circle cx="245.33" cy="328.22" r="17.96" transform="translate(-68.37 64.58) rotate(-13.18)" style="fill:#5696FF;stroke:#263238;stroke-miterlimit:10"></circle><circle cx="245.33" cy="328.22" r="14.76" transform="translate(-68.46 64.68) rotate(-13.2)" style="fill:#fff;stroke:#263238;stroke-miterlimit:10"></circle><circle cx="245.33" cy="328.22" r="10.75" transform="translate(-68.56 64.8) rotate(-13.22)" style="fill:#5696FF;stroke:#263238;stroke-miterlimit:10"></circle><circle cx="245.33" cy="328.22" r="6.79" style="fill:#fff;stroke:#263238;stroke-miterlimit:10"></circle><path d="M248.47,328.22a3.15,3.15,0,1,0-3.14,3.14A3.14,3.14,0,0,0,248.47,328.22Z" style="fill:#5696FF;stroke:#263238;stroke-miterlimit:10"></path><polygon points="246.62 323.29 245.33 328.22 249.98 329.24 246.62 323.29" style="fill:#fff;stroke:#263238;stroke-miterlimit:10"></polygon><line x1="248.61" y1="326.04" x2="269.04" y2="314.91" style="fill:#fff;stroke:#263238;stroke-miterlimit:10"></line><polygon points="262.48 318.57 262.79 313.23 272.39 307.74 272.39 313.84 262.48 318.57" style="fill:#fff;stroke:#263238;stroke-miterlimit:10"></polygon><polygon points="276.51 316.74 272.3 313.63 262.44 318.82 267.19 321.57 276.51 316.74" style="fill:#fff;stroke:#263238;stroke-miterlimit:10"></polygon></g><g id="freepik--icon-3--inject-356"><circle cx="245.33" cy="262.08" r="22.81" style="fill:none;stroke:#263238;stroke-miterlimit:10"></circle><rect x="231.68" y="258.88" width="6.86" height="13.87" style="fill:#5696FF;stroke:#263238;stroke-miterlimit:10"></rect><rect x="241.96" y="254.47" width="6.86" height="18.28" style="fill:#5696FF;stroke:#263238;stroke-miterlimit:10"></rect><rect x="252.24" y="250.37" width="6.86" height="22.38" style="fill:#5696FF;stroke:#263238;stroke-miterlimit:10"></rect></g><g id="freepik--icon-2--inject-356"><circle cx="245.33" cy="197.57" r="22.81" style="fill:none;stroke:#263238;stroke-miterlimit:10"></circle><path d="M261.86,200.67v-5.92h-3.93a12.56,12.56,0,0,0-1.56-3.84l2.84-2.85L255,183.88l-2.83,2.83a12.49,12.49,0,0,0-3.78-1.57V181h-5.91v4.11a12.31,12.31,0,0,0-3.7,1.53l-3-3-4.18,4.19,3,3a12.85,12.85,0,0,0-1.54,3.63h-4.28v5.92H233a12.58,12.58,0,0,0,1.46,3.66l-3,3,4.18,4.18,2.94-2.93a12.85,12.85,0,0,0,3.67,1.61v4.18h5.91v-4a12.77,12.77,0,0,0,3.81-1.49l2.88,2.87,4.18-4.18-2.79-2.8a12.65,12.65,0,0,0,1.64-3.8Zm-16.39,3.64a6.75,6.75,0,1,1,6.74-6.74A6.75,6.75,0,0,1,245.47,204.31Z" style="fill:#5696FF;stroke:#263238;stroke-miterlimit:10"></path></g><g id="freepik--icon-1--inject-356"><circle cx="245.33" cy="133.06" r="22.81" style="fill:none;stroke:#263238;stroke-miterlimit:10"></circle><path d="M257.12,127.86a12,12,0,0,0-23.94-.51,11.85,11.85,0,0,0,2.49,7.82,13.58,13.58,0,0,1,3,8.26v.64h13v-.64a13.18,13.18,0,0,1,2.91-8.17A11.86,11.86,0,0,0,257.12,127.86Z" style="fill:#5696FF;stroke:#263238;stroke-miterlimit:10"></path><rect x="240.7" y="146.17" width="9.01" height="6.34" rx="1.9" style="fill:#fff;stroke:#263238;stroke-linecap:round;stroke-linejoin:round"></rect><rect x="238.65" y="144.07" width="13.08" height="2.97" style="fill:#fff;stroke:#263238;stroke-linecap:round;stroke-linejoin:round"></rect><polygon points="250.41 150.25 239.95 150.25 238.65 147.27 251.72 147.27 250.41 150.25" style="fill:#fff;stroke:#263238;stroke-linecap:round;stroke-linejoin:round"></polygon></g><g id="freepik--stage-4--inject-356"><path d="M68.49,286.36A3,3,0,0,1,67,286a2,2,0,0,1-.9-1,4.42,4.42,0,0,1-.36-1.7l1.71-.29a4.58,4.58,0,0,0,.12,1,1.31,1.31,0,0,0,.31.6.75.75,0,0,0,.53.19.55.55,0,0,0,.52-.24,1.1,1.1,0,0,0,.14-.55,1.72,1.72,0,0,0-.3-1,4.83,4.83,0,0,0-.77-.83l-1-.87a4.13,4.13,0,0,1-.88-1,2.68,2.68,0,0,1-.34-1.41,2.38,2.38,0,0,1,.7-1.85,2.78,2.78,0,0,1,1.92-.64,2.61,2.61,0,0,1,1.2.24,1.78,1.78,0,0,1,.73.65,2.67,2.67,0,0,1,.36.87,6.24,6.24,0,0,1,.13.94l-1.7.26a7.51,7.51,0,0,0-.07-.78,1.08,1.08,0,0,0-.22-.53.6.6,0,0,0-.49-.19.56.56,0,0,0-.51.25,1.08,1.08,0,0,0-.17.57,1.47,1.47,0,0,0,.23.85,4.06,4.06,0,0,0,.65.69l1,.86a5.75,5.75,0,0,1,1,1.21,3,3,0,0,1,.44,1.67,2.56,2.56,0,0,1-.31,1.24,2.18,2.18,0,0,1-.87.86A2.66,2.66,0,0,1,68.49,286.36Z" style="fill:#263238"></path><path d="M72.94,286.22V278h-1.5V276.5h5V278H74.94v8.24Z" style="fill:#263238"></path><path d="M76.46,286.22l1.88-9.72h2.2l1.87,9.72H80.58l-.35-2.13H78.69l-.37,2.13Zm2.41-3.34H80L79.45,279Z" style="fill:#263238"></path><path d="M85.75,286.37a2.58,2.58,0,0,1-1.56-.42,2.15,2.15,0,0,1-.82-1.17,5.6,5.6,0,0,1-.25-1.77v-3.25a5.63,5.63,0,0,1,.25-1.8,2.14,2.14,0,0,1,.88-1.17,3.13,3.13,0,0,1,1.71-.41,3.32,3.32,0,0,1,1.65.35,1.91,1.91,0,0,1,.87,1,3.81,3.81,0,0,1,.27,1.51v.56H86.82v-.68a4.5,4.5,0,0,0,0-.68.8.8,0,0,0-.22-.46.81.81,0,0,0-.56-.17.75.75,0,0,0-.58.2,1.08,1.08,0,0,0-.23.52,5,5,0,0,0,0,.68v4.31a3.23,3.23,0,0,0,.07.73,1,1,0,0,0,.27.51,1,1,0,0,0,1.14,0,1.09,1.09,0,0,0,.29-.53,3.42,3.42,0,0,0,.07-.75v-1H86v-1.2h2.73v5H87.48l-.12-.87a1.8,1.8,0,0,1-.58.73A1.7,1.7,0,0,1,85.75,286.37Z" style="fill:#263238"></path><path d="M90.13,286.22V276.5h4.23v1.37H92.11v2.58h1.74v1.38H92.11v3.05h2.28v1.34Z" style="fill:#263238"></path><path d="M100.94,286.22V284H98V282.5l2.53-6h2.16v6h.94V284h-.94v2.26Zm-1.49-3.68h1.49v-4.13Z" style="fill:#263238"></path><line x1="65.36" y1="295.17" x2="114.12" y2="295.17" style="fill:none;stroke:#263238;stroke-miterlimit:10"></line><line x1="65.36" y1="301.96" x2="114.12" y2="301.96" style="fill:none;stroke:#263238;stroke-miterlimit:10"></line><line x1="65.36" y1="308.74" x2="114.12" y2="308.74" style="fill:none;stroke:#263238;stroke-miterlimit:10"></line><line x1="65.36" y1="315.52" x2="114.12" y2="315.52" style="fill:none;stroke:#263238;stroke-miterlimit:10"></line><polyline points="222.52 327.75 164.32 327.75 164.32 281.1 113.08 281.1" style="fill:none;stroke:#263238;stroke-miterlimit:10"></polyline></g><g id="freepik--stage-3--inject-356"><path d="M68.49,224.25a3.08,3.08,0,0,1-1.5-.33,2.07,2.07,0,0,1-.9-1,4.47,4.47,0,0,1-.36-1.7l1.71-.29a4.48,4.48,0,0,0,.12,1,1.21,1.21,0,0,0,.31.6.76.76,0,0,0,.53.2.55.55,0,0,0,.52-.24,1.1,1.1,0,0,0,.14-.55,1.72,1.72,0,0,0-.3-1,4.83,4.83,0,0,0-.77-.83l-1-.88a4.08,4.08,0,0,1-.88-1,2.72,2.72,0,0,1-.34-1.42,2.36,2.36,0,0,1,.7-1.84,2.73,2.73,0,0,1,1.92-.64,2.61,2.61,0,0,1,1.2.24,1.76,1.76,0,0,1,.73.64,2.72,2.72,0,0,1,.36.88,6.07,6.07,0,0,1,.13.94l-1.7.25c0-.29,0-.55-.07-.78a1.12,1.12,0,0,0-.22-.53.63.63,0,0,0-.49-.19.57.57,0,0,0-.51.26,1,1,0,0,0-.17.57,1.49,1.49,0,0,0,.23.85,4.06,4.06,0,0,0,.65.69l1,.86a5.29,5.29,0,0,1,1,1.21,3,3,0,0,1,.44,1.67,2.56,2.56,0,0,1-.31,1.24,2.32,2.32,0,0,1-.87.86A2.66,2.66,0,0,1,68.49,224.25Z" style="fill:#263238"></path><path d="M72.94,224.12v-8.24h-1.5V214.4h5v1.48H74.94v8.24Z" style="fill:#263238"></path><path d="M76.46,224.12l1.88-9.72h2.2l1.87,9.72H80.58L80.23,222H78.69l-.37,2.14Zm2.41-3.35H80l-.59-3.92Z" style="fill:#263238"></path><path d="M85.75,224.26a2.58,2.58,0,0,1-1.56-.41,2.21,2.21,0,0,1-.82-1.18,5.52,5.52,0,0,1-.25-1.77v-3.25a5.71,5.71,0,0,1,.25-1.8,2.15,2.15,0,0,1,.88-1.16,3.13,3.13,0,0,1,1.71-.41,3.32,3.32,0,0,1,1.65.35,1.93,1.93,0,0,1,.87,1,3.88,3.88,0,0,1,.27,1.51v.57H86.82V217a4.36,4.36,0,0,0,0-.67.86.86,0,0,0-.22-.47.81.81,0,0,0-.56-.16.72.72,0,0,0-.58.2,1.08,1.08,0,0,0-.23.52,4.88,4.88,0,0,0,0,.68v4.31a3.29,3.29,0,0,0,.07.73.93.93,0,0,0,.27.5.81.81,0,0,0,.57.18.77.77,0,0,0,.57-.19,1,1,0,0,0,.29-.52,3.42,3.42,0,0,0,.07-.75v-1H86v-1.2h2.73v5H87.48l-.12-.88a1.83,1.83,0,0,1-.58.74A1.7,1.7,0,0,1,85.75,224.26Z" style="fill:#263238"></path><path d="M90.13,224.12V214.4h4.23v1.37H92.11v2.58h1.74v1.38H92.11v3.05h2.28v1.34Z" style="fill:#263238"></path><path d="M100.72,224.29a2.79,2.79,0,0,1-1.54-.37,2.05,2.05,0,0,1-.82-1,4.23,4.23,0,0,1-.25-1.53V221H100v.33a4,4,0,0,0,.07.77.91.91,0,0,0,.24.46.65.65,0,0,0,.48.16.69.69,0,0,0,.48-.16,1,1,0,0,0,.21-.48,4.15,4.15,0,0,0,.06-.77,2.5,2.5,0,0,0-.21-1.13.9.9,0,0,0-.87-.41h-.32v-1.37h.29a1,1,0,0,0,.88-.35,2,2,0,0,0,.23-1.09,2,2,0,0,0-.16-.9.65.65,0,0,0-.63-.33.59.59,0,0,0-.6.36,2.66,2.66,0,0,0-.15.93v.43H98.11v-.53a3,3,0,0,1,.31-1.44,2.11,2.11,0,0,1,.89-.91,2.87,2.87,0,0,1,1.4-.31,3.1,3.1,0,0,1,1.42.3,2,2,0,0,1,.89.87,3,3,0,0,1,.31,1.43,2.6,2.6,0,0,1-.36,1.42,1.58,1.58,0,0,1-.87.72,1.63,1.63,0,0,1,.64.39,2,2,0,0,1,.43.74,3.47,3.47,0,0,1,.16,1.15,4.62,4.62,0,0,1-.25,1.55,2.15,2.15,0,0,1-.83,1.06A2.69,2.69,0,0,1,100.72,224.29Z" style="fill:#263238"></path><line x1="65.36" y1="233.07" x2="114.12" y2="233.07" style="fill:none;stroke:#263238;stroke-miterlimit:10"></line><line x1="65.36" y1="239.85" x2="114.12" y2="239.85" style="fill:none;stroke:#263238;stroke-miterlimit:10"></line><line x1="65.36" y1="246.64" x2="114.12" y2="246.64" style="fill:none;stroke:#263238;stroke-miterlimit:10"></line><line x1="65.36" y1="253.42" x2="114.12" y2="253.42" style="fill:none;stroke:#263238;stroke-miterlimit:10"></line><polyline points="222.52 263.57 164.32 263.57 164.32 216.91 113.08 216.91" style="fill:none;stroke:#263238;stroke-miterlimit:10"></polyline></g><g id="freepik--stage-2--inject-356"><path d="M68.49,162.15a3.08,3.08,0,0,1-1.5-.33,2.05,2.05,0,0,1-.9-1,4.41,4.41,0,0,1-.36-1.69l1.71-.29a4.48,4.48,0,0,0,.12,1,1.21,1.21,0,0,0,.31.6.76.76,0,0,0,.53.2.55.55,0,0,0,.52-.24,1.12,1.12,0,0,0,.14-.55,1.72,1.72,0,0,0-.3-1A4.49,4.49,0,0,0,68,158l-1-.88a4.08,4.08,0,0,1-.88-1,2.74,2.74,0,0,1-.34-1.42,2.36,2.36,0,0,1,.7-1.84,2.73,2.73,0,0,1,1.92-.64,2.61,2.61,0,0,1,1.2.24,1.76,1.76,0,0,1,.73.64,2.72,2.72,0,0,1,.36.88,6.07,6.07,0,0,1,.13.94l-1.7.25a7.51,7.51,0,0,0-.07-.78,1.12,1.12,0,0,0-.22-.53.6.6,0,0,0-.49-.19.57.57,0,0,0-.51.26,1,1,0,0,0-.17.57,1.46,1.46,0,0,0,.23.84,4.06,4.06,0,0,0,.65.69l1,.87a5.46,5.46,0,0,1,1,1.2,3.07,3.07,0,0,1,.44,1.68,2.52,2.52,0,0,1-.31,1.23,2.27,2.27,0,0,1-.87.87A2.66,2.66,0,0,1,68.49,162.15Z" style="fill:#263238"></path><path d="M72.94,162v-8.25h-1.5V152.3h5v1.47H74.94V162Z" style="fill:#263238"></path><path d="M76.46,162l1.88-9.72h2.2L82.41,162H80.58l-.35-2.14H78.69L78.32,162Zm2.41-3.35H80l-.59-3.92Z" style="fill:#263238"></path><path d="M85.75,162.16a2.65,2.65,0,0,1-1.56-.41,2.21,2.21,0,0,1-.82-1.18,5.6,5.6,0,0,1-.25-1.77v-3.25a5.63,5.63,0,0,1,.25-1.8,2.15,2.15,0,0,1,.88-1.16,3,3,0,0,1,1.71-.41,3.21,3.21,0,0,1,1.65.35,1.93,1.93,0,0,1,.87,1,3.84,3.84,0,0,1,.27,1.51v.57H86.82v-.69a4.61,4.61,0,0,0,0-.68.83.83,0,0,0-.22-.46.81.81,0,0,0-.56-.17.72.72,0,0,0-.58.21,1,1,0,0,0-.23.52,4.88,4.88,0,0,0,0,.68v4.31a3.29,3.29,0,0,0,.07.73,1,1,0,0,0,.27.5.81.81,0,0,0,.57.18.77.77,0,0,0,.57-.19,1.06,1.06,0,0,0,.29-.52,3.42,3.42,0,0,0,.07-.75v-1H86V157h2.73v5H87.48l-.12-.88a1.73,1.73,0,0,1-.58.73A1.64,1.64,0,0,1,85.75,162.16Z" style="fill:#263238"></path><path d="M90.13,162V152.3h4.23v1.37H92.11v2.58h1.74v1.38H92.11v3h2.28V162Z" style="fill:#263238"></path><path d="M98.14,162v-1.31l2.37-3.64.5-.78a4.49,4.49,0,0,0,.38-.76,2.31,2.31,0,0,0,.15-.83,1.24,1.24,0,0,0-.18-.72.61.61,0,0,0-.52-.24.7.7,0,0,0-.55.2,1,1,0,0,0-.26.52,3.11,3.11,0,0,0-.07.71v.45H98.14v-.48a4.05,4.05,0,0,1,.27-1.53,2.18,2.18,0,0,1,.86-1.05,2.67,2.67,0,0,1,1.53-.38,2.56,2.56,0,0,1,1.93.67,2.62,2.62,0,0,1,.65,1.88,3.16,3.16,0,0,1-.18,1.09,4.78,4.78,0,0,1-.48,1c-.19.31-.4.63-.63.95l-1.87,2.82h2.89V162Z" style="fill:#263238"></path><line x1="65.36" y1="170.97" x2="114.12" y2="170.97" style="fill:none;stroke:#263238;stroke-miterlimit:10"></line><line x1="65.36" y1="177.75" x2="114.12" y2="177.75" style="fill:none;stroke:#263238;stroke-miterlimit:10"></line><line x1="65.36" y1="184.53" x2="114.12" y2="184.53" style="fill:none;stroke:#263238;stroke-miterlimit:10"></line><line x1="65.36" y1="191.32" x2="114.12" y2="191.32" style="fill:none;stroke:#263238;stroke-miterlimit:10"></line><polyline points="222.52 199.39 164.32 199.39 164.32 152.73 113.08 152.73" style="fill:none;stroke:#263238;stroke-miterlimit:10"></polyline></g><g id="freepik--stage-1--inject-356"><path d="M68.49,89a3.08,3.08,0,0,1-1.5-.33,2.07,2.07,0,0,1-.9-1,4.47,4.47,0,0,1-.36-1.7l1.71-.29a4.48,4.48,0,0,0,.12,1,1.21,1.21,0,0,0,.31.6.76.76,0,0,0,.53.2.55.55,0,0,0,.52-.24,1.1,1.1,0,0,0,.14-.55,1.72,1.72,0,0,0-.3-1,4.83,4.83,0,0,0-.77-.83L67,84a4.08,4.08,0,0,1-.88-1,2.72,2.72,0,0,1-.34-1.42,2.36,2.36,0,0,1,.7-1.84A2.73,2.73,0,0,1,68.38,79a2.61,2.61,0,0,1,1.2.24,1.76,1.76,0,0,1,.73.64,2.72,2.72,0,0,1,.36.88,6.07,6.07,0,0,1,.13.94L69.1,82c0-.29,0-.55-.07-.78a1.12,1.12,0,0,0-.22-.53.63.63,0,0,0-.49-.19.57.57,0,0,0-.51.26,1,1,0,0,0-.17.57,1.49,1.49,0,0,0,.23.85,4.06,4.06,0,0,0,.65.69l1,.86a5.29,5.29,0,0,1,1,1.21A3,3,0,0,1,71,86.58a2.56,2.56,0,0,1-.31,1.24,2.32,2.32,0,0,1-.87.86A2.66,2.66,0,0,1,68.49,89Z" style="fill:#263238"></path><path d="M72.94,88.86V80.62h-1.5V79.14h5v1.48H74.94v8.24Z" style="fill:#263238"></path><path d="M76.46,88.86l1.88-9.72h2.2l1.87,9.72H80.58l-.35-2.14H78.69l-.37,2.14Zm2.41-3.35H80l-.59-3.92Z" style="fill:#263238"></path><path d="M85.75,89a2.58,2.58,0,0,1-1.56-.41,2.21,2.21,0,0,1-.82-1.18,5.52,5.52,0,0,1-.25-1.77V82.39a5.71,5.71,0,0,1,.25-1.8,2.15,2.15,0,0,1,.88-1.16A3.13,3.13,0,0,1,86,79a3.32,3.32,0,0,1,1.65.35,1.93,1.93,0,0,1,.87,1,3.88,3.88,0,0,1,.27,1.51v.57H86.82v-.69a4.36,4.36,0,0,0,0-.67.86.86,0,0,0-.22-.47.81.81,0,0,0-.56-.16.72.72,0,0,0-.58.2,1.08,1.08,0,0,0-.23.52,4.88,4.88,0,0,0,0,.68v4.31a3.29,3.29,0,0,0,.07.73.93.93,0,0,0,.27.5.81.81,0,0,0,.57.18.77.77,0,0,0,.57-.19,1.06,1.06,0,0,0,.29-.52A3.42,3.42,0,0,0,87,86.1v-1H86v-1.2h2.73v5H87.48L87.36,88a1.83,1.83,0,0,1-.58.74A1.7,1.7,0,0,1,85.75,89Z" style="fill:#263238"></path><path d="M90.13,88.86V79.14h4.23v1.37H92.11v2.58h1.74v1.38H92.11v3h2.28v1.34Z" style="fill:#263238"></path><path d="M99.34,88.86v-7.8l-.29.13-.4.14-.41.14-.3.12V80.22l.39-.19.52-.27a3.76,3.76,0,0,0,.52-.31,1.86,1.86,0,0,0,.38-.31h1.44v9.72Z" style="fill:#263238"></path><line x1="65.36" y1="97.81" x2="114.12" y2="97.81" style="fill:none;stroke:#263238;stroke-miterlimit:10"></line><line x1="65.36" y1="104.59" x2="114.12" y2="104.59" style="fill:none;stroke:#263238;stroke-miterlimit:10"></line><line x1="65.36" y1="111.38" x2="114.12" y2="111.38" style="fill:none;stroke:#263238;stroke-miterlimit:10"></line><line x1="65.36" y1="118.16" x2="114.12" y2="118.16" style="fill:none;stroke:#263238;stroke-miterlimit:10"></line><polyline points="222.52 133.06 164.32 133.06 164.32 84.25 113.08 84.25" style="fill:none;stroke:#263238;stroke-miterlimit:10"></polyline></g></svg>