<svg xmlns="http://www.w3.org/2000/svg" viewBox="0 0 750 500"><g id="freepik--background-simple--inject-19"><path d="M61.71,156.74l1,1.66c8.49,14,23.84,22.43,40,21.4a42,42,0,0,0,6.2-.85,46,46,0,0,0,32.82-28.52c3.12-8.38,4-18,9.92-24.69,7.71-8.65,20.79-8.93,32.3-8.57s24.6.06,32.27-8.64c4.8-5.44,6.33-13.18,5.94-20.47-1-19.3-14.47-36.56-31.58-45.14s-37.24-9.34-56-5.57c-26.22,5.29-51.16,19.8-66.15,42.23S49.72,132.54,61.71,156.74Z" style="fill:#f5f5f5"></path><path d="M493.41,63.13l-.92,1.71c-7.71,14.44-7.14,31.94,2,45.35a41.52,41.52,0,0,0,3.89,4.89,46,46,0,0,0,41.27,13.71c8.8-1.58,17.55-5.75,26.29-4,11.38,2.22,18.28,13.34,23.83,23.42s12.49,21.2,23.88,23.37c7.13,1.36,14.57-1.27,20.65-5.32,16.08-10.71,24.08-31.08,22.74-50.17s-10.93-36.8-23.71-51c-17.91-19.87-43.11-33.93-70-35.4S508.12,40.48,493.41,63.13Z" style="fill:#f5f5f5"></path><circle cx="286.29" cy="75.76" r="31.78" transform="translate(144.81 335.92) rotate(-76.28)" style="fill:#f5f5f5"></circle><circle cx="169.38" cy="299.04" r="22.46" transform="translate(-161.84 207.35) rotate(-45)" style="fill:#f5f5f5"></circle></g><g id="freepik--Data--inject-19"><rect x="559.69" y="88.02" width="135.46" height="154.59" style="fill:#fff"></rect><path d="M695.14,242.61s0-.25,0-.74,0-1.2,0-2.14c0-1.9,0-4.7,0-8.35,0-7.3,0-18-.06-31.54,0-27.11-.06-65.73-.11-111.82l.22.22-135.44,0h0l.25-.25c0,57,0,110.14,0,154.59l-.21-.21,98.25.11,27.47.05,7.24,0,2.49,0-2.45,0-7.2,0-27.42.05-98.38.11h-.21v-.21c0-44.45,0-97.6,0-154.59v-.26h.26l135.44,0h.23V88c0,46.15-.09,84.82-.11,112,0,13.54,0,24.21-.06,31.49,0,3.63,0,6.42,0,8.3,0,.94,0,1.64,0,2.13S695.14,242.61,695.14,242.61Z" style="fill:#263238"></path><path d="M683.5,167c0,.1-1.5-.75-4.35-1.65a28,28,0,0,0-12.5-.93,27.21,27.21,0,0,0-8.24,2.65,39,39,0,0,0-8.1,5.82c-2.65,2.35-5.29,5-8.33,7.47a28.78,28.78,0,0,1-10.64,5.76,16.11,16.11,0,0,1-6.21.37,20.31,20.31,0,0,1-5.76-1.77,102.7,102.7,0,0,1-9.64-5.74,29.87,29.87,0,0,0-9.06-4.06,26.77,26.77,0,0,0-8.63-.66,27.82,27.82,0,0,0-11.91,3.87c-2.55,1.56-3.76,2.74-3.82,2.66s.27-.32.86-.85a20.23,20.23,0,0,1,2.77-2.11,27.13,27.13,0,0,1,20.91-3.66,30.66,30.66,0,0,1,9.33,4.08,99.36,99.36,0,0,0,9.58,5.64,16.36,16.36,0,0,0,11.35,1.33,28,28,0,0,0,10.3-5.57c3-2.4,5.64-5,8.34-7.4a39.11,39.11,0,0,1,8.32-5.87,27.79,27.79,0,0,1,8.49-2.61,27.34,27.34,0,0,1,12.7,1.24,22.31,22.31,0,0,1,3.2,1.37A6.2,6.2,0,0,1,683.5,167Z" style="fill:#FF725E"></path><rect x="596.97" y="187.72" width="11.52" height="31.15" style="fill:#FF725E"></rect><rect x="645.84" y="187.72" width="11.52" height="31.15" style="fill:#FF725E"></rect><rect x="662.13" y="169.43" width="11.52" height="49.44" style="fill:#FF725E"></rect><rect x="582.07" y="209.06" width="11.52" height="10.48" style="fill:#FF725E"></rect><rect x="613.26" y="201.78" width="11.52" height="17.08" style="fill:#FF725E"></rect><rect x="629.55" y="197.86" width="11.52" height="21" style="fill:#FF725E"></rect><path d="M609,222.53c0,.26-2.78.46-6.22.46s-6.22-.2-6.22-.46,2.78-.46,6.22-.46S609,222.28,609,222.53Z" style="fill:#263238"></path><path d="M594.62,222.53c0,.26-2.78.46-6.22.46s-6.22-.2-6.22-.46,2.78-.46,6.22-.46S594.62,222.28,594.62,222.53Z" style="fill:#263238"></path><path d="M675.91,222.53c0,.26-3.15.46-7,.46s-7-.2-7-.46,3.14-.46,7-.46S675.91,222.28,675.91,222.53Z" style="fill:#263238"></path><path d="M658.8,222.53c0,.26-3.14.46-7,.46s-7-.2-7-.46,3.15-.46,7-.46S658.8,222.28,658.8,222.53Z" style="fill:#263238"></path><path d="M641.07,222.53c0,.26-2.79.47-6.23.47s-6.22-.21-6.22-.47,2.79-.46,6.22-.46S641.07,222.28,641.07,222.53Z" style="fill:#263238"></path><path d="M624.24,222.53c0,.26-2.79.47-6.23.47s-6.22-.21-6.22-.47,2.79-.46,6.22-.46S624.24,222.28,624.24,222.53Z" style="fill:#263238"></path><rect x="581.8" y="110.55" width="94.11" height="39.08" style="fill:#e0e0e0"></rect><path d="M601.35,122.91a4.39,4.39,0,1,1-4.39-4.39A4.38,4.38,0,0,1,601.35,122.91Z" style="fill:#263238"></path><rect x="605.74" y="119.88" width="30.57" height="1.7" style="fill:#263238"></rect><rect x="605.74" y="123.73" width="59.47" height="1.7" style="fill:#fff"></rect><path d="M601.35,136.39A4.39,4.39,0,1,1,597,132,4.38,4.38,0,0,1,601.35,136.39Z" style="fill:#FF725E"></path><rect x="605.74" y="133.36" width="15.61" height="1.7" style="fill:#FF725E"></rect><rect x="605.74" y="137.22" width="59.47" height="1.7" style="fill:#fff"></rect><rect x="616.33" y="298.46" width="113.84" height="81.3" transform="translate(328.37 1009.42) rotate(-89.51)" style="fill:#fff"></rect><path d="M632.11,395.68s0-.17,0-.53v-1.57c0-1.42,0-3.49,0-6.17,0-5.42.08-13.33.14-23.34.14-20.07.34-48.56.59-82.23v-.23h.23l81.29.67h.27v.26c-.39,42.63-.74,82-1,113.84v.21h-.21L654.18,396l-16.35-.19-4.27-.06-1.45,0h5.81l16.39.09,59.1.4-.21.21c.26-31.79.58-71.22.93-113.84l.26.26h0l-81.29-.72.24-.23c-.34,33.6-.62,62-.82,82.07-.12,10-.21,17.95-.27,23.39,0,2.71-.06,4.79-.08,6.21,0,.7,0,1.23,0,1.61S632.11,395.68,632.11,395.68Z" style="fill:#263238"></path><path d="M643.46,309.58c0-.26,13.47-.36,30.07-.22s30.06.47,30.06.73-13.46.36-30.07.22S643.46,309.84,643.46,309.58Z" style="fill:#263238"></path><path d="M643.4,317.62c0-.27,13.46-.36,30.06-.22s30.06.47,30.06.73-13.46.36-30.07.22S643.39,317.88,643.4,317.62Z" style="fill:#263238"></path><path d="M643.33,325.65c0-.26,13.46-.35,30.06-.21s30.07.47,30.06.73-13.46.36-30.07.22S643.32,325.92,643.33,325.65Z" style="fill:#263238"></path><path d="M643.26,333.69c0-.26,13.46-.36,30.06-.21s30.07.47,30.06.73-13.46.36-30.07.22S643.25,334,643.26,333.69Z" style="fill:#263238"></path><path d="M643.19,341.73c0-.26,13.46-.36,30.06-.21s30.07.47,30.06.73-13.46.36-30.06.21S643.19,342,643.19,341.73Z" style="fill:#263238"></path><rect x="655.04" y="351.06" width="9.68" height="30.22" style="fill:#455a64"></rect><rect x="669.49" y="357.97" width="9.68" height="23.32" style="fill:#455a64"></rect><rect x="682.86" y="367.44" width="9.68" height="13.85" style="fill:#455a64"></rect><path d="M560.7,262.39l.35,0,1,0,3.95,0,14.49-.08,47.82-.08,42.74.06h.25v.2c-.05,6.09-.09,11.07-.11,14.57,0,1.7-.05,3-.07,4,0,.43,0,.77,0,1a1.6,1.6,0,0,1,0,.35s0-.12,0-.35,0-.61,0-1c0-.95,0-2.29-.06-4,0-3.5-.07-8.48-.11-14.57l.25.2-42.74.06-47.82-.08L566,262.49l-3.95-.05-1,0Z" style="fill:#263238"></path><path d="M559.44,114a2.42,2.42,0,0,1-.63,0l-1.81,0-6.71.07-22.62.09.25-.26c0,1.69,0,3.47.05,5.27.09,10.23.1,19.5,0,26.2,0,3.35-.07,6.07-.14,7.94,0,.94-.07,1.66-.11,2.16a5.81,5.81,0,0,1-.1.75s0-4.15,0-10.85-.12-16-.2-26.19c0-1.81,0-3.58,0-5.27v-.27h.26l22.62.08L557,114l1.81,0A3.91,3.91,0,0,1,559.44,114Z" style="fill:#263238"></path><path d="M562,114a2.57,2.57,0,1,1-2.56-2.56A2.57,2.57,0,0,1,562,114Z" style="fill:#263238"></path><path d="M673.68,282.34a2.57,2.57,0,1,1-2.56-2.56A2.56,2.56,0,0,1,673.68,282.34Z" style="fill:#263238"></path></g><g id="freepik--Device--inject-19"><path d="M556.2,153.89H209a10.84,10.84,0,0,0-10.84,10.84V410A10.85,10.85,0,0,0,209,420.84H342.23s8.47,26.21-17.81,39.78H449s-29.67-10.18-22-39.78H556.2A10.84,10.84,0,0,0,567,410V164.73A10.84,10.84,0,0,0,556.2,153.89Z" style="fill:#455a64"></path><path d="M387.21,395c4.73,6.75-2.67,14.14-9.42,9.42a2.46,2.46,0,0,1-.58-.58c-4.71-6.75,2.67-14.13,9.42-9.42A2.28,2.28,0,0,1,387.21,395Z" style="fill:#263238"></path><path d="M213.79,158.38H551.36a9.7,9.7,0,0,1,9.7,9.7V376a0,0,0,0,1,0,0h-357a0,0,0,0,1,0,0V168.08A9.7,9.7,0,0,1,213.79,158.38Z" style="fill:#fff"></path><path d="M213.25,158.38h340.3a7.52,7.52,0,0,1,7.52,7.52v10.56a0,0,0,0,1,0,0h-357a0,0,0,0,1,0,0v-8.93A9.15,9.15,0,0,1,213.25,158.38Z" style="fill:#ebebeb"></path><path d="M218,167.8a2.51,2.51,0,1,1-2.51-2.51A2.51,2.51,0,0,1,218,167.8Z" style="fill:#e0e0e0"></path><path d="M225.44,167.8a2.51,2.51,0,1,1-2.5-2.51A2.5,2.5,0,0,1,225.44,167.8Z" style="fill:#e0e0e0"></path><path d="M232.55,167.8a2.51,2.51,0,1,1-2.51-2.51A2.51,2.51,0,0,1,232.55,167.8Z" style="fill:#e0e0e0"></path><path d="M494.12,420.87c0,.12-49.41.21-110.36.21S273.4,421,273.4,420.87s49.4-.21,110.36-.21S494.12,420.76,494.12,420.87Z" style="fill:#263238"></path><polygon points="319.1 299.71 219.55 300 219.75 368.34 302.27 368.11 313.46 368.07 319.3 368.06 319.1 299.71" style="fill:#f5f5f5"></polygon><path d="M227.21,361c-.12,0-.25-11.59-.29-25.89s0-25.9.14-25.9.25,11.59.29,25.9S227.33,361,227.21,361Z" style="fill:#263238"></path><path d="M313.58,353.63c0,.12-19.41.28-43.36.34s-43.36,0-43.36-.09,19.41-.27,43.36-.34S313.58,353.51,313.58,353.63Z" style="fill:#ebebeb"></path><path d="M313.56,346c0,.12-19.42.28-43.36.35s-43.36,0-43.36-.1,19.41-.27,43.36-.34S313.56,345.91,313.56,346Z" style="fill:#ebebeb"></path><path d="M313.54,338.44c0,.12-19.42.27-43.36.34s-43.36,0-43.37-.09,19.41-.28,43.37-.35S313.54,338.32,313.54,338.44Z" style="fill:#ebebeb"></path><path d="M313.51,330.84c0,.12-19.41.27-43.35.34s-43.37,0-43.37-.09,19.41-.28,43.36-.35S313.51,330.72,313.51,330.84Z" style="fill:#ebebeb"></path><path d="M313.49,323.24c0,.12-19.41.27-43.36.34s-43.36,0-43.36-.09,19.41-.27,43.36-.34S313.49,323.12,313.49,323.24Z" style="fill:#ebebeb"></path><path d="M313.47,315.64c0,.12-19.41.27-43.36.34s-43.36,0-43.36-.09,19.41-.27,43.36-.34S313.47,315.52,313.47,315.64Z" style="fill:#ebebeb"></path><path d="M313.45,308c0,.12-19.42.28-43.36.35s-43.36,0-43.36-.1,19.41-.27,43.36-.34S313.45,307.92,313.45,308Z" style="fill:#ebebeb"></path><rect x="232.73" y="349.15" width="6.22" height="11.84" transform="translate(-1.02 0.68) rotate(-0.16)" style="fill:#FF725E"></rect><rect x="277.89" y="349.02" width="6.22" height="11.84" transform="translate(-1.01 0.81) rotate(-0.16)" style="fill:#FF725E"></rect><rect x="244.91" y="340.4" width="6.22" height="20.55" transform="translate(-1.01 0.72) rotate(-0.17)" style="fill:#FF725E"></rect><rect x="267.69" y="334.99" width="6.22" height="25.89" transform="translate(-1 0.78) rotate(-0.16)" style="fill:#FF725E"></rect><rect x="256.42" y="319.29" width="6.22" height="41.63" transform="translate(-0.98 0.75) rotate(-0.17)" style="fill:#FF725E"></rect><rect x="289.91" y="326.9" width="6.22" height="33.93" transform="matrix(1, 0, 0, 1, -0.99, 0.84)" style="fill:#FF725E"></rect><path d="M303.59,360.79c0,.12-17.07.27-38.11.33s-38.12,0-38.12-.11,17.06-.26,38.12-.32S303.59,360.67,303.59,360.79Z" style="fill:#263238"></path><polygon points="218.65 192.66 218.65 293.04 379.78 293.04 393.91 293.04 435.77 293.04 435.77 192.66 218.65 192.66" style="fill:#f5f5f5"></polygon><path d="M233.92,262v3.17h-.33v-2.88h-.74V262Z" style="fill:#263238"></path><path d="M234.68,263.58c0-1,.53-1.61,1.26-1.61s1.27.6,1.27,1.61-.53,1.61-1.27,1.61S234.68,264.59,234.68,263.58Zm2.2,0c0-.85-.38-1.31-.94-1.31s-.93.46-.93,1.31.38,1.31.93,1.31S236.88,264.43,236.88,263.58Z" style="fill:#263238"></path><path d="M235.21,245.17v.29H233v-.23l1.32-1.29c.36-.35.43-.57.43-.78,0-.37-.26-.6-.75-.6a1.07,1.07,0,0,0-.86.36l-.23-.2a1.42,1.42,0,0,1,1.12-.46c.64,0,1.05.33,1.05.86a1.29,1.29,0,0,1-.52,1l-1.08,1.06Z" style="fill:#263238"></path><path d="M235.6,243.88c0-1,.53-1.62,1.26-1.62s1.27.61,1.27,1.62-.53,1.61-1.27,1.61S235.6,244.88,235.6,243.88Zm2.2,0c0-.85-.38-1.32-.94-1.32s-.93.47-.93,1.32.38,1.31.93,1.31S237.8,244.72,237.8,243.88Z" style="fill:#263238"></path><path d="M235.14,224.84c0,.53-.39.94-1.15.94a1.63,1.63,0,0,1-1.14-.41l.16-.25a1.39,1.39,0,0,0,1,.36c.52,0,.81-.24.81-.64s-.26-.62-.85-.62h-.23V224l.88-1.1H233v-.29h2v.23l-.9,1.12C234.8,224,235.14,224.34,235.14,224.84Z" style="fill:#263238"></path><path d="M235.6,224.17c0-1,.53-1.61,1.26-1.61s1.27.6,1.27,1.61-.53,1.61-1.27,1.61S235.6,225.18,235.6,224.17Zm2.2,0c0-.85-.38-1.31-.94-1.31s-.93.46-.93,1.31.38,1.31.93,1.31S237.8,225,237.8,224.17Z" style="fill:#263238"></path><path d="M247.91,274c0-1,.53-1.62,1.26-1.62s1.27.61,1.27,1.62-.53,1.61-1.27,1.61S247.91,275,247.91,274Zm2.2,0c0-.85-.38-1.32-.94-1.32s-.93.47-.93,1.32.38,1.31.93,1.31S250.11,274.82,250.11,274Z" style="fill:#263238"></path><path d="M271.37,272.39v3.17H271v-2.88h-.75v-.29Z" style="fill:#263238"></path><path d="M296.09,275.27v.29h-2.22v-.23l1.31-1.29c.36-.35.43-.57.43-.78,0-.37-.26-.6-.74-.6a1.1,1.1,0,0,0-.87.36l-.23-.2a1.44,1.44,0,0,1,1.12-.46c.65,0,1.05.33,1.05.86a1.29,1.29,0,0,1-.52,1l-1.07,1.06Z" style="fill:#263238"></path><path d="M319.46,274.65c0,.53-.39.94-1.15.94a1.63,1.63,0,0,1-1.14-.41l.16-.26a1.35,1.35,0,0,0,1,.37c.53,0,.81-.25.81-.64s-.26-.63-.85-.63H318v-.24l.88-1.1H317.3v-.29h2v.23l-.9,1.13C319.12,273.79,319.46,274.14,319.46,274.65Z" style="fill:#263238"></path><path d="M343.49,274.73h-.63v.83h-.33v-.83h-1.78v-.24l1.68-2.1h.36l-1.62,2.05h1.37v-.74h.32v.74h.63Z" style="fill:#263238"></path><path d="M366.39,274.63c0,.54-.38,1-1.15,1a1.65,1.65,0,0,1-1.14-.41l.16-.26a1.37,1.37,0,0,0,1,.37c.53,0,.82-.26.82-.65s-.25-.66-1.06-.66h-.68l.17-1.59h1.73v.29h-1.45l-.11,1h.41C366,273.69,366.39,274.07,366.39,274.63Z" style="fill:#263238"></path><path d="M390.06,274.61a1,1,0,0,1-1.08,1c-.85,0-1.3-.59-1.3-1.59s.59-1.64,1.45-1.64a1.39,1.39,0,0,1,.75.18l-.13.26a1.12,1.12,0,0,0-.62-.15c-.68,0-1.12.44-1.12,1.3a2.54,2.54,0,0,0,0,.26,1,1,0,0,1,1-.55A1,1,0,0,1,390.06,274.61Zm-.32,0c0-.41-.31-.68-.8-.68a.74.74,0,0,0-.82.69c0,.35.29.68.84.68A.7.7,0,0,0,389.74,274.62Z" style="fill:#263238"></path><path d="M413.35,272.39v.23L412,275.56h-.35l1.31-2.88h-1.63v.59H411v-.88Z" style="fill:#263238"></path><path d="M413.52,263.73c0,.17-36.68.31-81.92.31s-81.92-.14-81.92-.31,36.67-.31,81.92-.31S413.52,263.56,413.52,263.73Z" style="fill:#263238"></path><path d="M413.52,243.93c0,.17-36.68.3-81.92.3s-81.92-.13-81.92-.3,36.67-.31,81.92-.31S413.52,243.76,413.52,243.93Z" style="fill:#263238"></path><path d="M413.52,224.12c0,.17-36.68.31-81.92.31s-81.92-.14-81.92-.31,36.67-.31,81.92-.31S413.52,224,413.52,224.12Z" style="fill:#263238"></path><path d="M249.68,263.44a1.06,1.06,0,1,1-1.05-1.05A1,1,0,0,1,249.68,263.44Z" style="fill:#FF725E"></path><path d="M273.23,263.44a1.05,1.05,0,1,1-1.05-1.05A1,1,0,0,1,273.23,263.44Z" style="fill:#FF725E"></path><path d="M296.79,263.44a1.05,1.05,0,1,1-1.05-1.05A1,1,0,0,1,296.79,263.44Z" style="fill:#FF725E"></path><path d="M320.35,263.44a1.06,1.06,0,1,1-1.05-1.05A1,1,0,0,1,320.35,263.44Z" style="fill:#FF725E"></path><path d="M343.9,263.44a1,1,0,1,1-1-1.05A1,1,0,0,1,343.9,263.44Z" style="fill:#FF725E"></path><path d="M391,263.44a1.06,1.06,0,1,1-1.06-1.05A1.05,1.05,0,0,1,391,263.44Z" style="fill:#FF725E"></path><path d="M367.46,263.44a1.05,1.05,0,1,1-1-1.05A1,1,0,0,1,367.46,263.44Z" style="fill:#FF725E"></path><path d="M414.57,263.44a1.05,1.05,0,1,1-1.05-1.05A1,1,0,0,1,414.57,263.44Z" style="fill:#FF725E"></path><path d="M260.41,263.73a.69.69,0,1,1-.69-.69A.69.69,0,0,1,260.41,263.73Z" style="fill:#e0e0e0"></path><path d="M284.06,263.73a.69.69,0,1,1-.69-.69A.69.69,0,0,1,284.06,263.73Z" style="fill:#e0e0e0"></path><path d="M307.7,263.73A.69.69,0,1,1,307,263,.69.69,0,0,1,307.7,263.73Z" style="fill:#e0e0e0"></path><path d="M331.35,263.73a.69.69,0,1,1-.69-.69A.69.69,0,0,1,331.35,263.73Z" style="fill:#e0e0e0"></path><path d="M355,263.73a.69.69,0,1,1-.69-.69A.69.69,0,0,1,355,263.73Z" style="fill:#e0e0e0"></path><path d="M378.64,263.73A.69.69,0,1,1,378,263,.69.69,0,0,1,378.64,263.73Z" style="fill:#e0e0e0"></path><path d="M402.28,263.73a.69.69,0,1,1-.69-.69A.69.69,0,0,1,402.28,263.73Z" style="fill:#e0e0e0"></path><path d="M274.76,255a2.58,2.58,0,1,1-2.58-2.58A2.58,2.58,0,0,1,274.76,255Z" style="fill:#FF725E"></path><path d="M295.32,242.85a2.59,2.59,0,1,1-2.59-2.58A2.59,2.59,0,0,1,295.32,242.85Z" style="fill:#FF725E"></path><path d="M320.82,243.93a2.58,2.58,0,1,1-2.58-2.58A2.58,2.58,0,0,1,320.82,243.93Z" style="fill:#FF725E"></path><path d="M345.73,221.88a2.58,2.58,0,1,1-2.58-2.58A2.59,2.59,0,0,1,345.73,221.88Z" style="fill:#FF725E"></path><path d="M369,235.9a2.58,2.58,0,1,1-2.58-2.58A2.58,2.58,0,0,1,369,235.9Z" style="fill:#FF725E"></path><path d="M392.54,239.63a2.58,2.58,0,1,1-2.58-2.58A2.57,2.57,0,0,1,392.54,239.63Z" style="fill:#FF725E"></path><path d="M414.57,255a4.51,4.51,0,0,1-.6,0,12.81,12.81,0,0,1-1.76-.24,13.28,13.28,0,0,1-6.13-2.91,12.66,12.66,0,0,1-3-3.92,28.87,28.87,0,0,0-3.15-4.88,10.44,10.44,0,0,0-5.33-3.71,6.81,6.81,0,0,0-3.52.12,9.62,9.62,0,0,0-3.27,1.85c-2,1.68-3.48,4.06-5.43,6.23a10.86,10.86,0,0,1-3.54,2.75,7.17,7.17,0,0,1-4.65.38,5.83,5.83,0,0,1-3.54-3.25,23.07,23.07,0,0,1-1.53-4.7,27,27,0,0,0-1.4-4.78,3.73,3.73,0,0,0-1.51-1.8,4.86,4.86,0,0,0-2.38-.47,39.48,39.48,0,0,0-5.18.92,15.32,15.32,0,0,1-2.73.31,6.27,6.27,0,0,1-2.78-.54,5.64,5.64,0,0,1-2.2-1.85,13.15,13.15,0,0,1-1.35-2.5c-.75-1.75-1.25-3.57-1.92-5.33a13.58,13.58,0,0,0-1.25-2.5,4.54,4.54,0,0,0-2-1.7c-.22-.06-.43-.14-.65-.19l-.68-.07a2.49,2.49,0,0,0-1.26.26,5.17,5.17,0,0,0-1.88,2,23.67,23.67,0,0,0-2.19,5.42c-.56,1.9-1,3.84-1.49,5.8-.75,3.25-1.43,6.49-2.26,9.66a48.82,48.82,0,0,1-1.45,4.68,12,12,0,0,1-2.45,4.25,3.33,3.33,0,0,1-2.32,1,4.65,4.65,0,0,1-2.39-.72,11.32,11.32,0,0,1-3.34-3.38,40.85,40.85,0,0,1-4-8.21c-1.13-2.72-2.41-5.41-4.51-7.26a8.46,8.46,0,0,0-7.58-1.84,12.73,12.73,0,0,0-3.6,1.58,24.79,24.79,0,0,0-3.15,2.28,42.18,42.18,0,0,0-5.25,5.28h0a56.78,56.78,0,0,1-7.78,6.46,38.06,38.06,0,0,1-8,4.32,17.43,17.43,0,0,1-7.8,1.3,27.65,27.65,0,0,1-6.5-1.57,62,62,0,0,1-8.44-3.86c-.94-.51-1.64-.92-2.11-1.21s-.69-.45-.69-.45l.73.39,2.14,1.14a65.74,65.74,0,0,0,8.46,3.73,27.24,27.24,0,0,0,6.43,1.49,17.13,17.13,0,0,0,7.64-1.33,37.7,37.7,0,0,0,7.85-4.31,56.29,56.29,0,0,0,7.68-6.44v0a42,42,0,0,1,5.3-5.38A26,26,0,0,1,302,235a13.48,13.48,0,0,1,3.75-1.66,9,9,0,0,1,8.08,1.95c2.23,1.95,3.53,4.73,4.68,7.46a40.81,40.81,0,0,0,4,8.09,10.72,10.72,0,0,0,3.16,3.2,4.12,4.12,0,0,0,2.08.64,2.81,2.81,0,0,0,1.9-.86,11.87,11.87,0,0,0,2.3-4,47.53,47.53,0,0,0,1.42-4.62c.83-3.15,1.5-6.39,2.26-9.65.46-2,.93-3.92,1.5-5.84a24.37,24.37,0,0,1,2.25-5.56,5.76,5.76,0,0,1,2.14-2.19,3,3,0,0,1,1.56-.33l.77.08c.25.06.5.15.74.22a5.19,5.19,0,0,1,2.33,1.93,13.36,13.36,0,0,1,1.31,2.62c.69,1.8,1.18,3.62,1.91,5.31s1.63,3.37,3.25,4.06,3.44.49,5.15.19a40.59,40.59,0,0,1,5.27-.91,5.3,5.3,0,0,1,2.67.54,4.24,4.24,0,0,1,1.74,2.06,26.7,26.7,0,0,1,1.43,4.88,21.89,21.89,0,0,0,1.47,4.6,5.31,5.31,0,0,0,3.21,3,6.63,6.63,0,0,0,4.31-.34A10.34,10.34,0,0,0,382,247.2c1.92-2.11,3.42-4.51,5.5-6.24a9.88,9.88,0,0,1,3.43-1.91,7.07,7.07,0,0,1,3.73-.11,10.73,10.73,0,0,1,5.5,3.87,28.6,28.6,0,0,1,3.15,5,12.45,12.45,0,0,0,2.91,3.87,13.44,13.44,0,0,0,6,3,13.07,13.07,0,0,0,1.74.29A5.53,5.53,0,0,1,414.57,255Z" style="fill:#FF725E"></path><path d="M275,210.55c0,.17-9.14.31-20.42.31s-20.43-.14-20.43-.31,9.15-.31,20.43-.31S275,210.38,275,210.55Z" style="fill:#263238"></path><polygon points="444.43 193.31 444.43 291.44 456.31 291.44 472.65 291.44 548.86 291.44 548.86 193.31 444.43 193.31" style="fill:#f5f5f5"></polygon><path d="M496.18,204.43a32.22,32.22,0,1,0,32.22,32.22A32.22,32.22,0,0,0,496.18,204.43Zm.49,51.53a19.8,19.8,0,1,1,19.79-19.8A19.81,19.81,0,0,1,496.67,256Z" style="fill:#263238"></path><path d="M496.68,204.44c0,3.43,0,8.05,0,11.93a19.79,19.79,0,0,1,18.86,25.79l11.68,3.17a32.22,32.22,0,0,0-30.53-40.89Z" style="fill:#FF725E"></path><path d="M476.87,236.16a19.77,19.77,0,0,1,11.74-18.07l-5-11.13A32.22,32.22,0,0,0,464,236.65c0,.45,0,.9,0,1.35h13C476.91,237.4,476.87,236.78,476.87,236.16Z" style="fill:#455a64"></path><path d="M496.67,256a19.92,19.92,0,0,1-4.19-.45c-.5,2.87-1.44,8.43-2.18,12.81a31.68,31.68,0,0,0,5.88.55,32.22,32.22,0,0,0,31-23.54l-11.68-3.17A19.8,19.8,0,0,1,496.67,256Z" style="fill:#FF725E"></path><g style="opacity:0.30000000000000004"><path d="M496.67,256a19.92,19.92,0,0,1-4.19-.45c-.5,2.87-1.44,8.43-2.18,12.81a31.68,31.68,0,0,0,5.88.55,32.22,32.22,0,0,0,31-23.54l-11.68-3.17A19.8,19.8,0,0,1,496.67,256Z"></path></g><path d="M492.39,237.76H491.2v1.54h-1.65v-1.54H485.6v-1.14l3.45-4.64h1.78l-3.2,4.4h2V235h1.6v1.37h1.19Z" style="fill:#263238"></path><path d="M492.89,235.64c0-2.41,1.34-3.79,3.14-3.79s3.14,1.38,3.14,3.79-1.33,3.79-3.14,3.79S492.89,238.06,492.89,235.64Zm4.57,0c0-1.66-.58-2.35-1.43-2.35s-1.42.69-1.42,2.35S495.19,238,496,238,497.46,237.3,497.46,235.64Z" style="fill:#263238"></path><path d="M499.87,233.92a1.82,1.82,0,1,1,1.82,2A1.82,1.82,0,0,1,499.87,233.92Zm2.58,0c0-.79-.3-1.17-.76-1.17s-.77.39-.77,1.17.32,1.16.77,1.16S502.45,234.7,502.45,233.92Zm3.6-1.94h1.24l-5,7.32h-1.24Zm-1.2,5.39a1.83,1.83,0,1,1,1.81,2A1.82,1.82,0,0,1,504.85,237.37Zm2.57,0c0-.78-.3-1.16-.76-1.16s-.77.37-.77,1.16.32,1.16.77,1.16S507.42,238.14,507.42,237.37Z" style="fill:#263238"></path><path d="M522.84,277c0,.17-11.93.3-26.66.3s-26.66-.13-26.66-.3,11.94-.31,26.66-.31S522.84,276.83,522.84,277Z" style="fill:#263238"></path><path d="M511,281.89c0,.17-6.62.31-14.79.31s-14.79-.14-14.79-.31,6.62-.3,14.79-.3S511,281.73,511,281.89Z" style="fill:#263238"></path><rect x="327.21" y="297.97" width="209.59" height="68.86" style="fill:#fafafa"></rect><path d="M519.12,314.26c0,.12-35.62.22-79.55.22s-79.55-.1-79.55-.22,35.61-.22,79.55-.22S519.12,314.14,519.12,314.26Z" style="fill:#ebebeb"></path><path d="M519.12,322.41c0,.12-35.62.22-79.55.22s-79.55-.1-79.55-.22,35.61-.22,79.55-.22S519.12,322.28,519.12,322.41Z" style="fill:#ebebeb"></path><path d="M519.12,330.56c0,.12-35.62.22-79.55.22s-79.55-.1-79.55-.22,35.61-.23,79.55-.23S519.12,330.43,519.12,330.56Z" style="fill:#ebebeb"></path><path d="M519.12,338.7c0,.13-35.62.22-79.55.22S360,338.83,360,338.7s35.61-.22,79.55-.22S519.12,338.58,519.12,338.7Z" style="fill:#ebebeb"></path><path d="M519.12,346.85c0,.12-35.62.22-79.55.22S360,347,360,346.85s35.61-.22,79.55-.22S519.12,346.73,519.12,346.85Z" style="fill:#ebebeb"></path><path d="M505.27,337.36s-.11.13-.35.36a4.47,4.47,0,0,1-1.34.74,7.12,7.12,0,0,1-5.8-.93,9.56,9.56,0,0,1-2.74-3c-.76-1.23-1.36-2.66-2.08-4.15a12.93,12.93,0,0,0-3.11-4.33,7,7,0,0,0-2.71-1.43,8,8,0,0,0-3.32-.16,13.41,13.41,0,0,0-6.35,2.91c-1.9,1.49-3.56,3.31-5.6,5a13.65,13.65,0,0,1-7.69,3.27,7.79,7.79,0,0,1-4.39-1,9.58,9.58,0,0,1-3.07-3.07c-1.58-2.36-2.38-5.12-4.44-7.28a7.35,7.35,0,0,0-3.85-2.31,6,6,0,0,0-4.52.94,9,9,0,0,0-3,3.44,19.44,19.44,0,0,0-1.41,4.29,24.05,24.05,0,0,1-1.39,4.45,9.34,9.34,0,0,1-3.17,3.82,12.73,12.73,0,0,1-4.85,2.1,13.21,13.21,0,0,1-5.35.06,12.8,12.8,0,0,1-4.73-2c-1.4-.9-2.66-1.9-4-2.8a12.41,12.41,0,0,0-4.3-2,7.11,7.11,0,0,0-4.6.52,10.3,10.3,0,0,0-3.43,2.77,25.93,25.93,0,0,0-2.33,3.53,26.54,26.54,0,0,1-2.29,3.49,10.29,10.29,0,0,1-3.3,2.72,7.56,7.56,0,0,1-4.31.87,6.4,6.4,0,0,1-3.74-1.81,8.79,8.79,0,0,1-2.07-3.11,21.06,21.06,0,0,1-.94-3.33c-.46-2.18-.91-4.31-2.21-6a7.77,7.77,0,0,0-5.11-3.3,6.46,6.46,0,0,0-3,.32,7.91,7.91,0,0,0-2.36,1.35c-2.69,2.23-4,4.92-6,6.48a8.6,8.6,0,0,1-5.34,2.33,5.24,5.24,0,0,1-1.56-.24l-.49-.19a6.19,6.19,0,0,0,2,.34,8.56,8.56,0,0,0,5.21-2.36c1.94-1.55,3.18-4.24,5.91-6.54a8.39,8.39,0,0,1,2.45-1.42,6.81,6.81,0,0,1,3.1-.35,8.14,8.14,0,0,1,5.38,3.41,10,10,0,0,1,1.48,2.89,32.94,32.94,0,0,1,.81,3.22,19.93,19.93,0,0,0,.94,3.28,8.62,8.62,0,0,0,2,3,6.05,6.05,0,0,0,3.49,1.68,7.1,7.1,0,0,0,4-.84,9.83,9.83,0,0,0,3.15-2.61,26.22,26.22,0,0,0,2.25-3.45,26.3,26.3,0,0,1,2.36-3.58,10.66,10.66,0,0,1,3.59-2.9,7.62,7.62,0,0,1,4.95-.57,13.07,13.07,0,0,1,4.49,2.11c1.35.91,2.61,1.91,4,2.79a12.35,12.35,0,0,0,4.54,1.94,12.62,12.62,0,0,0,5.12-.06,12.14,12.14,0,0,0,4.65-2,9.72,9.72,0,0,0,1.79-1.65,9.5,9.5,0,0,0,1.22-2,23.21,23.21,0,0,0,1.38-4.38,19.81,19.81,0,0,1,1.44-4.37,9.54,9.54,0,0,1,3.13-3.6,6.58,6.58,0,0,1,4.94-1,7.82,7.82,0,0,1,4.12,2.47c2.13,2.26,2.93,5,4.47,7.34a9.39,9.39,0,0,0,2.91,2.94,7.36,7.36,0,0,0,4.12,1,13.23,13.23,0,0,0,7.42-3.15c2-1.62,3.69-3.45,5.62-4.95a13.86,13.86,0,0,1,6.56-3,8.68,8.68,0,0,1,3.49.18,7.57,7.57,0,0,1,2.82,1.51,13.09,13.09,0,0,1,3.15,4.44,46,46,0,0,0,2,4.15,9.27,9.27,0,0,0,2.64,2.95,7,7,0,0,0,5.65,1A4.36,4.36,0,0,0,505.27,337.36Z" style="fill:#455a64"></path><path d="M515.33,335.46s-.18,0-.55,0a5.3,5.3,0,0,1-.68-.08,7.08,7.08,0,0,1-.88-.27,14.88,14.88,0,0,1-4.74-3.46c-.44-.45-.9-.93-1.36-1.44a15.31,15.31,0,0,0-1.47-1.57,8.36,8.36,0,0,0-4.68-1.85,7.57,7.57,0,0,0-2.86.31,7.43,7.43,0,0,0-2.54,1.49,51.61,51.61,0,0,0-4.19,4.7,12,12,0,0,1-2.69,2.26,9.08,9.08,0,0,1-3.66,1.19,18.75,18.75,0,0,1-8.08-1.31c-2.64-.95-5.16-2.26-8-3.1a16.72,16.72,0,0,0-4.42-.77,11,11,0,0,0-4.46.84c-2.84,1.18-5.06,3.34-7.74,5.09a16.38,16.38,0,0,1-4.48,2.13,18.68,18.68,0,0,1-5.13.77,21,21,0,0,1-10.2-2.45,23.32,23.32,0,0,1-7.73-6.67c-2.07-2.69-3.21-5.75-4.71-8.54a16.89,16.89,0,0,0-2.73-3.88,11.81,11.81,0,0,0-4-2.7,8.2,8.2,0,0,0-4.86-.45,8.39,8.39,0,0,0-4,2.3,11.52,11.52,0,0,0-2.42,3.64,26.9,26.9,0,0,0-1.25,4c-.33,1.35-.63,2.7-1.05,4a16.43,16.43,0,0,1-1.73,3.73,17.9,17.9,0,0,1-5.84,5.71,18.68,18.68,0,0,1-7.62,2.68A18.33,18.33,0,0,1,377,341c-4.61-1.44-7.87-4.54-9.08-7.72-.63-1.59-.95-3.11-1.4-4.47a9.75,9.75,0,0,0-1.81-3.5,6.86,6.86,0,0,0-5.26-2.33,4.27,4.27,0,0,0-2,.63,3.47,3.47,0,0,1,2-.72,6.94,6.94,0,0,1,5.42,2.32,9.83,9.83,0,0,1,1.89,3.54c.47,1.37.8,2.89,1.44,4.44,1.21,3.11,4.41,6.13,8.93,7.52a17.91,17.91,0,0,0,7.36.71,18.38,18.38,0,0,0,7.42-2.63,17.63,17.63,0,0,0,5.69-5.61,23.18,23.18,0,0,0,2.72-7.62,26.54,26.54,0,0,1,1.26-4.08,12,12,0,0,1,2.5-3.76,8.49,8.49,0,0,1,9.47-2,12.35,12.35,0,0,1,4.21,2.81,17.57,17.57,0,0,1,2.82,4c1.52,2.84,2.64,5.85,4.67,8.49a23,23,0,0,0,7.57,6.54,20.62,20.62,0,0,0,9.92,2.39,19.16,19.16,0,0,0,5-.74,16.58,16.58,0,0,0,4.35-2.06c2.63-1.72,4.87-3.9,7.83-5.12a11.35,11.35,0,0,1,4.67-.88,17.35,17.35,0,0,1,4.55.8c2.89.86,5.43,2.19,8,3.13a18.29,18.29,0,0,0,7.87,1.31,8.64,8.64,0,0,0,3.5-1.12,11.2,11.2,0,0,0,2.61-2.19,54,54,0,0,1,4.25-4.7,7.68,7.68,0,0,1,2.67-1.54,7.86,7.86,0,0,1,3-.31,8.58,8.58,0,0,1,4.82,1.95,16.49,16.49,0,0,1,1.48,1.6c.45.52.9,1,1.33,1.44a14.79,14.79,0,0,0,4.63,3.49A4.64,4.64,0,0,0,515.33,335.46Z" style="fill:#FF725E"></path><path d="M349.1,314.66a5,5,0,0,1-2.11.23,4.94,4.94,0,0,1-2.1-.23,5.23,5.23,0,0,1,2.1-.22A5.3,5.3,0,0,1,349.1,314.66Z" style="fill:#e0e0e0"></path><path d="M349.1,322.41a5.3,5.3,0,0,1-2.11.22,5.23,5.23,0,0,1-2.1-.22,5,5,0,0,1,2.1-.22A5.1,5.1,0,0,1,349.1,322.41Z" style="fill:#e0e0e0"></path><path d="M349.1,330.15a5.3,5.3,0,0,1-2.11.22,5.23,5.23,0,0,1-2.1-.22,5.23,5.23,0,0,1,2.1-.22A5.3,5.3,0,0,1,349.1,330.15Z" style="fill:#e0e0e0"></path><path d="M349.1,337.89a5,5,0,0,1-2.11.23,4.94,4.94,0,0,1-2.1-.23,5.23,5.23,0,0,1,2.1-.22A5.3,5.3,0,0,1,349.1,337.89Z" style="fill:#e0e0e0"></path><path d="M349.1,345.64a5.3,5.3,0,0,1-2.11.22,5.23,5.23,0,0,1-2.1-.22,4.94,4.94,0,0,1,2.1-.23A5,5,0,0,1,349.1,345.64Z" style="fill:#e0e0e0"></path><path d="M368.43,355.59a40.3,40.3,0,0,1-8.41,0,40.3,40.3,0,0,1,8.41,0Z" style="fill:#e0e0e0"></path><path d="M405.53,355.59a40.3,40.3,0,0,1-8.41,0,40.3,40.3,0,0,1,8.41,0Z" style="fill:#e0e0e0"></path><path d="M442.63,355.59a40.39,40.39,0,0,1-8.42,0,40.39,40.39,0,0,1,8.42,0Z" style="fill:#e0e0e0"></path><path d="M479.73,355.59a40.39,40.39,0,0,1-8.42,0,40.39,40.39,0,0,1,8.42,0Z" style="fill:#e0e0e0"></path><path d="M516.82,355.59a40.3,40.3,0,0,1-8.41,0,40.3,40.3,0,0,1,8.41,0Z" style="fill:#e0e0e0"></path></g><g id="freepik--Robot--inject-19"><path d="M565.51,253.81S592,255,594.85,278.13s-19.49,22.29-26,22.36c-2.93,0-8.77,0-14.28,0-11.7-.06-21-4.45-23.32-15.92a21.32,21.32,0,0,1-.43-4.08C530.79,268,540.13,251.76,565.51,253.81Z" style="fill:#FF725E"></path><path d="M540.9,280.84l33.88,2.4a6.45,6.45,0,0,0,6.89-6h0a6.45,6.45,0,0,0-6-6.89L541.81,268a6.44,6.44,0,0,0-6.88,6h0A6.44,6.44,0,0,0,540.9,280.84Z" style="fill:#263238"></path><path d="M567.32,277.22a2.07,2.07,0,1,0,1.77-2.34A2.07,2.07,0,0,0,567.32,277.22Z" style="fill:#fff"></path><path d="M543.65,275.53a2.07,2.07,0,1,0,1.77-2.33A2.07,2.07,0,0,0,543.65,275.53Z" style="fill:#fff"></path><path d="M557.15,267.4a19.82,19.82,0,0,0,.78-2.48,23.18,23.18,0,0,1,2.47-5.69,11.73,11.73,0,0,1,4.32-4.3,20.26,20.26,0,0,1,2.39-1,2.15,2.15,0,0,0-.7.08,8.6,8.6,0,0,0-1.82.63,11.16,11.16,0,0,0-4.54,4.35,20.23,20.23,0,0,0-2.4,5.82c-.19.78-.32,1.42-.41,1.86A2.94,2.94,0,0,0,557.15,267.4Z" style="fill:#fff"></path><path d="M560.92,300.5c0-.05-.8-.66-1.89-1.89A14.48,14.48,0,0,1,556,293a25.22,25.22,0,0,1-.84-6.37,22.19,22.19,0,0,0,0-2.69,2.49,2.49,0,0,0-.12.72c-.05.46-.11,1.13-.16,2a21.64,21.64,0,0,0,.73,6.49,13.65,13.65,0,0,0,3.26,5.64,12.81,12.81,0,0,0,1.49,1.32C560.68,300.39,560.9,300.53,560.92,300.5Z" style="fill:#fff"></path><g style="opacity:0.30000000000000004"><path d="M537.29,295.25c2.76-1.91,4.86-1.84,8.36-2.5a65.28,65.28,0,0,1,10.63-.91c8.21-.18,16.69.15,23.76,3a10.25,10.25,0,0,1,4.77,3.35s-3.4,1.85-10.39,2.13c-6.68.26-20.67.11-20.67.11a32.92,32.92,0,0,1-11.63-2.25C537.69,296.3,537.29,295.25,537.29,295.25Z"></path></g><path d="M532.84,273.58a5.18,5.18,0,0,0-.13,1.23,7.35,7.35,0,0,0,.8,3.43,8,8,0,0,0,4.08,3.74,22.66,22.66,0,0,0,7.27,1.38l19.19,1.48,5.54.43c1.89.12,3.82.35,5.81.33a9,9,0,0,0,5.75-1.82,8.49,8.49,0,0,0,1.37-11.46,9.24,9.24,0,0,0-5-3.42,15.92,15.92,0,0,0-2.93-.42l-2.86-.26-5.54-.51L556,266.77c-3.22-.23-6.18-.71-8.93-.88a30.09,30.09,0,0,0-3.92,0,15.22,15.22,0,0,0-3.45.61,11.09,11.09,0,0,0-4.8,2.83,7.9,7.9,0,0,0-1.79,3,5.88,5.88,0,0,0-.21.89,1.88,1.88,0,0,0,0,.31s.07-.42.33-1.18a7.88,7.88,0,0,1,1.83-2.95,11,11,0,0,1,4.74-2.72,14.38,14.38,0,0,1,3.41-.56,28.09,28.09,0,0,1,3.89,0c2.72.18,5.69.68,8.9.93l10.24,1,5.54.53,2.86.27a15.05,15.05,0,0,1,2.86.41,8.8,8.8,0,0,1,4.75,3.28,8,8,0,0,1,1.48,5.7,8.12,8.12,0,0,1-2.78,5.19,8.58,8.58,0,0,1-5.5,1.74c-1.94,0-3.88-.21-5.77-.33l-5.55-.4-19.19-1.4a22.68,22.68,0,0,1-7.2-1.3,7.9,7.9,0,0,1-4-3.6,7.63,7.63,0,0,1-.86-3.36A12.11,12.11,0,0,1,532.84,273.58Z" style="fill:#fff"></path><path d="M595,282a5.65,5.65,0,0,0-1.41-.93,22.72,22.72,0,0,0-3.74-1.61,21.7,21.7,0,0,0-4-.92,5.88,5.88,0,0,0-1.69-.1c0,.13,2.54.42,5.52,1.41S595,282.11,595,282Z" style="fill:#fff"></path><path d="M564.27,257.28a.33.33,0,1,0,0,.58.34.34,0,0,0,0-.56" style="fill:#fff"></path><path d="M561,263.83a.34.34,0,0,0-.46.31.33.33,0,1,0,.49-.3" style="fill:#fff"></path><path d="M588.08,277.11a.34.34,0,0,0-.46.32.33.33,0,1,0,.49-.3" style="fill:#fff"></path><path d="M593.58,279.14a.34.34,0,0,0-.47.31.33.33,0,1,0,.49-.3" style="fill:#fff"></path><g style="opacity:0.30000000000000004"><path d="M558.59,255.16c0,.3,2.39.64,6.22,1.3a48.66,48.66,0,0,1,14.24,4.42,27.31,27.31,0,0,1,6.49,4.81,22.86,22.86,0,0,1,3.92,5.3c1.77,3.36,2,5.82,2.31,5.78.12,0,.23-.63.16-1.76a14.9,14.9,0,0,0-1.15-4.64,21,21,0,0,0-3.87-6,25.62,25.62,0,0,0-6.9-5.32,34,34,0,0,0-8.11-3A45.91,45.91,0,0,0,565,255C561.05,254.72,558.61,254.89,558.59,255.16Z" style="fill:#fff"></path></g><g style="opacity:0.30000000000000004"><path d="M588.68,288.78c.4.39,1.81-.43,2.69-2.12s.74-3.3.19-3.4-1.28,1.05-2,2.45S588.27,288.38,588.68,288.78Z" style="fill:#fff"></path></g><path d="M552.75,276a2.6,2.6,0,0,0,.26,1.74,4,4,0,0,0,3.38,2.42,4,4,0,0,0,3.75-1.81,2.63,2.63,0,0,0,.56-1.66,8.92,8.92,0,0,1-.79,1.5,4.31,4.31,0,0,1-1.37,1.15,3.94,3.94,0,0,1-2.11.41,3.9,3.9,0,0,1-2-.77,4.19,4.19,0,0,1-1.14-1.37A8.31,8.31,0,0,1,552.75,276Z" style="fill:#fff"></path><path d="M532.42,308.72c-1.54.56.22,23.34,1.41,34.95.64,6.22,1.58,12.68,5.15,17.82,4,5.72,11,8.26,18,9,9.65,1,17.21-3.54,21.59-11.21a65.81,65.81,0,0,0,8.2-24c1.22-9.58,2-15.82,1.78-24.2C588.51,311.12,560.44,298.52,532.42,308.72Z" style="fill:#FF725E"></path><path d="M571.05,354.73a.34.34,0,0,0-.48.28.35.35,0,0,0,.48.3.35.35,0,0,0,0-.57" style="fill:#fff"></path><path d="M560.92,355.07a.34.34,0,0,0-.48.28.35.35,0,0,0,.48.3.35.35,0,0,0,0-.57" style="fill:#fff"></path><path d="M549.13,345.45a.33.33,0,1,0,0,.58.35.35,0,0,0,0-.57" style="fill:#fff"></path><path d="M552.32,319.33a.33.33,0,1,0,0,.58.35.35,0,0,0,0-.57" style="fill:#fff"></path><path d="M542.28,324.3a.35.35,0,0,0-.48.29.34.34,0,0,0,.48.29.34.34,0,0,0,0-.56" style="fill:#fff"></path><path d="M582.28,350.91a.35.35,0,0,0-.49.28.36.36,0,0,0,.49.3.35.35,0,0,0,0-.57" style="fill:#fff"></path><path d="M583.32,342.22a.34.34,0,0,0-.48.28.35.35,0,0,0,.48.3.35.35,0,0,0,0-.57" style="fill:#fff"></path><path d="M583.49,334.4a.35.35,0,0,0-.49.29.33.33,0,1,0,.51-.27" style="fill:#fff"></path><path d="M583.62,326.1a.35.35,0,0,0-.49.29.33.33,0,1,0,.51-.27" style="fill:#fff"></path><path d="M536,322.74a.34.34,0,0,0-.48.28.33.33,0,1,0,.51-.27" style="fill:#fff"></path><path d="M548.15,355.22a.33.33,0,1,0,0,.58.35.35,0,0,0,0-.58" style="fill:#fff"></path><path d="M547.64,363.44a.33.33,0,1,0,0,.58.35.35,0,0,0,0-.57" style="fill:#fff"></path><path d="M572.74,364.87a3,3,0,0,0,.41-.37c.25-.25.62-.63,1.06-1.15a16.16,16.16,0,0,0,3-4.94,26.6,26.6,0,0,0,1-3.86c.31-1.4.6-2.9.91-4.48.6-3.16,1.15-6.66,1.61-10.34a164.58,164.58,0,0,0,1.23-19c0-2.43,0-4.4-.08-5.76,0-.65,0-1.17-.07-1.57a2.5,2.5,0,0,0-.06-.54,3.85,3.85,0,0,0,0,.54V315c0,1.36,0,3.33,0,5.76a188.91,188.91,0,0,1-1.35,18.93c-.46,3.67-1,7.16-1.58,10.32-.29,1.58-.57,3.08-.87,4.48a24.54,24.54,0,0,1-1,3.83,16.66,16.66,0,0,1-2.83,4.94c-.42.53-.77.92-1,1.19A2.64,2.64,0,0,0,572.74,364.87Z" style="fill:#fff"></path><path d="M552.59,341.14c-.11,0-.5,6.32-.87,14.13s-.57,14.15-.46,14.15.5-6.32.87-14.13S552.7,341.14,552.59,341.14Z" style="fill:#fff"></path><path d="M561.85,305a2.91,2.91,0,0,0-.52.6c-.31.41-.76,1-1.3,1.74-1.08,1.48-2.56,3.54-4.16,5.82l-.6.85-.07.11a.21.21,0,0,0-.08.13,1.21,1.21,0,0,0,0,.18l0,.13a4.49,4.49,0,0,0,0,.51c0,.67,0,1.31,0,1.91,0,1.22.08,2.31.13,3.22s.1,1.66.14,2.17a3.26,3.26,0,0,0,.11.79,22.14,22.14,0,0,0,0-3c0-.95,0-2-.05-3.21,0-.61,0-1.24,0-1.89,0-.16,0-.33,0-.48l0-.12a.13.13,0,0,0,0-.06s.1-.11.13-.18l.59-.85c1.61-2.29,3-4.37,4.07-5.89.51-.76.92-1.38,1.19-1.81A2.65,2.65,0,0,0,561.85,305Z" style="fill:#fff"></path><path d="M552.75,353.07a6.17,6.17,0,0,0,1,.13c.64.06,1.58.12,2.74.18,2.31.12,5.52.19,9.06.11s6.74-.29,9.05-.51c1.15-.11,2.09-.22,2.73-.31a5.07,5.07,0,0,0,1-.17,4.88,4.88,0,0,0-1,0l-2.73.18c-2.31.14-5.51.31-9,.39s-6.73.05-9,0l-2.75,0A4.55,4.55,0,0,0,552.75,353.07Z" style="fill:#fff"></path><path d="M532.28,324s.19.15.56.35a16.87,16.87,0,0,0,1.65.75,33.82,33.82,0,0,0,5.71,1.73,43.05,43.05,0,0,0,5.91.87,12.42,12.42,0,0,0,2.47.05,20.46,20.46,0,0,0-2.44-.34c-1.51-.19-3.59-.49-5.85-1a47.53,47.53,0,0,1-5.7-1.6C533.17,324.33,532.31,323.94,532.28,324Z" style="fill:#fff"></path><path d="M545.34,332.66a9.24,9.24,0,1,0,8.55-9.9A9.24,9.24,0,0,0,545.34,332.66Z" style="fill:#263238"></path><path d="M547.84,332.47a6.74,6.74,0,1,0,6.23-7.21A6.74,6.74,0,0,0,547.84,332.47Z" style="fill:#fff"></path><path d="M551.09,333.7a9.08,9.08,0,0,0,.06-1.11c0-.7,0-1.69,0-2.91l-.07.14,3.46-2h-.19l3.5,2c.09.16-.13-.21-.11-.17h0v1l0,1q0,1,0,2l.1-.17-3.43,2.09h.16c-1.07-.58-1.95-1-2.57-1.35a5.91,5.91,0,0,0-1-.47,5.14,5.14,0,0,0,.87.58c.59.36,1.47.87,2.56,1.51l.07,0,.08-.05,3.47-2,.09-.05v-.12c0-.62,0-1.27,0-1.94,0-.34,0-.68,0-1v-1h0s-.19-.33-.1-.18l-3.51-1.94-.1-.06-.09.06L551,329.55l-.08.05v.09c0,1.26.08,2.27.11,3A5,5,0,0,0,551.09,333.7Z" style="fill:#FF725E"></path><g style="opacity:0.2"><path d="M588.51,311.12s-28.1-12.78-56.09-2.4C532.42,308.72,545.51,319.44,588.51,311.12Z"></path></g><path d="M532.42,308.72s-16.89-13.59-19.86-12.57-4.11,2.58-2.74,6.25,22.6,24,22.6,24Z" style="fill:#FF725E"></path><path d="M533.08,334.69a3.67,3.67,0,0,1-.18-1c-.08-.65-.17-1.6-.26-2.78-.19-2.35-.36-5.6-.46-9.19s-.1-6.85-.07-9.2c0-1.18,0-2.13.07-2.79a3.49,3.49,0,0,1,.11-1,4.35,4.35,0,0,1,.1,1c0,.77.05,1.7.09,2.78.06,2.49.14,5.67.23,9.19s.22,6.71.3,9.19c0,1.08.07,2,.1,2.78A4,4,0,0,1,533.08,334.69Z" style="fill:#263238"></path><g style="opacity:0.2"><path d="M578.38,315.76c.84,8.81,3.79,18.49,7,26.75.57-2.53,1-5,1.37-7.19-.36-2.52-2-5.93-3-8.26q-2.52-5.64-5-11.29"></path></g><path d="M588.51,311.12S604,342.67,598,346.06c-8.46,4.81-20.16-32.91-20.16-32.91l5.48-1.09Z" style="fill:#FF725E"></path><path d="M590,341.14a5.43,5.43,0,0,1-.72-1c-.43-.63-1-1.57-1.71-2.76a85.2,85.2,0,0,1-4.68-9.63c-1.6-3.87-2.83-7.45-3.63-10.07-.41-1.31-.71-2.38-.89-3.12a5.91,5.91,0,0,1-.25-1.17,5,5,0,0,1,.44,1.11c.28.83.63,1.85,1.05,3.07.88,2.58,2.17,6.13,3.76,10s3.23,7.25,4.52,9.66c.64,1.2,1.18,2.17,1.56,2.83A5.34,5.34,0,0,1,590,341.14Z" style="fill:#263238"></path></g><g id="freepik--Server--inject-19"><rect x="60.02" y="375.77" width="109.36" height="76.13" style="fill:#263238"></rect><rect x="44.99" y="398.36" width="112.5" height="27.91" style="fill:#455a64"></rect><rect x="49.98" y="404.1" width="22.15" height="3.41" style="fill:#263238"></rect><rect x="49.98" y="409.97" width="22.15" height="3.41" style="fill:#263238"></rect><rect x="49.98" y="416.03" width="22.15" height="3.41" style="fill:#263238"></rect><path d="M80.89,406.16a1.27,1.27,0,1,1-1.27-1.27A1.26,1.26,0,0,1,80.89,406.16Z" style="fill:#263238"></path><path d="M86.5,406.16a1.27,1.27,0,1,1-1.27-1.27A1.27,1.27,0,0,1,86.5,406.16Z" style="fill:#263238"></path><path d="M92.11,406.16a1.27,1.27,0,1,1-1.27-1.27A1.27,1.27,0,0,1,92.11,406.16Z" style="fill:#263238"></path><path d="M97.72,406.16a1.28,1.28,0,1,1-1.27-1.27A1.27,1.27,0,0,1,97.72,406.16Z" style="fill:#263238"></path><path d="M141.17,406.16a1.27,1.27,0,1,1-1.27-1.27A1.27,1.27,0,0,1,141.17,406.16Z" style="fill:#263238"></path><path d="M146.89,406.16a1.28,1.28,0,1,1-1.27-1.27A1.27,1.27,0,0,1,146.89,406.16Z" style="fill:#263238"></path><path d="M103.32,406.16a1.27,1.27,0,1,1-1.27-1.27A1.27,1.27,0,0,1,103.32,406.16Z" style="fill:#263238"></path><path d="M130.86,406.16a1.27,1.27,0,1,1-1.27-1.27A1.27,1.27,0,0,1,130.86,406.16Z" style="fill:#263238"></path><path d="M108.93,406.16a1.27,1.27,0,1,1-1.27-1.27A1.27,1.27,0,0,1,108.93,406.16Z" style="fill:#f5f5f5"></path><path d="M114.54,406.16a1.27,1.27,0,1,1-1.27-1.27A1.27,1.27,0,0,1,114.54,406.16Z" style="fill:#f5f5f5"></path><path d="M125.91,406.16a1.27,1.27,0,1,1-1.27-1.27A1.26,1.26,0,0,1,125.91,406.16Z" style="fill:#f5f5f5"></path><path d="M151.54,406.16a1.27,1.27,0,1,1-1.27-1.27A1.27,1.27,0,0,1,151.54,406.16Z" style="fill:#f5f5f5"></path><path d="M120.15,406.16a1.28,1.28,0,1,1-1.28-1.27A1.27,1.27,0,0,1,120.15,406.16Z" style="fill:#FF725E"></path><path d="M136.2,406.16a1.27,1.27,0,1,1-1.27-1.27A1.27,1.27,0,0,1,136.2,406.16Z" style="fill:#FF725E"></path><path d="M149,412.29a1.27,1.27,0,1,1,1.27,1.27A1.27,1.27,0,0,1,149,412.29Z" style="fill:#263238"></path><path d="M143.39,412.29a1.27,1.27,0,1,1,1.27,1.27A1.27,1.27,0,0,1,143.39,412.29Z" style="fill:#263238"></path><path d="M137.78,412.29a1.27,1.27,0,1,1,1.27,1.27A1.27,1.27,0,0,1,137.78,412.29Z" style="fill:#263238"></path><path d="M132.17,412.29a1.28,1.28,0,1,1,1.28,1.27A1.27,1.27,0,0,1,132.17,412.29Z" style="fill:#263238"></path><path d="M88.72,412.29A1.27,1.27,0,1,1,90,413.56,1.27,1.27,0,0,1,88.72,412.29Z" style="fill:#263238"></path><path d="M83,412.29a1.27,1.27,0,1,1,1.27,1.27A1.27,1.27,0,0,1,83,412.29Z" style="fill:#263238"></path><path d="M126.57,412.29a1.27,1.27,0,1,1,1.27,1.27A1.27,1.27,0,0,1,126.57,412.29Z" style="fill:#263238"></path><path d="M99,412.29a1.27,1.27,0,1,1,1.27,1.27A1.27,1.27,0,0,1,99,412.29Z" style="fill:#263238"></path><path d="M121,412.29a1.27,1.27,0,1,1,1.27,1.27A1.27,1.27,0,0,1,121,412.29Z" style="fill:#f5f5f5"></path><path d="M115.35,412.29a1.27,1.27,0,1,1,1.27,1.27A1.27,1.27,0,0,1,115.35,412.29Z" style="fill:#f5f5f5"></path><path d="M104,412.29a1.27,1.27,0,1,1,1.27,1.27A1.27,1.27,0,0,1,104,412.29Z" style="fill:#f5f5f5"></path><path d="M78.35,412.29a1.27,1.27,0,1,1,1.27,1.27A1.27,1.27,0,0,1,78.35,412.29Z" style="fill:#f5f5f5"></path><path d="M109.75,412.29a1.27,1.27,0,1,1,1.27,1.27A1.27,1.27,0,0,1,109.75,412.29Z" style="fill:#FF725E"></path><path d="M93.69,412.29A1.27,1.27,0,1,1,95,413.56,1.27,1.27,0,0,1,93.69,412.29Z" style="fill:#FF725E"></path><path d="M80.89,417.74a1.27,1.27,0,1,1-1.27-1.27A1.27,1.27,0,0,1,80.89,417.74Z" style="fill:#263238"></path><circle cx="85.23" cy="417.74" r="1.27" style="fill:#263238"></circle><circle cx="90.84" cy="417.74" r="1.27" style="fill:#263238"></circle><circle cx="96.45" cy="417.74" r="1.27" style="fill:#263238"></circle><circle cx="139.9" cy="417.74" r="1.27" style="fill:#263238"></circle><circle cx="145.62" cy="417.74" r="1.27" style="fill:#263238"></circle><path d="M103.32,417.74a1.27,1.27,0,1,1-1.27-1.27A1.27,1.27,0,0,1,103.32,417.74Z" style="fill:#263238"></path><path d="M130.86,417.74a1.27,1.27,0,1,1-1.27-1.27A1.27,1.27,0,0,1,130.86,417.74Z" style="fill:#263238"></path><circle cx="107.66" cy="417.74" r="1.27" style="fill:#f5f5f5"></circle><path d="M114.54,417.74a1.27,1.27,0,1,1-1.27-1.27A1.27,1.27,0,0,1,114.54,417.74Z" style="fill:#f5f5f5"></path><path d="M125.91,417.74a1.27,1.27,0,1,1-1.27-1.27A1.27,1.27,0,0,1,125.91,417.74Z" style="fill:#f5f5f5"></path><path d="M151.54,417.74a1.27,1.27,0,1,1-1.27-1.27A1.27,1.27,0,0,1,151.54,417.74Z" style="fill:#f5f5f5"></path><path d="M120.15,417.74a1.28,1.28,0,1,1-1.28-1.27A1.27,1.27,0,0,1,120.15,417.74Z" style="fill:#FF725E"></path><circle cx="134.93" cy="417.74" r="1.27" style="fill:#FF725E"></circle><rect x="44.99" y="432.8" width="112.5" height="27.91" style="fill:#455a64"></rect><path d="M80.62,440.33a1.28,1.28,0,1,1-1.28-1.27A1.27,1.27,0,0,1,80.62,440.33Z" style="fill:#263238"></path><path d="M86.22,440.33A1.27,1.27,0,1,1,85,439.06,1.27,1.27,0,0,1,86.22,440.33Z" style="fill:#263238"></path><path d="M91.83,440.33a1.27,1.27,0,1,1-1.27-1.27A1.27,1.27,0,0,1,91.83,440.33Z" style="fill:#263238"></path><path d="M97.44,440.33a1.27,1.27,0,1,1-1.27-1.27A1.27,1.27,0,0,1,97.44,440.33Z" style="fill:#263238"></path><path d="M140.89,440.33a1.27,1.27,0,1,1-1.27-1.27A1.27,1.27,0,0,1,140.89,440.33Z" style="fill:#263238"></path><path d="M146.61,440.33a1.27,1.27,0,1,1-1.27-1.27A1.27,1.27,0,0,1,146.61,440.33Z" style="fill:#263238"></path><path d="M103,440.33a1.27,1.27,0,1,1-1.27-1.27A1.27,1.27,0,0,1,103,440.33Z" style="fill:#263238"></path><path d="M130.58,440.33a1.27,1.27,0,1,1-1.27-1.27A1.27,1.27,0,0,1,130.58,440.33Z" style="fill:#263238"></path><path d="M108.65,440.33a1.27,1.27,0,1,1-1.27-1.27A1.27,1.27,0,0,1,108.65,440.33Z" style="fill:#f5f5f5"></path><path d="M114.26,440.33a1.27,1.27,0,1,1-1.27-1.27A1.27,1.27,0,0,1,114.26,440.33Z" style="fill:#f5f5f5"></path><path d="M125.64,440.33a1.28,1.28,0,1,1-1.27-1.27A1.27,1.27,0,0,1,125.64,440.33Z" style="fill:#f5f5f5"></path><path d="M151.26,440.33a1.27,1.27,0,1,1-1.27-1.27A1.27,1.27,0,0,1,151.26,440.33Z" style="fill:#f5f5f5"></path><path d="M119.87,440.33a1.27,1.27,0,1,1-1.27-1.27A1.27,1.27,0,0,1,119.87,440.33Z" style="fill:#FF725E"></path><path d="M135.92,440.33a1.27,1.27,0,1,1-1.27-1.27A1.27,1.27,0,0,1,135.92,440.33Z" style="fill:#FF725E"></path><path d="M148.72,446.45a1.27,1.27,0,1,1,1.27,1.27A1.27,1.27,0,0,1,148.72,446.45Z" style="fill:#263238"></path><circle cx="144.38" cy="446.45" r="1.27" style="fill:#263238"></circle><path d="M137.5,446.45a1.28,1.28,0,1,1,1.27,1.27A1.27,1.27,0,0,1,137.5,446.45Z" style="fill:#263238"></path><path d="M131.9,446.45a1.27,1.27,0,1,1,1.27,1.27A1.27,1.27,0,0,1,131.9,446.45Z" style="fill:#263238"></path><path d="M88.44,446.45a1.28,1.28,0,1,1,1.28,1.27A1.27,1.27,0,0,1,88.44,446.45Z" style="fill:#263238"></path><path d="M82.73,446.45A1.27,1.27,0,1,1,84,447.72,1.27,1.27,0,0,1,82.73,446.45Z" style="fill:#263238"></path><circle cx="127.56" cy="446.45" r="1.27" style="fill:#263238"></circle><circle cx="100.02" cy="446.45" r="1.27" style="fill:#263238"></circle><path d="M120.68,446.45a1.27,1.27,0,1,1,1.27,1.27A1.27,1.27,0,0,1,120.68,446.45Z" style="fill:#f5f5f5"></path><path d="M115.07,446.45a1.28,1.28,0,1,1,1.28,1.27A1.27,1.27,0,0,1,115.07,446.45Z" style="fill:#f5f5f5"></path><circle cx="104.97" cy="446.45" r="1.27" style="fill:#f5f5f5"></circle><path d="M78.07,446.45a1.28,1.28,0,1,1,1.27,1.27A1.27,1.27,0,0,1,78.07,446.45Z" style="fill:#f5f5f5"></path><path d="M109.47,446.45a1.27,1.27,0,1,1,1.27,1.27A1.27,1.27,0,0,1,109.47,446.45Z" style="fill:#FF725E"></path><path d="M93.41,446.45a1.27,1.27,0,1,1,1.27,1.27A1.27,1.27,0,0,1,93.41,446.45Z" style="fill:#FF725E"></path><path d="M80.62,451.9a1.28,1.28,0,1,1-1.28-1.27A1.27,1.27,0,0,1,80.62,451.9Z" style="fill:#263238"></path><path d="M86.22,451.9A1.27,1.27,0,1,1,85,450.63,1.27,1.27,0,0,1,86.22,451.9Z" style="fill:#263238"></path><path d="M91.83,451.9a1.27,1.27,0,1,1-1.27-1.27A1.27,1.27,0,0,1,91.83,451.9Z" style="fill:#263238"></path><path d="M97.44,451.9a1.27,1.27,0,1,1-1.27-1.27A1.27,1.27,0,0,1,97.44,451.9Z" style="fill:#263238"></path><path d="M140.89,451.9a1.27,1.27,0,1,1-1.27-1.27A1.27,1.27,0,0,1,140.89,451.9Z" style="fill:#263238"></path><path d="M146.61,451.9a1.27,1.27,0,1,1-1.27-1.27A1.27,1.27,0,0,1,146.61,451.9Z" style="fill:#263238"></path><path d="M103,451.9a1.27,1.27,0,1,1-1.27-1.27A1.27,1.27,0,0,1,103,451.9Z" style="fill:#263238"></path><path d="M130.58,451.9a1.27,1.27,0,1,1-1.27-1.27A1.27,1.27,0,0,1,130.58,451.9Z" style="fill:#263238"></path><path d="M108.65,451.9a1.27,1.27,0,1,1-1.27-1.27A1.27,1.27,0,0,1,108.65,451.9Z" style="fill:#f5f5f5"></path><path d="M114.26,451.9a1.27,1.27,0,1,1-1.27-1.27A1.27,1.27,0,0,1,114.26,451.9Z" style="fill:#f5f5f5"></path><path d="M125.64,451.9a1.28,1.28,0,1,1-1.27-1.27A1.27,1.27,0,0,1,125.64,451.9Z" style="fill:#f5f5f5"></path><path d="M151.26,451.9a1.27,1.27,0,1,1-1.27-1.27A1.27,1.27,0,0,1,151.26,451.9Z" style="fill:#f5f5f5"></path><path d="M119.87,451.9a1.27,1.27,0,1,1-1.27-1.27A1.27,1.27,0,0,1,119.87,451.9Z" style="fill:#FF725E"></path><path d="M135.92,451.9a1.27,1.27,0,1,1-1.27-1.27A1.27,1.27,0,0,1,135.92,451.9Z" style="fill:#FF725E"></path><rect x="49.98" y="438.55" width="22.15" height="3.41" style="fill:#263238"></rect><rect x="49.98" y="444.41" width="22.15" height="3.41" style="fill:#263238"></rect><rect x="49.98" y="450.47" width="22.15" height="3.41" style="fill:#263238"></rect><polygon points="181.27 426.22 157.49 426.27 157.49 398.36 181.27 398.31 181.27 426.22" style="fill:#263238"></polygon><polygon points="181.27 460.45 157.49 460.49 157.49 432.58 181.27 432.54 181.27 460.45" style="fill:#263238"></polygon><rect x="50.8" y="381.84" width="22.15" height="3.41" style="fill:#263238"></rect><polygon points="181.27 392.28 157.49 392.33 157.49 364.21 181.27 364.16 181.27 392.28" style="fill:#263238"></polygon><rect x="45.8" y="364.16" width="112.5" height="27.91" style="fill:#455a64"></rect><rect x="50.8" y="369.91" width="22.15" height="3.41" style="fill:#263238"></rect><rect x="50.8" y="375.77" width="22.15" height="3.41" style="fill:#263238"></rect><path d="M81.71,372a1.27,1.27,0,1,1-1.27-1.27A1.27,1.27,0,0,1,81.71,372Z" style="fill:#263238"></path><path d="M87.32,372a1.28,1.28,0,1,1-1.27-1.27A1.27,1.27,0,0,1,87.32,372Z" style="fill:#263238"></path><path d="M92.92,372a1.27,1.27,0,1,1-1.27-1.27A1.27,1.27,0,0,1,92.92,372Z" style="fill:#263238"></path><path d="M98.53,372a1.27,1.27,0,1,1-1.27-1.27A1.27,1.27,0,0,1,98.53,372Z" style="fill:#263238"></path><path d="M142,372a1.27,1.27,0,1,1-1.27-1.27A1.27,1.27,0,0,1,142,372Z" style="fill:#263238"></path><path d="M147.7,372a1.27,1.27,0,1,1-1.27-1.27A1.27,1.27,0,0,1,147.7,372Z" style="fill:#263238"></path><path d="M104.14,372a1.27,1.27,0,1,1-1.27-1.27A1.27,1.27,0,0,1,104.14,372Z" style="fill:#263238"></path><path d="M131.68,372a1.28,1.28,0,1,1-1.28-1.27A1.27,1.27,0,0,1,131.68,372Z" style="fill:#263238"></path><path d="M109.75,372a1.28,1.28,0,1,1-1.28-1.27A1.27,1.27,0,0,1,109.75,372Z" style="fill:#f5f5f5"></path><path d="M115.35,372a1.27,1.27,0,1,1-1.27-1.27A1.27,1.27,0,0,1,115.35,372Z" style="fill:#f5f5f5"></path><path d="M126.73,372a1.27,1.27,0,1,1-1.27-1.27A1.27,1.27,0,0,1,126.73,372Z" style="fill:#f5f5f5"></path><path d="M152.35,372a1.27,1.27,0,1,1-1.27-1.27A1.27,1.27,0,0,1,152.35,372Z" style="fill:#f5f5f5"></path><path d="M121,372a1.27,1.27,0,1,1-1.27-1.27A1.27,1.27,0,0,1,121,372Z" style="fill:#FF725E"></path><path d="M137,372a1.27,1.27,0,1,1-1.27-1.27A1.27,1.27,0,0,1,137,372Z" style="fill:#FF725E"></path><path d="M149.81,378.09a1.27,1.27,0,1,1,1.27,1.27A1.27,1.27,0,0,1,149.81,378.09Z" style="fill:#263238"></path><circle cx="145.47" cy="378.09" r="1.27" style="fill:#263238"></circle><path d="M138.6,378.09a1.27,1.27,0,1,1,1.27,1.27A1.27,1.27,0,0,1,138.6,378.09Z" style="fill:#263238"></path><path d="M133,378.09a1.27,1.27,0,1,1,1.27,1.27A1.27,1.27,0,0,1,133,378.09Z" style="fill:#263238"></path><path d="M89.54,378.09a1.27,1.27,0,1,1,1.27,1.27A1.27,1.27,0,0,1,89.54,378.09Z" style="fill:#263238"></path><path d="M83.82,378.09a1.27,1.27,0,1,1,1.27,1.27A1.27,1.27,0,0,1,83.82,378.09Z" style="fill:#263238"></path><path d="M127.38,378.09a1.27,1.27,0,1,1,1.27,1.27A1.27,1.27,0,0,1,127.38,378.09Z" style="fill:#263238"></path><circle cx="101.12" cy="378.09" r="1.27" style="fill:#263238"></circle><path d="M121.78,378.09a1.27,1.27,0,1,1,1.27,1.27A1.27,1.27,0,0,1,121.78,378.09Z" style="fill:#f5f5f5"></path><circle cx="117.44" cy="378.09" r="1.27" style="fill:#f5f5f5"></circle><path d="M104.79,378.09a1.27,1.27,0,1,1,1.27,1.27A1.27,1.27,0,0,1,104.79,378.09Z" style="fill:#f5f5f5"></path><circle cx="80.44" cy="378.09" r="1.27" style="fill:#f5f5f5"></circle><path d="M110.56,378.09a1.27,1.27,0,1,1,1.27,1.27A1.27,1.27,0,0,1,110.56,378.09Z" style="fill:#FF725E"></path><path d="M94.51,378.09a1.27,1.27,0,1,1,1.27,1.27A1.27,1.27,0,0,1,94.51,378.09Z" style="fill:#FF725E"></path><path d="M81.71,383.54a1.27,1.27,0,1,1-1.27-1.27A1.27,1.27,0,0,1,81.71,383.54Z" style="fill:#263238"></path><path d="M87.32,383.54a1.28,1.28,0,1,1-1.27-1.27A1.27,1.27,0,0,1,87.32,383.54Z" style="fill:#263238"></path><path d="M92.92,383.54a1.27,1.27,0,1,1-1.27-1.27A1.27,1.27,0,0,1,92.92,383.54Z" style="fill:#263238"></path><path d="M98.53,383.54a1.27,1.27,0,1,1-1.27-1.27A1.27,1.27,0,0,1,98.53,383.54Z" style="fill:#263238"></path><path d="M142,383.54a1.27,1.27,0,1,1-1.27-1.27A1.27,1.27,0,0,1,142,383.54Z" style="fill:#263238"></path><path d="M147.7,383.54a1.27,1.27,0,1,1-1.27-1.27A1.27,1.27,0,0,1,147.7,383.54Z" style="fill:#263238"></path><path d="M104.14,383.54a1.27,1.27,0,1,1-1.27-1.27A1.27,1.27,0,0,1,104.14,383.54Z" style="fill:#263238"></path><path d="M131.68,383.54a1.28,1.28,0,1,1-1.28-1.27A1.27,1.27,0,0,1,131.68,383.54Z" style="fill:#263238"></path><path d="M109.75,383.54a1.28,1.28,0,1,1-1.28-1.27A1.27,1.27,0,0,1,109.75,383.54Z" style="fill:#f5f5f5"></path><path d="M115.35,383.54a1.27,1.27,0,1,1-1.27-1.27A1.27,1.27,0,0,1,115.35,383.54Z" style="fill:#f5f5f5"></path><path d="M126.73,383.54a1.27,1.27,0,1,1-1.27-1.27A1.27,1.27,0,0,1,126.73,383.54Z" style="fill:#f5f5f5"></path><path d="M152.35,383.54a1.27,1.27,0,1,1-1.27-1.27A1.27,1.27,0,0,1,152.35,383.54Z" style="fill:#f5f5f5"></path><path d="M121,383.54a1.27,1.27,0,1,1-1.27-1.27A1.27,1.27,0,0,1,121,383.54Z" style="fill:#FF725E"></path><path d="M137,383.54a1.27,1.27,0,1,1-1.27-1.27A1.27,1.27,0,0,1,137,383.54Z" style="fill:#FF725E"></path><path d="M198.71,245.34l-.47,0-1.4,0-5.37.06-19.79.11-65.57.15.22-.26v3c0,31.73,0,60.46-.06,81.28,0,10.39-.06,18.8-.07,24.63,0,2.9,0,5.15,0,6.7,0,.75,0,1.33,0,1.74s0,.6,0,.6,0-.2,0-.6,0-1,0-1.74c0-1.55,0-3.8,0-6.7,0-5.83,0-14.24-.07-24.63,0-20.82,0-49.55-.06-81.28v-3.23h65.78l19.79.06,5.37,0,1.4,0Z" style="fill:#263238"></path><path d="M201.81,246.36a3.7,3.7,0,1,1-3.7-3.69A3.7,3.7,0,0,1,201.81,246.36Z" style="fill:#263238"></path></g><g id="freepik--Folder--inject-19"><path d="M137.93,278.12l19.18-46.27c.88-2.11-.22-3.82-2.45-3.82H150.8a2.47,2.47,0,0,1-2.75-2.23l-.13-1.7a2.47,2.47,0,0,0-2.75-2.22H126.84a6.45,6.45,0,0,0-4.25,1.88l-1.49,1.44a6.37,6.37,0,0,1-4.24,1.88H93.51a6.51,6.51,0,0,0-5.57,3.82l-19,47.22Z" style="fill:#FF725E"></path><g style="opacity:0.30000000000000004"><path d="M137.93,278.12l19.18-46.27c.88-2.11-.22-3.82-2.45-3.82H150.8a2.47,2.47,0,0,1-2.75-2.23l-.13-1.7a2.47,2.47,0,0,0-2.75-2.22H126.84a6.45,6.45,0,0,0-4.25,1.88l-1.49,1.44a6.37,6.37,0,0,1-4.24,1.88H93.51a6.51,6.51,0,0,0-5.57,3.82l-19,47.22Z"></path></g><path d="M141.1,262.4l7.24-28c.47-1.84-.73-3.69-2.41-3.69H89.24a2.59,2.59,0,0,0-2.42,2.08L76.29,274.92c-.46,1.85.28,3,2,2.94l57,0a2.59,2.59,0,0,0,2.38-2.07Z" style="fill:#e0e0e0"></path><path d="M137.19,276.85l3.08-44a2.7,2.7,0,0,0-2.7-2.88H78.83v46.92Z" style="fill:#ebebeb"></path><path d="M137.84,277.86l-7-45.4a3.24,3.24,0,0,0-3.19-2.53H68.24a3.21,3.21,0,0,0-3,4.47L78.07,276Z" style="fill:#fafafa"></path><path d="M137.93,278.1l-14.41-42.52a4.27,4.27,0,0,0-4-3H58.26a3,3,0,0,0-2.74,4l13.4,41.53Z" style="fill:#FF725E"></path></g><g id="freepik--Floor--inject-19"><path d="M707,460.49c0,.15-148.66.26-332,.26s-332-.11-332-.26,148.63-.26,332-.26S707,460.35,707,460.49Z" style="fill:#263238"></path></g></svg>