<svg xmlns="http://www.w3.org/2000/svg" xmlns:xlink="http://www.w3.org/1999/xlink" viewBox="0 0 500 500"><defs><clipPath id="freepik--clip-path--inject-4"><path d="M347.67,388.48l.12-44.21c.48-1.78.87-8.34,1.89-12.91,1.74-7.66-5.1-16.9-5.58-17.2-1.92-1.19-6-1.17-6-1.17s-4-4.57-7.57-6a17.87,17.87,0,0,0-7.66-1,36.61,36.61,0,0,0-9.1-5.51,7.49,7.49,0,0,0-7.66,1.44l-4.47,7a5.21,5.21,0,0,0,.61,6.52c2.14,2.11,4.88,1.12,6.26,1.12,1.91,0,2.63-2.16,2.63-2.16s.47,11.26,0,12.69h0c-.49,1.43-4.07,4.78-4.07,4.78l-12-15.83a114.51,114.51,0,0,1-10.77-17.78,8.5,8.5,0,0,0-1.35-2.09c-2.1-2.38-6.59-3.07-7.76,1.32a8.7,8.7,0,0,0,.19,4.24c5,14.78,11.38,25.95,17.19,37.59,3.45,6.91,2.17,6.83,3.89,9.95-.2.14-.1.4-.32.53-.84,3.36-1.43,6.73-2.28,10.09a46,46,0,0,0-3.83-12.18,27.5,27.5,0,0,0,.53-7.12,9.38,9.38,0,0,0-3-6.31,6.17,6.17,0,0,0-3.49-1.36,3.64,3.64,0,0,0-3.84,3.12,37.51,37.51,0,0,1-1,5.41,54.48,54.48,0,0,1-2.76,6.8c0,4.46,2.76,3.73,4.77,21.67,1.56,14,19.56,23.21,29.36,33.3l10.44,32.86A202.3,202.3,0,0,0,356,417.79Z" style="fill:#fff"></path></clipPath><clipPath id="freepik--clip-path-2--inject-4"><path d="M237.2,336.42c-.43-2-3.24-1.69-3.24-1.69-9.45.56-10.72,15.37-10.72,15.37l-3.39,10.14-1-15.26.1-19.67s2.86-18.82,1.59-21.77a4.31,4.31,0,0,0-3.91-2.86c-5.5-1.38-5.82,6.55-5.82,6.55l-4.64,16.18-1.91,17.45-1.58-.84s-.75-18.52-.43-18.83,2.22-12.79,2.22-12.79,1.05-2.33,2.33-5.29a6.43,6.43,0,0,0,0-5.29c-2.23-4.54-6.87-2.42-7.83,0a70.39,70.39,0,0,1-3.8,7.19l-5.3,14.49c.2,3.28-1.68,19.46-1.68,19.46l-1.91-.87-3.07-9.5,2.34-9.73s5.07-5.6,4.22-8.88-5.18-2.32-5.18-2.32L175.88,318h-2.55l-6,7.61a48.27,48.27,0,0,0-1.38,25.29l1.38,6.43v41.56s-4.12,6.66-4.12,7.29c0,.29-1.7,5.54-4.07,12.09,10.37,6.1,19.3,10.82,25.63,13.31,3,1.18,6,2.3,9,3.37,3.8-10.67,8.24-22.08,10.69-24.75,4.86-5.28,14.38-15.44,14.38-15.44s10.81-17.37,12.08-23.14c1-4.74,3.58-13.35,4.46-16.3a5.77,5.77,0,0,0,.24-2.07c-.07-1.56-.22-4.59-.22-7.26C235.36,342.2,237.62,338.39,237.2,336.42Z" style="fill:#fff"></path></clipPath><clipPath id="freepik--clip-path-3--inject-4"><path d="M450,317.12a71.82,71.82,0,0,1-1,11.86c-2.9,17.31-12,29.93-22.76,29.93a13.68,13.68,0,0,1-2.86-.3c-11.75-2.49-20.86-20.11-20.86-41.49,0-23.08,10.62-31.25,23.72-31.25S450,294,450,317.12Z" style="fill:#fff;stroke:#263238;stroke-miterlimit:10"></path></clipPath></defs><g id="freepik--Keyboard--inject-4"><rect x="145.68" y="272.76" width="230.67" height="97.15" style="fill:#FB923B;stroke:#263238;stroke-linecap:round;stroke-linejoin:round"></rect><rect x="150.5" y="278.64" width="21.7" height="12.01" style="fill:#fff;stroke:#263238;stroke-miterlimit:10"></rect><rect x="336.83" y="337.2" width="34.18" height="12.01" style="fill:#fff;stroke:#263238;stroke-miterlimit:10"></rect><rect x="349.91" y="293.64" width="21.1" height="12.01" style="fill:#fff;stroke:#263238;stroke-miterlimit:10"></rect><rect x="150.5" y="322.39" width="21.7" height="12.01" style="fill:#fff;stroke:#263238;stroke-miterlimit:10"></rect><rect x="150.5" y="307.92" width="17.57" height="12.01" style="fill:#fff;stroke:#263238;stroke-miterlimit:10"></rect><rect x="150.5" y="293.28" width="12.01" height="12.01" style="fill:#fff;stroke:#263238;stroke-miterlimit:10"></rect><rect x="165.84" y="293.28" width="12.01" height="12.01" style="fill:#fff;stroke:#263238;stroke-miterlimit:10"></rect><rect x="181.17" y="293.28" width="12.01" height="12.01" style="fill:#fff;stroke:#263238;stroke-miterlimit:10"></rect><rect x="196.5" y="293.28" width="12.01" height="12.01" style="fill:#fff;stroke:#263238;stroke-miterlimit:10"></rect><rect x="211.84" y="293.28" width="12.01" height="12.01" style="fill:#fff;stroke:#263238;stroke-miterlimit:10"></rect><rect x="227.17" y="293.28" width="12.01" height="12.01" style="fill:#fff;stroke:#263238;stroke-miterlimit:10"></rect><rect x="242.5" y="293.28" width="12.01" height="12.01" style="fill:#fff;stroke:#263238;stroke-miterlimit:10"></rect><rect x="257.84" y="293.28" width="12.01" height="12.01" style="fill:#fff;stroke:#263238;stroke-miterlimit:10"></rect><rect x="273.17" y="293.28" width="12.01" height="12.01" style="fill:#fff;stroke:#263238;stroke-miterlimit:10"></rect><rect x="288.5" y="293.28" width="12.01" height="12.01" style="fill:#fff;stroke:#263238;stroke-miterlimit:10"></rect><rect x="303.84" y="293.28" width="12.01" height="12.01" style="fill:#fff;stroke:#263238;stroke-miterlimit:10"></rect><rect x="319.17" y="293.28" width="12.01" height="12.01" style="fill:#fff;stroke:#263238;stroke-miterlimit:10"></rect><rect x="334.51" y="293.28" width="12.01" height="12.01" style="fill:#fff;stroke:#263238;stroke-miterlimit:10"></rect><rect x="150.5" y="352.02" width="12.01" height="12.01" style="fill:#fff;stroke:#263238;stroke-miterlimit:10"></rect><rect x="165.84" y="352.02" width="12.01" height="12.01" style="fill:#fff;stroke:#263238;stroke-miterlimit:10"></rect><rect x="181.17" y="352.02" width="12.01" height="12.01" style="fill:#fff;stroke:#263238;stroke-miterlimit:10"></rect><rect x="196.5" y="352.02" width="14.66" height="12.01" style="fill:#fff;stroke:#263238;stroke-miterlimit:10"></rect><rect x="214.48" y="352.02" width="73.35" height="12.01" style="fill:#fff;stroke:#263238;stroke-miterlimit:10"></rect><rect x="312.49" y="352.02" width="12.01" height="12.01" style="fill:#fff;stroke:#263238;stroke-miterlimit:10"></rect><rect x="327.82" y="352.02" width="12.01" height="12.01" style="fill:#fff;stroke:#263238;stroke-miterlimit:10"></rect><rect x="343.18" y="352.02" width="12.01" height="12.01" style="fill:#fff;stroke:#263238;stroke-miterlimit:10"></rect><rect x="290.83" y="352.02" width="18.65" height="12.01" style="fill:#fff;stroke:#263238;stroke-miterlimit:10"></rect><rect x="359" y="352.02" width="12.01" height="12.01" style="fill:#fff;stroke:#263238;stroke-miterlimit:10"></rect><rect x="171.48" y="307.92" width="12.01" height="12.01" style="fill:#fff;stroke:#263238;stroke-miterlimit:10"></rect><rect x="186.81" y="307.92" width="12.01" height="12.01" style="fill:#fff;stroke:#263238;stroke-miterlimit:10"></rect><rect x="202.15" y="307.92" width="12.01" height="12.01" style="fill:#fff;stroke:#263238;stroke-miterlimit:10"></rect><rect x="217.48" y="307.92" width="12.01" height="12.01" style="fill:#fff;stroke:#263238;stroke-miterlimit:10"></rect><rect x="232.82" y="307.92" width="12.01" height="12.01" style="fill:#fff;stroke:#263238;stroke-miterlimit:10"></rect><rect x="248.15" y="307.92" width="12.01" height="12.01" style="fill:#fff;stroke:#263238;stroke-miterlimit:10"></rect><rect x="263.48" y="307.92" width="12.01" height="12.01" style="fill:#fff;stroke:#263238;stroke-miterlimit:10"></rect><rect x="278.82" y="307.92" width="12.01" height="12.01" style="fill:#fff;stroke:#263238;stroke-miterlimit:10"></rect><rect x="294.15" y="307.92" width="12.01" height="12.01" style="fill:#fff;stroke:#263238;stroke-miterlimit:10"></rect><rect x="309.48" y="307.92" width="12.01" height="12.01" style="fill:#fff;stroke:#263238;stroke-miterlimit:10"></rect><rect x="324.82" y="307.92" width="12.01" height="12.01" style="fill:#fff;stroke:#263238;stroke-miterlimit:10"></rect><rect x="340.15" y="307.92" width="12.01" height="12.01" style="fill:#fff;stroke:#263238;stroke-miterlimit:10"></rect><polygon points="371.01 307.92 371.01 334.58 359 334.58 359 319.94 355.48 319.94 355.48 307.92 371.01 307.92" style="fill:#fff;stroke:#263238;stroke-miterlimit:10"></polygon><rect x="175" y="322.56" width="12.01" height="12.01" style="fill:#fff;stroke:#263238;stroke-miterlimit:10"></rect><rect x="190.33" y="322.56" width="12.01" height="12.01" style="fill:#fff;stroke:#263238;stroke-miterlimit:10"></rect><rect x="205.66" y="322.56" width="12.01" height="12.01" style="fill:#fff;stroke:#263238;stroke-miterlimit:10"></rect><rect x="221" y="322.56" width="12.01" height="12.01" style="fill:#fff;stroke:#263238;stroke-miterlimit:10"></rect><rect x="236.33" y="322.56" width="12.01" height="12.01" style="fill:#fff;stroke:#263238;stroke-miterlimit:10"></rect><rect x="251.67" y="322.56" width="12.01" height="12.01" style="fill:#fff;stroke:#263238;stroke-miterlimit:10"></rect><rect x="267" y="322.56" width="12.01" height="12.01" style="fill:#fff;stroke:#263238;stroke-miterlimit:10"></rect><rect x="282.33" y="322.56" width="12.01" height="12.01" style="fill:#fff;stroke:#263238;stroke-miterlimit:10"></rect><rect x="297.67" y="322.56" width="12.01" height="12.01" style="fill:#fff;stroke:#263238;stroke-miterlimit:10"></rect><rect x="313" y="322.56" width="12.01" height="12.01" style="fill:#fff;stroke:#263238;stroke-miterlimit:10"></rect><rect x="328.33" y="322.56" width="12.01" height="12.01" style="fill:#fff;stroke:#263238;stroke-miterlimit:10"></rect><rect x="343.67" y="322.56" width="12.01" height="12.01" style="fill:#fff;stroke:#263238;stroke-miterlimit:10"></rect><rect x="168.48" y="337.2" width="12.01" height="12.01" style="fill:#fff;stroke:#263238;stroke-miterlimit:10"></rect><rect x="183.81" y="337.2" width="12.01" height="12.01" style="fill:#fff;stroke:#263238;stroke-miterlimit:10"></rect><rect x="199.15" y="337.2" width="12.01" height="12.01" style="fill:#fff;stroke:#263238;stroke-miterlimit:10"></rect><rect x="214.48" y="337.2" width="12.01" height="12.01" style="fill:#fff;stroke:#263238;stroke-miterlimit:10"></rect><rect x="229.81" y="337.2" width="12.01" height="12.01" style="fill:#fff;stroke:#263238;stroke-miterlimit:10"></rect><rect x="245.15" y="337.2" width="12.01" height="12.01" style="fill:#fff;stroke:#263238;stroke-miterlimit:10"></rect><rect x="260.48" y="337.2" width="12.01" height="12.01" style="fill:#fff;stroke:#263238;stroke-miterlimit:10"></rect><rect x="275.82" y="337.2" width="12.01" height="12.01" style="fill:#fff;stroke:#263238;stroke-miterlimit:10"></rect><rect x="291.15" y="337.2" width="12.01" height="12.01" style="fill:#fff;stroke:#263238;stroke-miterlimit:10"></rect><rect x="306.48" y="337.2" width="12.01" height="12.01" style="fill:#fff;stroke:#263238;stroke-miterlimit:10"></rect><rect x="321.82" y="337.2" width="12.01" height="12.01" style="fill:#fff;stroke:#263238;stroke-miterlimit:10"></rect><rect x="175" y="279.36" width="12.01" height="12.01" style="fill:#fff;stroke:#263238;stroke-miterlimit:10"></rect><rect x="190.33" y="279.36" width="12.01" height="12.01" style="fill:#fff;stroke:#263238;stroke-miterlimit:10"></rect><rect x="205.66" y="279.36" width="12.01" height="12.01" style="fill:#fff;stroke:#263238;stroke-miterlimit:10"></rect><rect x="221" y="279.36" width="12.01" height="12.01" style="fill:#fff;stroke:#263238;stroke-miterlimit:10"></rect><rect x="236.33" y="279.36" width="12.01" height="12.01" style="fill:#fff;stroke:#263238;stroke-miterlimit:10"></rect><rect x="251.67" y="279.36" width="12.01" height="12.01" style="fill:#fff;stroke:#263238;stroke-miterlimit:10"></rect><rect x="267" y="279.36" width="12.01" height="12.01" style="fill:#fff;stroke:#263238;stroke-miterlimit:10"></rect><rect x="282.33" y="279.36" width="12.01" height="12.01" style="fill:#fff;stroke:#263238;stroke-miterlimit:10"></rect><rect x="297.67" y="279.36" width="12.01" height="12.01" style="fill:#fff;stroke:#263238;stroke-miterlimit:10"></rect><rect x="313" y="279.36" width="12.01" height="12.01" style="fill:#fff;stroke:#263238;stroke-miterlimit:10"></rect><rect x="328.33" y="279.36" width="12.01" height="12.01" style="fill:#fff;stroke:#263238;stroke-miterlimit:10"></rect><rect x="343.67" y="279.36" width="12.01" height="12.01" style="fill:#fff;stroke:#263238;stroke-miterlimit:10"></rect><rect x="359" y="279.36" width="12.01" height="12.01" style="fill:#fff;stroke:#263238;stroke-miterlimit:10"></rect><rect x="150.5" y="337.2" width="14.55" height="12.01" style="fill:#fff;stroke:#263238;stroke-miterlimit:10"></rect><polygon points="145.68 273.38 150.5 271.78 373.22 271.78 376.39 273.36 145.68 273.38" style="fill:#263238"></polygon></g><g id="freepik--Hands--inject-4"><path d="M310.33,440l-4.69-28.25a23.07,23.07,0,0,0-6.35-11.06c-9.33-9-21.66-18.24-22.19-30-.81-18-3.62-17.49-3.32-21.94a54.06,54.06,0,0,0,3.21-6.6,38.47,38.47,0,0,0,1.36-5.34,3.64,3.64,0,0,1,4-2.85,6.19,6.19,0,0,1,3.39,1.59,9.39,9.39,0,0,1,2.54,6.5,27.79,27.79,0,0,1-1,7.06,46.16,46.16,0,0,1,3,12.41c1.07-3.3,1.88-6.63,2.95-9.92.22-.12.14-.38.35-.5-1.51-3.24-.23-3.06-3.22-10.19-5-12-10.64-23.57-14.65-38.65a8.57,8.57,0,0,1,.09-4.24c1.45-4.31,5.89-3.32,7.83-.81a8.28,8.28,0,0,1,1.2,2.18,116.46,116.46,0,0,0,9.57,18.45l10.89,16.6s3.79-3.11,4.37-4.5h0c.57-1.4.85-12.67.85-12.67s-.86,2.11-2.77,2c-1.38-.1-4.18.7-6.17-1.54a5.21,5.21,0,0,1-.18-6.54l4.93-6.66a7.48,7.48,0,0,1,7.74-.93,36.82,36.82,0,0,1,8.71,6.1,17.81,17.81,0,0,1,7.58,1.46c3.49,1.68,7.15,6.5,7.15,6.5s4.07.25,5.9,1.58c.46.33,6.67,10,4.43,17.53-1.33,4.49-2.15,11-2.75,12.76l-3.05,44.09,6.15,29-13.15,7.33A94,94,0,0,1,320,436.68Z" style="opacity:0.2"></path><path d="M347.67,388.48l.12-44.21c.48-1.78.87-8.34,1.89-12.91,1.74-7.66-5.1-16.9-5.58-17.2-1.92-1.19-6-1.17-6-1.17s-4-4.57-7.57-6a17.87,17.87,0,0,0-7.66-1,36.61,36.61,0,0,0-9.1-5.51,7.49,7.49,0,0,0-7.66,1.44l-4.47,7a5.21,5.21,0,0,0,.61,6.52c2.14,2.11,4.88,1.12,6.26,1.12,1.91,0,2.63-2.16,2.63-2.16s.47,11.26,0,12.69h0c-.49,1.43-4.07,4.78-4.07,4.78l-12-15.83a114.51,114.51,0,0,1-10.77-17.78,8.5,8.5,0,0,0-1.35-2.09c-2.1-2.38-6.59-3.07-7.76,1.32a8.7,8.7,0,0,0,.19,4.24c5,14.78,11.38,25.95,17.19,37.59,3.45,6.91,2.17,6.83,3.89,9.95-.2.14-.1.4-.32.53-.84,3.36-1.43,6.73-2.28,10.09a46,46,0,0,0-3.83-12.18,27.5,27.5,0,0,0,.53-7.12,9.38,9.38,0,0,0-3-6.31,6.17,6.17,0,0,0-3.49-1.36,3.64,3.64,0,0,0-3.84,3.12,37.51,37.51,0,0,1-1,5.41,54.48,54.48,0,0,1-2.76,6.8c0,4.46,2.76,3.73,4.77,21.67,1.56,14,19.56,23.21,29.36,33.3l10.44,32.86A202.3,202.3,0,0,0,356,417.79Z" style="fill:#fff"></path><g style="clip-path:url(#freepik--clip-path--inject-4)"><path d="M342.55,328.41a7.69,7.69,0,0,1,2.29-3.46,2.93,2.93,0,0,1,3.83.13q-1.12-3.43-2.38-6.83a10.56,10.56,0,0,0-2.78-4.68c-1.42-1.16-3.76-1.4-5,0a54.05,54.05,0,0,1,.28,15.81c-.37,2.84-.85,6.1,1.06,8.23.53.43,1.45-.34,1.11-.93-.16-.28-.72-.3-1-.28A50.82,50.82,0,0,1,342.55,328.41Z" style="fill:#FB923B"></path><path d="M342.55,328.41a7.69,7.69,0,0,1,2.29-3.46,2.93,2.93,0,0,1,3.83.13q-1.12-3.43-2.38-6.83a10.56,10.56,0,0,0-2.78-4.68c-1.42-1.16-3.76-1.4-5,0a54.05,54.05,0,0,1,.28,15.81c-.37,2.84-.85,6.1,1.06,8.23.53.43,1.45-.34,1.11-.93-.16-.28-.72-.3-1-.28A50.82,50.82,0,0,1,342.55,328.41Z" style="fill:#FB923B"></path><path d="M342.55,328.41a7.69,7.69,0,0,1,2.29-3.46,2.93,2.93,0,0,1,3.83.13q-1.12-3.43-2.38-6.83a10.56,10.56,0,0,0-2.78-4.68c-1.42-1.16-3.76-1.4-5,0a54.05,54.05,0,0,1,.28,15.81c-.37,2.84-.85,6.1,1.06,8.23.53.43,1.45-.34,1.11-.93-.16-.28-.72-.3-1-.28A50.82,50.82,0,0,1,342.55,328.41Z" style="fill:#fff;opacity:0.5"></path><path d="M326.59,323.67a28.27,28.27,0,0,0,.54,5.74,7.14,7.14,0,0,0,3.2,4.61c-1-3.72-.46-7.67.08-11.48l1-7a5.17,5.17,0,0,1,.71-2.32,1.8,1.8,0,0,1,2.11-.76c-1,.58-2.27-.2-2.87-1.18a29.42,29.42,0,0,0-1.53-3.08c-1.34-1.72-4.2-2.1-6.18-1.64C324.24,312.31,326.36,317.77,326.59,323.67Z" style="fill:#FB923B"></path><path d="M326.59,323.67a28.27,28.27,0,0,0,.54,5.74,7.14,7.14,0,0,0,3.2,4.61c-1-3.72-.46-7.67.08-11.48l1-7a5.17,5.17,0,0,1,.71-2.32,1.8,1.8,0,0,1,2.11-.76c-1,.58-2.27-.2-2.87-1.18a29.42,29.42,0,0,0-1.53-3.08c-1.34-1.72-4.2-2.1-6.18-1.64C324.24,312.31,326.36,317.77,326.59,323.67Z" style="fill:#FB923B"></path><g style="opacity:0.5"><path d="M326.59,323.67a28.27,28.27,0,0,0,.54,5.74,7.14,7.14,0,0,0,3.2,4.61c-1-3.72-.46-7.67.08-11.48l1-7a5.17,5.17,0,0,1,.71-2.32,1.8,1.8,0,0,1,2.11-.76c-1,.58-2.27-.2-2.87-1.18a29.42,29.42,0,0,0-1.53-3.08c-1.34-1.72-4.2-2.1-6.18-1.64C324.24,312.31,326.36,317.77,326.59,323.67Z" style="fill:#fff"></path></g><path d="M310.27,308.25a3.51,3.51,0,0,1-1.06-2.1,3,3,0,0,0-1.17-2c-3.07,1.95-1.39,7.66-4.5,9.55-.6.37-1.37.58-1.7,1.2a1.58,1.58,0,0,0,.33,1.76,3,3,0,0,0,1.7.8,6.85,6.85,0,0,0,6.54-2.84c1.22-1.68,2.06-4.38,1.46-6.37A1.54,1.54,0,0,1,310.27,308.25Z" style="fill:#FB923B"></path><path d="M278.34,345.64c0,.21-.09.48.08.62s.61-.12.81-.4a5.35,5.35,0,0,1,5.95-1.93c.81,0,1.09-1.25.56-1.86a2.89,2.89,0,0,0-2.24-.72,4.36,4.36,0,0,1-2.36-.39,2.34,2.34,0,0,1-1-2.52C279.63,340.85,279,343.24,278.34,345.64Z" style="fill:#FB923B"></path><g style="opacity:0.5"><path d="M310.27,308.25a3.51,3.51,0,0,1-1.06-2.1,3,3,0,0,0-1.17-2c-3.07,1.95-1.39,7.66-4.5,9.55-.6.37-1.37.58-1.7,1.2a1.58,1.58,0,0,0,.33,1.76,3,3,0,0,0,1.7.8,6.85,6.85,0,0,0,6.54-2.84c1.22-1.68,2.06-4.38,1.46-6.37A1.54,1.54,0,0,1,310.27,308.25Z" style="fill:#fff"></path><path d="M278.34,345.64c0,.21-.09.48.08.62s.61-.12.81-.4a5.35,5.35,0,0,1,5.95-1.93c.81,0,1.09-1.25.56-1.86a2.89,2.89,0,0,0-2.24-.72,4.36,4.36,0,0,1-2.36-.39,2.34,2.34,0,0,1-1-2.52C279.63,340.85,279,343.24,278.34,345.64Z" style="fill:#fff"></path></g><path d="M319.06,307.49c-1.75-.23-3.6-.28-5.13-1.17-1.9-1.12-3.21-3.5-5.42-3.6-2-.09-3.43,1.71-4.54,3.33a6.07,6.07,0,0,1,3.94-5.63,9.78,9.78,0,0,1,7.15.28,26.83,26.83,0,0,1,6.2,3.87,8.31,8.31,0,0,1,2.1,2C325.83,310.5,320.6,307.7,319.06,307.49Z" style="fill:#FB923B"></path><path d="M319.06,307.49c-1.75-.23-3.6-.28-5.13-1.17-1.9-1.12-3.21-3.5-5.42-3.6-2-.09-3.43,1.71-4.54,3.33a6.07,6.07,0,0,1,3.94-5.63,9.78,9.78,0,0,1,7.15.28,26.83,26.83,0,0,1,6.2,3.87,8.31,8.31,0,0,1,2.1,2C325.83,310.5,320.6,307.7,319.06,307.49Z" style="fill:#fff;opacity:0.5"></path><path d="M287.78,364.28a6.9,6.9,0,0,0,.32-.67A.76.76,0,0,0,287.78,364.28Z" style="fill:#FB923B"></path><path d="M290.75,348.79c-.2-2.46.15-4.94.05-7.41s-.75-5.07-2.55-6.77c-2.58-2.43-9.65-1.19-7.28,3.43a3,3,0,0,0,3.67,1.37,2.67,2.67,0,0,0,1.25-3.61,12.81,12.81,0,0,1-.61,14.56,11.62,11.62,0,0,1,2.82,13.25,1.46,1.46,0,0,1,1.65,0,5,5,0,0,1,1.27,2.26c.35.81,1,1.65,1.88,1.59,1.2-2.95.81-6.3,0-9.38S291,352,290.75,348.79Z" style="fill:#FB923B"></path><path d="M316.62,302.42a10,10,0,0,0-4.73-2Z" style="fill:#FB923B"></path><path d="M328.38,333.71c-.38-1.7-1.17-3.28-1.64-5-1.09-3.91-.4-8.09-.9-12.12a20.92,20.92,0,0,0-7.43-13.45l-1.79-.76a10.09,10.09,0,0,1,3.6,5.24c1.39,4.78,1.82,9.76,2.44,14.7A197.1,197.1,0,0,0,326.81,345C328,341.32,329.21,337.46,328.38,333.71Z" style="fill:#FB923B"></path><path d="M309.34,315.93a6.29,6.29,0,0,0,2.11-4.11,17,17,0,0,0-.11-4.22,1.4,1.4,0,0,1-1.58.95,3.55,3.55,0,0,1-1.89-1.72l-.36,1.25-.15-.68-.48.61c.71,2,1.4,4.33.3,6.16a7.23,7.23,0,0,1-2.25,2.08A3.8,3.8,0,0,0,309.34,315.93Z" style="fill:#FB923B"></path><path d="M311.28,307.1l.06.5A.8.8,0,0,0,311.28,307.1Z" style="fill:#FB923B"></path><path d="M306.05,327.34c-3.5-6.89-7-13.78-10.87-20.48a66.25,66.25,0,0,0-7.64-11.17c-1.34-1.49-5.16-4.95-7.27-2.67-1.41,1.52.44,4.28-1.29,5.93.4,0,2.35-.19,2.56.07a30.41,30.41,0,0,1,6.71,19.39c1.41-1.11,3.35.43,4.45,1.85a326.39,326.39,0,0,1,19,27.1c-1.14-4.13-1.17-8.52-2.39-12.62A45,45,0,0,0,306.05,327.34Z" style="fill:#FB923B"></path><path d="M346.79,344.13a43.81,43.81,0,0,0,3.13-13.84,22.65,22.65,0,0,0-3.14-12.53c-.58-.93-3-4.77-4.29-4.46-2.35.56.73,4.64,1.27,5.66,2,3.85,4.11,7.92,4,12.27-.1,3.35-1.51,6.5-2.64,9.65a20.79,20.79,0,0,0-1.41,6.86c-.17.26-.33.53-.52.77a10.27,10.27,0,0,1-6.28,4.15c1-3,1.93-6,2.9-9,.35-1.07.47-2.53-.15-3.27a2.8,2.8,0,0,0,.31-1.3,6.61,6.61,0,0,0-.85-2.3c-1.34-2.88-.89-6.23-.56-9.39.4-3.9.55-7.91-.59-11.66s-3.79-7.23-7.51-8.47l1,1-1.26-.92,2.34,4.88-.86,1.23c1.29-.68,2.94.3,3.53,1.63a8.58,8.58,0,0,1,.29,4.31,86.2,86.2,0,0,0,1.18,24.26,11.78,11.78,0,0,1-1.44,5.33,5.25,5.25,0,0,1-5,2.71,5.26,5.26,0,0,0-1.93-5.33c-2,2.8-.82,7.15-.52,10.34a112.45,112.45,0,0,0,2.33,14.36,46.42,46.42,0,0,1,2.55-12q1.62,5.92,3.26,11.85a7,7,0,0,1,.62-3.23,2.41,2.41,0,0,1,2.76-1.28,3.41,3.41,0,0,1,1.65,2.06,36.75,36.75,0,0,1,2,21.63c1.34.75,3.12-.15,3.87-1.49a9,9,0,0,0,.71-4.5Q347.13,364.14,346.79,344.13Z" style="fill:#FB923B"></path><path d="M312.89,348.36c-.64,1.12,2,5.58,2.41,6.64q3.3,8.07,6.61,16.15a76.45,76.45,0,0,0-5.12-20.68C316.34,349.36,314.16,346.13,312.89,348.36Z" style="fill:#FB923B"></path><path d="M316.31,319.84c-.38.57-.91,1.27-1.56,1.07s-.72-1-.71-1.63q.1-5.61.19-11.23c-3,2.17-2.64,5-2.85,8.24-.12,1.87.42,10.8-.86,11.89a33.33,33.33,0,0,0,7.44-9.06C317.44,318.69,316.68,319.27,316.31,319.84Z" style="fill:#FB923B"></path><g style="opacity:0.5"><path d="M287.78,364.28a6.9,6.9,0,0,0,.32-.67A.76.76,0,0,0,287.78,364.28Z" style="fill:#fff"></path><path d="M290.75,348.79c-.2-2.46.15-4.94.05-7.41s-.75-5.07-2.55-6.77c-2.58-2.43-9.65-1.19-7.28,3.43a3,3,0,0,0,3.67,1.37,2.67,2.67,0,0,0,1.25-3.61,12.81,12.81,0,0,1-.61,14.56,11.62,11.62,0,0,1,2.82,13.25,1.46,1.46,0,0,1,1.65,0,5,5,0,0,1,1.27,2.26c.35.81,1,1.65,1.88,1.59,1.2-2.95.81-6.3,0-9.38S291,352,290.75,348.79Z" style="fill:#fff"></path><path d="M316.62,302.42a10,10,0,0,0-4.73-2Z" style="fill:#fff"></path><path d="M328.38,333.71c-.38-1.7-1.17-3.28-1.64-5-1.09-3.91-.4-8.09-.9-12.12a20.92,20.92,0,0,0-7.43-13.45l-1.79-.76a10.09,10.09,0,0,1,3.6,5.24c1.39,4.78,1.82,9.76,2.44,14.7A197.1,197.1,0,0,0,326.81,345C328,341.32,329.21,337.46,328.38,333.71Z" style="fill:#fff"></path><path d="M309.34,315.93a6.29,6.29,0,0,0,2.11-4.11,17,17,0,0,0-.11-4.22,1.4,1.4,0,0,1-1.58.95,3.55,3.55,0,0,1-1.89-1.72l-.36,1.25-.15-.68-.48.61c.71,2,1.4,4.33.3,6.16a7.23,7.23,0,0,1-2.25,2.08A3.8,3.8,0,0,0,309.34,315.93Z" style="fill:#fff"></path><path d="M311.28,307.1l.06.5A.8.8,0,0,0,311.28,307.1Z" style="fill:#fff"></path><path d="M306.05,327.34c-3.5-6.89-7-13.78-10.87-20.48a66.25,66.25,0,0,0-7.64-11.17c-1.34-1.49-5.16-4.95-7.27-2.67-1.41,1.52.44,4.28-1.29,5.93.4,0,2.35-.19,2.56.07a30.41,30.41,0,0,1,6.71,19.39c1.41-1.11,3.35.43,4.45,1.85a326.39,326.39,0,0,1,19,27.1c-1.14-4.13-1.17-8.52-2.39-12.62A45,45,0,0,0,306.05,327.34Z" style="fill:#fff"></path><path d="M346.79,344.13a43.81,43.81,0,0,0,3.13-13.84,22.65,22.65,0,0,0-3.14-12.53c-.58-.93-3-4.77-4.29-4.46-2.35.56.73,4.64,1.27,5.66,2,3.85,4.11,7.92,4,12.27-.1,3.35-1.51,6.5-2.64,9.65a20.79,20.79,0,0,0-1.41,6.86c-.17.26-.33.53-.52.77a10.27,10.27,0,0,1-6.28,4.15c1-3,1.93-6,2.9-9,.35-1.07.47-2.53-.15-3.27a2.8,2.8,0,0,0,.31-1.3,6.61,6.61,0,0,0-.85-2.3c-1.34-2.88-.89-6.23-.56-9.39.4-3.9.55-7.91-.59-11.66s-3.79-7.23-7.51-8.47l1,1-1.26-.92,2.34,4.88-.86,1.23c1.29-.68,2.94.3,3.53,1.63a8.58,8.58,0,0,1,.29,4.31,86.2,86.2,0,0,0,1.18,24.26,11.78,11.78,0,0,1-1.44,5.33,5.25,5.25,0,0,1-5,2.71,5.26,5.26,0,0,0-1.93-5.33c-2,2.8-.82,7.15-.52,10.34a112.45,112.45,0,0,0,2.33,14.36,46.42,46.42,0,0,1,2.55-12q1.62,5.92,3.26,11.85a7,7,0,0,1,.62-3.23,2.41,2.41,0,0,1,2.76-1.28,3.41,3.41,0,0,1,1.65,2.06,36.75,36.75,0,0,1,2,21.63c1.34.75,3.12-.15,3.87-1.49a9,9,0,0,0,.71-4.5Q347.13,364.14,346.79,344.13Z" style="fill:#fff"></path><path d="M312.89,348.36c-.64,1.12,2,5.58,2.41,6.64q3.3,8.07,6.61,16.15a76.45,76.45,0,0,0-5.12-20.68C316.34,349.36,314.16,346.13,312.89,348.36Z" style="fill:#fff"></path><path d="M316.31,319.84c-.38.57-.91,1.27-1.56,1.07s-.72-1-.71-1.63q.1-5.61.19-11.23c-3,2.17-2.64,5-2.85,8.24-.12,1.87.42,10.8-.86,11.89a33.33,33.33,0,0,0,7.44-9.06C317.44,318.69,316.68,319.27,316.31,319.84Z" style="fill:#fff"></path></g></g><path d="M324,307.59a78.74,78.74,0,0,1,2.72,20,10.81,10.81,0,0,0,.36,3.36,3.34,3.34,0,0,0,2.29,2.29" style="fill:none"></path><path d="M338.11,314.16c3,6.26-.07,20.25.15,21.23a3.53,3.53,0,0,0,1.69,2.4" style="fill:none"></path><path d="M312.33,306.74c-.35,2-.64,4.29-1,6.28a11.54,11.54,0,0,1-4-8" style="fill:none"></path><path d="M293.17,360.09,291,361" style="fill:none"></path><path d="M293.72,361.82a12.5,12.5,0,0,0,0,5.06" style="fill:none"></path><path d="M306.36,343.14c.8,1.43,1.59,2.87,2.39,4.31" style="fill:none"></path><path d="M311,327.36l2.38-3.36" style="fill:none"></path><path d="M344.43,343.14l-.72,2.63" style="fill:none"></path><path d="M338.61,335.93q1-3.36,2.11-6.72" style="fill:none"></path><path d="M345.65,324a2.71,2.71,0,0,1,3.64,1.13" style="fill:none"></path><path d="M331.28,312.53a5.17,5.17,0,0,1,4.81,1.1" style="fill:none"></path><path d="M286.74,319.2a7.31,7.31,0,0,1,6.2-2.34" style="fill:none"></path><path d="M277.71,300.34a6.7,6.7,0,0,1,5-1.18" style="fill:none"></path><path d="M279.57,345.09a12.76,12.76,0,0,0-2.93,3.29Z" style="fill:#fff"></path><path d="M280.53,340.55c1.58-1.13,4.1,1.39,5.55.1a2.3,2.3,0,0,0,.49-2.16,7.5,7.5,0,0,1-.29-2.29" style="fill:none"></path><path d="M325.12,333.61a18.11,18.11,0,0,1,1.1,12.82" style="fill:none"></path><path d="M336.74,339.78a8.33,8.33,0,0,1-1,5.5" style="fill:none"></path><path d="M321.11,436.09l-10.44-32.86c-9.8-10.09-27.8-19.32-29.36-33.3-2-17.94-4.77-17.21-4.77-21.67a54.48,54.48,0,0,0,2.76-6.8,37.51,37.51,0,0,0,1-5.41,3.64,3.64,0,0,1,3.84-3.12,6.17,6.17,0,0,1,3.49,1.36,9.38,9.38,0,0,1,3,6.31,27.5,27.5,0,0,1-.53,7.12,46,46,0,0,1,3.83,12.18c.85-3.36,1.44-6.73,2.28-10.09.22-.13.12-.39.32-.53-1.72-3.12-.44-3-3.89-9.95-5.81-11.64-12.18-22.81-17.19-37.59a8.7,8.7,0,0,1-.19-4.24c1.17-4.39,5.66-3.7,7.76-1.32a8.5,8.5,0,0,1,1.35,2.09,114.51,114.51,0,0,0,10.77,17.78l12,15.83s3.58-3.35,4.07-4.78h0c.47-1.43,0-12.69,0-12.69s-.72,2.16-2.63,2.16c-1.38,0-4.12,1-6.26-1.12a5.21,5.21,0,0,1-.61-6.52l4.47-7a7.49,7.49,0,0,1,7.66-1.44,36.61,36.61,0,0,1,9.1,5.51,17.87,17.87,0,0,1,7.66,1c3.6,1.45,7.57,6,7.57,6s4.07,0,6,1.17c.48.3,7.32,9.54,5.58,17.2-1,4.57-1.41,11.13-1.89,12.91l-.12,44.21L356,417.79" style="fill:none;stroke:#263238;stroke-miterlimit:10"></path><path d="M324,307.59a78.74,78.74,0,0,1,2.72,20,10.81,10.81,0,0,0,.36,3.36,3.34,3.34,0,0,0,2.29,2.29" style="fill:none;stroke:#263238;stroke-miterlimit:10"></path><path d="M338.11,314.16c3,6.26-.07,20.25.15,21.23a3.53,3.53,0,0,0,1.69,2.4" style="fill:none;stroke:#263238;stroke-miterlimit:10"></path><path d="M312.33,306.74c-.35,2-.64,4.29-1,6.28a11.54,11.54,0,0,1-4-8" style="fill:none;stroke:#263238;stroke-miterlimit:10"></path><path d="M293.17,360.09,291,361" style="fill:none;stroke:#263238;stroke-miterlimit:10"></path><path d="M293.72,361.82a12.5,12.5,0,0,0,0,5.06" style="fill:none;stroke:#263238;stroke-miterlimit:10"></path><path d="M306.36,343.14c.8,1.43,1.59,2.87,2.39,4.31" style="fill:none;stroke:#263238;stroke-miterlimit:10"></path><path d="M311,327.36l2.38-3.36" style="fill:none;stroke:#263238;stroke-miterlimit:10"></path><path d="M344.43,343.14l-.72,2.63" style="fill:none;stroke:#263238;stroke-miterlimit:10"></path><path d="M338.61,335.93q1-3.36,2.11-6.72" style="fill:none;stroke:#263238;stroke-miterlimit:10"></path><path d="M345.65,324a2.71,2.71,0,0,1,3.64,1.13" style="fill:none;stroke:#263238;stroke-miterlimit:10"></path><path d="M331.28,312.53a5.17,5.17,0,0,1,4.81,1.1" style="fill:none;stroke:#263238;stroke-miterlimit:10"></path><path d="M286.74,319.2a7.31,7.31,0,0,1,6.2-2.34" style="fill:none;stroke:#263238;stroke-miterlimit:10"></path><path d="M277.71,300.34a6.7,6.7,0,0,1,5-1.18" style="fill:none;stroke:#263238;stroke-miterlimit:10"></path><path d="M279.57,345.09a12.76,12.76,0,0,0-2.93,3.29" style="fill:none;stroke:#263238;stroke-miterlimit:10"></path><path d="M280.53,340.55c1.58-1.13,4.1,1.39,5.55.1a2.3,2.3,0,0,0,.49-2.16,7.5,7.5,0,0,1-.29-2.29" style="fill:none;stroke:#263238;stroke-miterlimit:10"></path><path d="M325.12,333.61a18.11,18.11,0,0,1,1.1,12.82" style="fill:none;stroke:#263238;stroke-miterlimit:10"></path><path d="M336.74,339.78a8.33,8.33,0,0,1-1,5.5" style="fill:none;stroke:#263238;stroke-miterlimit:10"></path><path d="M240.05,354.79a6.06,6.06,0,0,1-.09,2.08c-.65,3-2.53,11.78-3.22,16.58-.82,5.86-10.29,24-10.29,24s-8.72,10.84-13.16,16.48c-2.18,2.77-5.63,14-8.56,24.66q-5.55-1.68-11-3.62c-3-1.07-6-2.2-9-3.37A147.09,147.09,0,0,1,169.11,424c1.66-6,2.77-10.67,2.75-10.94-.05-.63,3.56-7.58,3.56-7.58L172.27,364l-1.86-6.31a47.39,47.39,0,0,1-1.83-10,48.34,48.34,0,0,1,1.29-15.33l5.43-8.06,2.54-.19,7.86-11s4.25-1.28,5.34,1.92-3.54,9.18-3.54,9.18l-1.59,9.87,3.78,9.24,2,.72s.66-16.27.21-19.52L196,309.73a70.54,70.54,0,0,0,3.26-7.46c.76-2.49,5.23-5,7.8-.59a6.43,6.43,0,0,1,.4,5.27c-1.05,3.05-1.92,5.45-1.92,5.45s-1,12.58-1.25,12.93,1.85,18.73,1.85,18.73l1.64.73.58-17.55,3.41-16.49s-.28-7.93,5.31-7a4.32,4.32,0,0,1,4.11,2.56c1.49,2.85.07,21.83.07,21.83l1.38,19.62,2.21,15.13,2.6-10.37s.15-14.86,9.53-16.13c0,0,2.79-.5,3.36,1.44s-1.39,5.9-1.11,9.7C239.48,350.23,239.86,353.24,240.05,354.79Z" style="opacity:0.2"></path><path d="M237.2,336.42c-.43-2-3.24-1.69-3.24-1.69-9.45.56-10.72,15.37-10.72,15.37l-3.39,10.14-1-15.26.1-19.67s2.86-18.82,1.59-21.77a4.31,4.31,0,0,0-3.91-2.86c-5.5-1.38-5.82,6.55-5.82,6.55l-4.64,16.18-1.91,17.45-1.58-.84s-.75-18.52-.43-18.83,2.22-12.79,2.22-12.79,1.05-2.33,2.33-5.29a6.43,6.43,0,0,0,0-5.29c-2.23-4.54-6.87-2.42-7.83,0a70.39,70.39,0,0,1-3.8,7.19l-5.3,14.49c.2,3.28-1.68,19.46-1.68,19.46l-1.91-.87-3.07-9.5,2.34-9.73s5.07-5.6,4.22-8.88-5.18-2.32-5.18-2.32L175.88,318h-2.55l-6,7.61a48.27,48.27,0,0,0-1.38,25.29l1.38,6.43v41.56s-4.12,6.66-4.12,7.29c0,.29-1.7,5.54-4.07,12.09,10.37,6.1,19.3,10.82,25.63,13.31,3,1.18,6,2.3,9,3.37,3.8-10.67,8.24-22.08,10.69-24.75,4.86-5.28,14.38-15.44,14.38-15.44s10.81-17.37,12.08-23.14c1-4.74,3.58-13.35,4.46-16.3a5.77,5.77,0,0,0,.24-2.07c-.07-1.56-.22-4.59-.22-7.26C235.36,342.2,237.62,338.39,237.2,336.42Z" style="fill:#fff"></path><g style="clip-path:url(#freepik--clip-path-2--inject-4)"><path d="M172.3,332.24c1.62-2,4.94-2.79,6.82-1a7.17,7.17,0,0,1,1.71,4,8.53,8.53,0,0,0,1.51,4.12c1,1.13,2.89,1.57,3.9.49.14,2.19.27,4.38.41,6.57A26.05,26.05,0,0,0,190.09,333c0-2.27-.39-4.58.14-6.8s2.24-4.36,4.52-4.47c2.52-.11,4.51,2.34,5,4.82s-.08,5-.23,7.54a22.94,22.94,0,0,0,2.16,11.21l1.59-3.22c.48,2.16,1,4.31,1.43,6.46q.62-7.11,1.24-14.21a10.36,10.36,0,0,1,.87-3.9,3.46,3.46,0,0,1,3.21-2c1.8.18,2.84,2.1,3.44,3.8,4.51,12.75,2.65,26.74.74,40.12,1.25.23,2.31-1,2.62-2.27a29,29,0,0,1,.67-3.74c.47-1.19,1.91-2.16,3-1.48,1.58,1,.48,4.06,2.13,4.91a22.82,22.82,0,0,1,4.53-10.93c1.11-1.44,2.77-2.87,4.53-2.41a3.56,3.56,0,0,1,2.37,3c.19,1.34,2.13-4.2,1.79-2.89.76-7.71-.76-8.52,0-16.24.14-1.39,2.39-3.8,1.43-4.82s-3.63-2.4-4.84-1.84-5.13,2.52-5.91,3.59c-4.92,6.79-4.58,16.61-6.11,24.85-1.31-12.56-2.6-25.33-.3-37.74,1.27-6.85,3.61-14,1.4-20.59-1-3-3.69-6-6.82-5.46-2.52.46-4,3-5.07,5.36-3.44,7.9-5,16.48-6.48,25L208.76,303a17.35,17.35,0,0,0,.58-6.74c-.41-2.24-1.94-4.43-4.16-4.9s-4.4.84-6.06,2.36c-6,5.44-8.16,13.74-10.1,21.56a15.52,15.52,0,0,0,1.16-6.31c-.21-2.14-1.57-4.32-3.67-4.79-2.73-.59-5.2,1.84-6.4,4.35s-1.78,5.42-3.69,7.45c-1.39-1.56-4-1.47-5.74-.31a11.09,11.09,0,0,0-3.65,5,46.52,46.52,0,0,0-3.87,22.48,8.23,8.23,0,0,1,8.21-4.68c-.2-1.7-.39-3.4-.59-5.11" style="fill:#FB923B"></path><path d="M178.89,348.51c-.09,1.26-.17,2.52-.26,3.78a1.82,1.82,0,0,1,2.77-.7,4.14,4.14,0,0,1,.63-2.34c.32-.76.35-1.84-.39-2.2s-1.74.58-2.21,1.44c0-.31-.07-.62-.11-.94Z" style="fill:#FB923B"></path><path d="M193.23,346.25a8.84,8.84,0,0,0-2,4.18,4.31,4.31,0,0,1,1.47-1.08,1.48,1.48,0,0,1,1.66.38c.22.3.3.74.64.91a.79.79,0,0,0,1-.36,2.28,2.28,0,0,0,.25-1.1,6.08,6.08,0,0,0-.12-2.17,2.11,2.11,0,0,0-1.44-1.51,1.3,1.3,0,0,0-1.57,1.1Z" style="fill:#FB923B"></path><path d="M207.12,349.69a11.36,11.36,0,0,0-2.1,5,4.38,4.38,0,0,0,1.95-1.05,3.86,3.86,0,0,1,2-1,1.39,1.39,0,0,1,1.55,1.22,9.41,9.41,0,0,1,.08-2.54,5.35,5.35,0,0,0-.18-2.52,2.13,2.13,0,0,0-1.93-1.42,1.34,1.34,0,0,0-1.18,1.8Z" style="fill:#FB923B"></path><path d="M168.91,354.71a10,10,0,0,0-1.17,4.7,1.64,1.64,0,0,1,1.47-1.46,3.28,3.28,0,0,1,2.13.57,5.78,5.78,0,0,0,.14-2.3,2,2,0,0,0-1.46-1.6c-.77-.12-1.61.61-1.4,1.35l-.23-.57Z" style="fill:#FB923B"></path><path d="M172.3,332.24c1.62-2,4.94-2.79,6.82-1a7.17,7.17,0,0,1,1.71,4,8.53,8.53,0,0,0,1.51,4.12c1,1.13,2.89,1.57,3.9.49.14,2.19.27,4.38.41,6.57A26.05,26.05,0,0,0,190.09,333c0-2.27-.39-4.58.14-6.8s2.24-4.36,4.52-4.47c2.52-.11,4.51,2.34,5,4.82s-.08,5-.23,7.54a22.94,22.94,0,0,0,2.16,11.21l1.59-3.22c.48,2.16,1,4.31,1.43,6.46q.62-7.11,1.24-14.21a10.36,10.36,0,0,1,.87-3.9,3.46,3.46,0,0,1,3.21-2c1.8.18,2.84,2.1,3.44,3.8,4.51,12.75,2.65,26.74.74,40.12,1.25.23,2.31-1,2.62-2.27a29,29,0,0,1,.67-3.74c.47-1.19,1.91-2.16,3-1.48,1.58,1,.48,4.06,2.13,4.91a22.82,22.82,0,0,1,4.53-10.93c1.11-1.44,2.77-2.87,4.53-2.41a3.56,3.56,0,0,1,2.37,3c.19,1.34,2.13-4.2,1.79-2.89.76-7.71-.76-8.52,0-16.24.14-1.39,2.39-3.8,1.43-4.82s-3.63-2.4-4.84-1.84-5.13,2.52-5.91,3.59c-4.92,6.79-4.58,16.61-6.11,24.85-1.31-12.56-2.6-25.33-.3-37.74,1.27-6.85,3.61-14,1.4-20.59-1-3-3.69-6-6.82-5.46-2.52.46-4,3-5.07,5.36-3.44,7.9-5,16.48-6.48,25L208.76,303a17.35,17.35,0,0,0,.58-6.74c-.41-2.24-1.94-4.43-4.16-4.9s-4.4.84-6.06,2.36c-6,5.44-8.16,13.74-10.1,21.56a15.52,15.52,0,0,0,1.16-6.31c-.21-2.14-1.57-4.32-3.67-4.79-2.73-.59-5.2,1.84-6.4,4.35s-1.78,5.42-3.69,7.45c-1.39-1.56-4-1.47-5.74-.31a11.09,11.09,0,0,0-3.65,5,46.52,46.52,0,0,0-3.87,22.48,8.23,8.23,0,0,1,8.21-4.68c-.2-1.7-.39-3.4-.59-5.11" style="fill:#fff;opacity:0.5"></path><g style="opacity:0.5"><path d="M178.89,348.51c-.09,1.26-.17,2.52-.26,3.78a1.82,1.82,0,0,1,2.77-.7,4.14,4.14,0,0,1,.63-2.34c.32-.76.35-1.84-.39-2.2s-1.74.58-2.21,1.44c0-.31-.07-.62-.11-.94Z" style="fill:#fff"></path><path d="M193.23,346.25a8.84,8.84,0,0,0-2,4.18,4.31,4.31,0,0,1,1.47-1.08,1.48,1.48,0,0,1,1.66.38c.22.3.3.74.64.91a.79.79,0,0,0,1-.36,2.28,2.28,0,0,0,.25-1.1,6.08,6.08,0,0,0-.12-2.17,2.11,2.11,0,0,0-1.44-1.51,1.3,1.3,0,0,0-1.57,1.1Z" style="fill:#fff"></path><path d="M207.12,349.69a11.36,11.36,0,0,0-2.1,5,4.38,4.38,0,0,0,1.95-1.05,3.86,3.86,0,0,1,2-1,1.39,1.39,0,0,1,1.55,1.22,9.41,9.41,0,0,1,.08-2.54,5.35,5.35,0,0,0-.18-2.52,2.13,2.13,0,0,0-1.93-1.42,1.34,1.34,0,0,0-1.18,1.8Z" style="fill:#fff"></path><path d="M168.91,354.71a10,10,0,0,0-1.17,4.7,1.64,1.64,0,0,1,1.47-1.46,3.28,3.28,0,0,1,2.13.57,5.78,5.78,0,0,0,.14-2.3,2,2,0,0,0-1.46-1.6c-.77-.12-1.61.61-1.4,1.35l-.23-.57Z" style="fill:#fff"></path></g></g><path d="M159.11,418.29c2.37-6.55,4.07-11.8,4.07-12.09,0-.63,4.12-7.29,4.12-7.29V357.35l-1.38-6.43a48.27,48.27,0,0,1,1.38-25.29l6-7.61h2.55l8.66-10.36s4.34-1,5.18,2.32-4.22,8.88-4.22,8.88l-2.34,9.73,3.07,9.5,1.91.87s1.88-16.18,1.68-19.46l5.3-14.49a70.39,70.39,0,0,0,3.8-7.19c1-2.42,5.6-4.54,7.83,0a6.43,6.43,0,0,1,0,5.29c-1.28,3-2.33,5.29-2.33,5.29s-1.9,12.47-2.22,12.79.43,18.83.43,18.83l1.58.84,1.91-17.45,4.64-16.18s.32-7.93,5.82-6.55a4.31,4.31,0,0,1,3.91,2.86c1.27,2.95-1.59,21.77-1.59,21.77L218.8,345l1,15.26,3.39-10.14s1.27-14.81,10.72-15.37c0,0,2.81-.29,3.24,1.69s-1.84,5.78-1.84,9.59c0,2.67.15,5.7.22,7.26a5.77,5.77,0,0,1-.24,2.07c-.88,3-3.42,11.56-4.46,16.3-1.27,5.77-12.08,23.14-12.08,23.14s-9.52,10.16-14.38,15.44c-2.45,2.67-6.89,14.08-10.69,24.75" style="fill:none;stroke:#263238;stroke-miterlimit:10"></path><path d="M188,340.52a6,6,0,0,1-1.42,5.7" style="fill:#fff;stroke:#263238;stroke-miterlimit:10"></path><path d="M171.84,354.5c1.37-2.12,2.71-5.05,2.34-7.55-.72-4.91-3-10.56-2-15.42.64-3.1,1.28-6.21,1.93-9.31" style="fill:#fff;stroke:#263238;stroke-miterlimit:10"></path><path d="M211.71,308.12a9.81,9.81,0,0,1,5,0c0-.47,0-.93.05-1.4" style="fill:none;stroke:#263238;stroke-miterlimit:10"></path><path d="M198.58,301.88a3.2,3.2,0,0,0,5-2.67" style="fill:none;stroke:#263238;stroke-miterlimit:10"></path><path d="M234.72,336.59a6.13,6.13,0,0,0-4.59,6.33l2.45.74" style="fill:none;stroke:#263238;stroke-miterlimit:10"></path><path d="M202.54,337.81c.11,1.68-.1,5.69,0,7.37" style="fill:#fff;stroke:#263238;stroke-miterlimit:10"></path><path d="M204.38,340.14q-.3,4.11-.61,8.24c0-.35,0-.7,0-1.05" style="fill:#fff;stroke:#263238;stroke-miterlimit:10"></path><path d="M219.64,363.31a13.74,13.74,0,0,1-.94,9.06" style="fill:#fff;stroke:#263238;stroke-miterlimit:10"></path><path d="M194.29,348.9c-2.18,2.39-1.86,8.13-.32,11.28" style="fill:none;stroke:#263238;stroke-miterlimit:10"></path><path d="M210.4,352.85a11.23,11.23,0,0,1-2.67,7.33" style="fill:none;stroke:#263238;stroke-miterlimit:10"></path><path d="M178.41,350a10.22,10.22,0,0,0,1.49,7" style="fill:none;stroke:#263238;stroke-miterlimit:10"></path><path d="M169.13,357.51a8.53,8.53,0,0,0,1.54,5.34" style="fill:none;stroke:#263238;stroke-miterlimit:10"></path><path d="M181.85,311.41a3.17,3.17,0,0,1,3.5.56l1.23-1.63" style="fill:none;stroke:#263238;stroke-miterlimit:10"></path><path d="M192.11,318.75a4.16,4.16,0,0,1,5.29.89" style="fill:none;stroke:#263238;stroke-miterlimit:10"></path><path d="M208.13,323.75a6.7,6.7,0,0,1,5.69.12" style="fill:none;stroke:#263238;stroke-miterlimit:10"></path><path d="M172.48,332.14a5.41,5.41,0,0,1,5.24-2.6" style="fill:none;stroke:#263238;stroke-miterlimit:10"></path><path d="M165.77,341.7a2.84,2.84,0,0,1,2.37-2.66" style="fill:none;stroke:#263238;stroke-miterlimit:10"></path></g><g id="freepik--Monitor--inject-4"><path d="M424.64,112.33a127,127,0,0,1-19.9,14c-36.41,21.54-77.54,34.44-119.38,40.73s-84.44,6.1-126.6,2.63c-8.28-.68-16.7-1.52-24.31-4.86-6.45-2.84-12.3-7.78-15-14.17,9.13-10.4,17.62-20.92,27.07-30.85q3.38-3.55,6.92-7c2-1.91,4-3.79,6.14-5.63C162,105.11,164.43,103,167,101c3.55-2.76,7.29-5.41,11.29-7.94,1-.63,2-1.24,2.93-1.84,99.71-62,173.1-41.74,222.06,0Q408.85,96,414,101c2.08,2,4.09,4.09,6,6.19.22.22.42.45.63.69Q422.7,110.11,424.64,112.33Z" style="opacity:0.2"></path><path d="M428.58,102.39,93.11,103.92l5.07-7.61a13.17,13.17,0,0,1,10.94-5.85H412.68a13.14,13.14,0,0,1,10.24,4.91Z" style="fill:#fff;stroke:#263238;stroke-linecap:round;stroke-linejoin:round"></path><rect x="214.16" y="152.67" width="86.68" height="86.68" rx="34.15" style="fill:#757575;stroke:#263238;stroke-linecap:round;stroke-linejoin:round"></rect><path d="M229.91,203.34v12.32a7,7,0,0,0,7,7h42.27a7,7,0,0,0,7-6.95c.05-5.55.35-12.37.35-12.37Z" style="fill:#999;stroke:#263238;stroke-linecap:round;stroke-linejoin:round"></path><path d="M384.62,207.45H137.41a6.33,6.33,0,0,1-5.9-4L93.38,105.56A3.9,3.9,0,0,1,97,100.24H425a3.9,3.9,0,0,1,3.64,5.32l-38.13,97.86A6.33,6.33,0,0,1,384.62,207.45Z" style="fill:#bfbfbf;stroke:#263238;stroke-linecap:round;stroke-linejoin:round"></path><polygon points="386.45 198.93 134.98 198.93 100.38 106.44 420.89 106.44 386.45 198.93" style="fill:#263238"></polygon><rect x="230.18" y="207.32" width="56.06" height="3.84" style="fill:#263238"></rect><path d="M349.72,195H172.14c-1,0-1.9-.44-2.08-1L144.8,113.71c-.28-.9.51-1.63,1.77-1.63H375.29c1.26,0,2,.73,1.76,1.63L351.8,194C351.62,194.51,350.69,195,349.72,195Z" style="fill:#FB923B"></path><polygon points="349.06 193.13 172.8 193.13 151.33 122.62 370.53 122.62 349.06 193.13" style="fill:#263238"></polygon><path d="M198.1,140.13H164.73c-.83,0-1.37.44-1.21,1a1.81,1.81,0,0,0,1.76,1h33.18c.82,0,1.4-.44,1.31-1S198.92,140.13,198.1,140.13Z" style="fill:#fff"></path><path d="M199.21,146.22H170.83c-.81,0-1.35.43-1.2,1a1.77,1.77,0,0,0,1.71.95h28.22c.81,0,1.38-.43,1.29-.95S200,146.22,199.21,146.22Z" style="fill:#fff"></path><path d="M200.29,152.1h-32.2c-.8,0-1.32.42-1.18.92a1.76,1.76,0,0,0,1.7.92h32c.79,0,1.36-.41,1.27-.92S201.09,152.1,200.29,152.1Z" style="fill:#fff;opacity:0.5"></path><path d="M201.33,157.78H182.42c-.78,0-1.32.4-1.2.89s.85.89,1.63.89h18.81c.78,0,1.34-.4,1.25-.89S202.11,157.78,201.33,157.78Z" style="fill:#fff"></path><path d="M202.34,163.26H171.22c-.76,0-1.28.39-1.14.87s.86.85,1.63.85h30.94c.77,0,1.32-.38,1.24-.85S203.11,163.26,202.34,163.26Z" style="fill:#fff"></path><path d="M203.31,168.57H178.19c-.76,0-1.27.37-1.15.83s.83.83,1.58.83h25c.75,0,1.29-.37,1.21-.83S204.07,168.57,203.31,168.57Z" style="fill:#fff"></path><path d="M204.25,173.7H179.54c-.75,0-1.25.36-1.13.8s.81.81,1.55.81h24.59c.74,0,1.27-.36,1.19-.81S205,173.7,204.25,173.7Z" style="fill:#fff"></path><path d="M205.16,178.66h-27c-.73,0-1.23.35-1.11.78s.8.78,1.53.78h26.83c.73,0,1.26-.35,1.18-.78S205.9,178.66,205.16,178.66Z" style="fill:#fff"></path><path d="M206.05,183.47H188.63c-.72,0-1.22.34-1.12.76s.77.75,1.48.75h17.33c.72,0,1.24-.34,1.17-.75S206.77,183.47,206.05,183.47Z" style="fill:#fff;opacity:0.5"></path><path d="M196.94,133.81H172.07c-.84,0-1.4.46-1.25,1a1.8,1.8,0,0,0,1.77,1h24.72c.84,0,1.43-.45,1.33-1A1.66,1.66,0,0,0,196.94,133.81Z" style="fill:#fff;opacity:0.5"></path><path d="M195.73,127.26H161.11c-.85,0-1.41.48-1.24,1.07a1.92,1.92,0,0,0,1.84,1.06h34.41c.85,0,1.46-.48,1.35-1.06A1.69,1.69,0,0,0,195.73,127.26Z" style="fill:#fff"></path><path d="M206.9,188.13H178.21c-.71,0-1.19.33-1.08.73s.78.73,1.49.73h28.55c.7,0,1.22-.32,1.15-.73S207.61,188.13,206.9,188.13Z" style="fill:#fff"></path><polygon points="209.82 142.35 216.29 142.35 215.97 139.88 209.45 139.88 209.82 142.35" style="fill:#fff;opacity:0.5"></polygon><polygon points="210.72 148.37 217.08 148.37 216.77 145.98 210.36 145.98 210.72 148.37" style="fill:#fff;opacity:0.5"></polygon><polygon points="211.59 154.17 217.84 154.17 217.54 151.87 211.25 151.87 211.59 154.17" style="fill:#fff;opacity:0.5"></polygon><polygon points="212.43 159.78 218.58 159.78 218.28 157.56 212.1 157.56 212.43 159.78" style="fill:#fff;opacity:0.5"></polygon><polygon points="213.25 165.2 219.29 165.2 219 163.05 212.93 163.05 213.25 165.2" style="fill:#fff;opacity:0.5"></polygon><polygon points="214.03 170.44 219.97 170.44 219.7 168.36 213.72 168.36 214.03 170.44" style="fill:#fff;opacity:0.5"></polygon><polygon points="214.8 175.51 220.64 175.51 220.38 173.5 214.5 173.5 214.8 175.51" style="fill:#fff;opacity:0.5"></polygon><polygon points="215.53 180.41 221.28 180.41 221.03 178.47 215.24 178.47 215.53 180.41" style="fill:#fff;opacity:0.5"></polygon><polygon points="216.25 185.17 221.91 185.17 221.66 183.28 215.96 183.28 216.25 185.17" style="fill:#fff;opacity:0.5"></polygon><polygon points="208.88 136.12 215.47 136.12 215.14 133.56 208.5 133.56 208.88 136.12" style="fill:#fff;opacity:0.5"></polygon><polygon points="207.91 129.65 214.62 129.65 214.28 126.99 207.51 126.99 207.91 129.65" style="fill:#fff;opacity:0.5"></polygon><polygon points="216.94 189.78 222.51 189.78 222.27 187.95 216.66 187.95 216.94 189.78" style="fill:#fff;opacity:0.5"></polygon><path d="M251.05,179.44c0-.43.56-.78,1.29-.78h95.82c.73,0,1.22.35,1.1.78a1.62,1.62,0,0,1-1.54.78H252.39C251.66,180.22,251.06,179.87,251.05,179.44Z" style="fill:#fff"></path><path d="M349.13,175.31H296.07c-.74,0-1.3-.36-1.25-.81s.69-.8,1.44-.8h53.33c.74,0,1.24.36,1.11.8A1.63,1.63,0,0,1,349.13,175.31Z" style="fill:#fff"></path><path d="M283.48,175.31H267c-.74,0-1.34-.36-1.33-.81s.61-.8,1.36-.8H283.6c.74,0,1.32.36,1.28.8S284.22,175.31,283.48,175.31Z" style="fill:#fff;opacity:0.5"></path><path d="M317.92,170.23H243.08c-.75,0-1.38-.37-1.41-.83s.56-.83,1.32-.83h75.24c.75,0,1.3.37,1.21.83S318.68,170.23,317.92,170.23Z" style="fill:#fff"></path><path d="M227.43,168.57h5.34c.75,0,1.4.37,1.44.83s-.54.83-1.29.83h-5.31c-.75,0-1.4-.37-1.45-.83S226.68,168.57,227.43,168.57Z" style="fill:#fff;opacity:0.5"></path><path d="M328.75,164.13c-.1.47-.8.85-1.57.85H256.66c-.77,0-1.39-.38-1.4-.85s.61-.87,1.37-.87h70.91C328.31,163.26,328.85,163.65,328.75,164.13Z" style="fill:#fff"></path><path d="M226.87,163.26h20c.77,0,1.41.39,1.43.87s-.59.85-1.35.85H227.05c-.76,0-1.42-.38-1.48-.85S226.1,163.26,226.87,163.26Z" style="fill:#fff"></path><path d="M226.28,157.78h76.94c.78,0,1.36.4,1.29.89s-.75.89-1.53.89H226.47c-.77,0-1.45-.4-1.5-.89S225.5,157.78,226.28,157.78Z" style="fill:#fff"></path><path d="M276.23,153.94c-.79,0-1.41-.41-1.39-.92s.68-.92,1.48-.92h40.59c.8,0,1.37.42,1.28.92s-.8.92-1.59.92Z" style="fill:#fff"></path><path d="M225.68,152.1h35.13c.8,0,1.44.42,1.44.92s-.65.92-1.44.92H225.88c-.8,0-1.48-.41-1.54-.92S224.88,152.1,225.68,152.1Z" style="fill:#fff"></path><path d="M356.93,148.13H260.22c-.8,0-1.46-.43-1.46-.95s.65-1,1.46-1h97.25c.81,0,1.34.43,1.19,1A1.81,1.81,0,0,1,356.93,148.13Z" style="fill:#fff"></path><path d="M358.65,142.11H273.56c-.82,0-1.47-.44-1.45-1s.7-1,1.52-1h85.59c.82,0,1.36.44,1.2,1A1.83,1.83,0,0,1,358.65,142.11Z" style="fill:#fff"></path><path d="M360.45,135.86H342.63c-.84,0-1.41-.45-1.28-1a1.77,1.77,0,0,1,1.76-1H361c.84,0,1.39.46,1.22,1A1.86,1.86,0,0,1,360.45,135.86Z" style="fill:#fff;opacity:0.5"></path><path d="M330.16,135.86H264.73c-.83,0-1.51-.45-1.5-1s.68-1,1.52-1h65.82c.84,0,1.42.46,1.31,1A1.71,1.71,0,0,1,330.16,135.86Z" style="fill:#fff"></path><path d="M229,183.47h60.43c.72,0,1.27.34,1.22.76s-.65.75-1.37.75H229.19c-.72,0-1.34-.34-1.39-.75S228.3,183.47,229,183.47Z" style="fill:#fff"></path><path d="M229.52,188.13h92.84c.7,0,1.21.33,1.12.73s-.72.73-1.43.73H229.68c-.71,0-1.32-.32-1.36-.73S228.81,188.13,229.52,188.13Z" style="fill:#fff"></path><path d="M326.91,129.39H279.65c-.85,0-1.51-.48-1.48-1.06s.74-1.07,1.6-1.07h47.54c.86,0,1.46.48,1.35,1.07A1.74,1.74,0,0,1,326.91,129.39Z" style="fill:#fff"></path><path d="M266.25,129.39h-43c-.85,0-1.6-.48-1.66-1.06s.57-1.07,1.43-1.07h43.25c.85,0,1.54.48,1.53,1.07S267.1,129.39,266.25,129.39Z" style="fill:#fff;opacity:0.5"></path><path d="M302.85,183.47c.72,0,1.26.34,1.2.76s-.69.75-1.41.75H298c-.71,0-1.25-.34-1.2-.75s.67-.76,1.39-.76Z" style="fill:#fff;opacity:0.5"></path><path d="M245.54,179.44c0,.43-.55.78-1.28.78H237.9c-.73,0-1.35-.35-1.38-.78s.53-.78,1.26-.78h6.39C244.9,178.66,245.52,179,245.54,179.44Z" style="fill:#fff;opacity:0.5"></path><path d="M322.29,158.67c-.09.49-.8.89-1.57.89h-7.44c-.78,0-1.34-.4-1.27-.89s.78-.89,1.56-.89h7.48C321.83,157.78,322.39,158.18,322.29,158.67Z" style="fill:#fff;opacity:0.5"></path><path d="M345.5,163.26c.77,0,1.29.39,1.16.87a1.66,1.66,0,0,1-1.61.85h-5.93c-.77,0-1.29-.38-1.18-.85a1.62,1.62,0,0,1,1.6-.87Z" style="fill:#fff;opacity:0.5"></path><path d="M248.51,148.13c-.8,0-1.47-.43-1.5-.95s.62-1,1.43-1h6.31c.81,0,1.47.43,1.48,1s-.64.95-1.44.95Z" style="fill:#fff;opacity:0.5"></path><path d="M162.57,117.34a2.13,2.13,0,0,1-2.1,3,4.44,4.44,0,0,1-3.94-3,2.13,2.13,0,0,1,2.08-3A4.42,4.42,0,0,1,162.57,117.34Z" style="fill:#fff"></path><path d="M170.71,117.39a2.2,2.2,0,0,1-2.2,3,4.27,4.27,0,0,1-3.84-3,2.21,2.21,0,0,1,2.18-3A4.24,4.24,0,0,1,170.71,117.39Z" style="fill:#fff"></path><path d="M178.94,117.34a2.27,2.27,0,0,1-2.29,3,4.09,4.09,0,0,1-3.75-3,2.28,2.28,0,0,1,2.28-3A4.06,4.06,0,0,1,178.94,117.34Z" style="fill:#fff"></path><polygon points="100.38 106.44 127.33 178.47 159.84 106.44 100.38 106.44" style="fill:#fff;opacity:0.1"></polygon><polygon points="145.85 198.93 199.78 106.44 256.23 106.44 176.86 198.93 145.85 198.93" style="fill:#fff;opacity:0.1"></polygon><polygon points="280.56 105.98 196.5 198.93 209.45 198.93 296.52 106.44 280.56 105.98" style="fill:#fff;opacity:0.1"></polygon><polygon points="297.16 198.93 389.54 106.44 402.58 106.44 307.33 198.93 297.16 198.93" style="fill:#fff;opacity:0.1"></polygon></g><g id="freepik--speech-bubbles--inject-4"><path d="M171.9,239.07H150.81a5,5,0,0,0-5,5v10.26a5,5,0,0,0,5,5h5.51l4.18,9.47,5.89-9.47h5.51a5,5,0,0,0,5-5V244A5,5,0,0,0,171.9,239.07Z" style="fill:#fff;stroke:#263238;stroke-linecap:round;stroke-linejoin:round"></path><path d="M158.42,244.94a1,1,0,0,1,1-1,1,1,0,0,1,1,.93,1,1,0,0,1-1,1A1,1,0,0,1,158.42,244.94Zm.22,2.09h1.61v6.86h-1.61Z" style="fill:#263238"></path><path d="M164.12,246.67v.41H166v1.29h-1.83v5.52h-1.61v-5.52h-1.13v-1.29h1.13v-.43a2.22,2.22,0,0,1,2.45-2.38,2.64,2.64,0,0,1,1.46.37l-.45,1.21a1.59,1.59,0,0,0-.89-.28C164.47,245.57,164.12,245.94,164.12,246.67Z" style="fill:#263238"></path><path d="M236.12,240.5H215a5,5,0,0,0-5,5v10.27a5,5,0,0,0,5,5h5.52l4.17,9.47,5.89-9.47h5.52a5,5,0,0,0,5-5V245.46A5,5,0,0,0,236.12,240.5Z" style="fill:#fff;stroke:#263238;stroke-linecap:round;stroke-linejoin:round"></path><path d="M219.46,252.41h-5.39a2.08,2.08,0,0,0,2.23,1.65,2.46,2.46,0,0,0,1.86-.75l.86,1a3.85,3.85,0,0,1-6.55-2.4,3.41,3.41,0,0,1,3.54-3.51,3.34,3.34,0,0,1,3.47,3.55C219.48,252.07,219.47,252.26,219.46,252.41Zm-5.4-1.06H218a1.86,1.86,0,0,0-1.94-1.67A1.89,1.89,0,0,0,214.06,251.35Z" style="fill:#263238"></path><path d="M221,245.8h1.6v9.53H221Z" style="fill:#263238"></path><path d="M224,254.65l.61-1.22a4.62,4.62,0,0,0,2.39.68c1,0,1.44-.28,1.44-.76,0-1.31-4.24-.08-4.24-2.81,0-1.3,1.17-2.15,3-2.15a5.51,5.51,0,0,1,2.57.59l-.62,1.22a3.78,3.78,0,0,0-2-.51c-1,0-1.44.32-1.44.77,0,1.39,4.24.15,4.24,2.84,0,1.28-1.18,2.12-3.11,2.12A5.4,5.4,0,0,1,224,254.65Z" style="fill:#263238"></path><path d="M237.77,252.41h-5.39a2.08,2.08,0,0,0,2.23,1.65,2.46,2.46,0,0,0,1.86-.75l.86,1a3.85,3.85,0,0,1-6.55-2.4,3.41,3.41,0,0,1,3.54-3.51,3.34,3.34,0,0,1,3.47,3.55C237.79,252.07,237.78,252.26,237.77,252.41Zm-5.4-1.06h3.89a1.86,1.86,0,0,0-1.94-1.67A1.89,1.89,0,0,0,232.37,251.35Z" style="fill:#263238"></path><path d="M298.38,239.9h-21.1a5,5,0,0,0-5,4.95v10.27a5,5,0,0,0,5,5h5.52l4.17,9.47,5.89-9.47h5.52a5,5,0,0,0,5-5V244.85A5,5,0,0,0,298.38,239.9Z" style="fill:#fff;stroke:#263238;stroke-linecap:round;stroke-linejoin:round"></path><path d="M282.12,247.5v.41H284v1.29h-1.84v5.52h-1.6V249.2h-1.13v-1.29h1.13v-.43A2.22,2.22,0,0,1,283,245.1a2.54,2.54,0,0,1,1.45.37l-.45,1.21a1.54,1.54,0,0,0-.88-.28C282.47,246.4,282.12,246.77,282.12,247.5Z" style="fill:#263238"></path><path d="M284.42,251.29a3.66,3.66,0,1,1,3.65,3.52A3.46,3.46,0,0,1,284.42,251.29Zm5.69,0a2,2,0,1,0-2,2.15A2,2,0,0,0,290.11,251.29Z" style="fill:#263238"></path><path d="M297.23,247.78v1.53a2.6,2.6,0,0,0-.37,0,1.87,1.87,0,0,0-2,2.12v3.33h-1.61v-6.86h1.53v1A2.71,2.71,0,0,1,297.23,247.78Z" style="fill:#263238"></path><path d="M359.74,239.07h-21.1a5,5,0,0,0-5,5v10.26a5,5,0,0,0,5,5h5.52l4.17,9.47,5.89-9.47h5.52a5,5,0,0,0,5-5V244A5,5,0,0,0,359.74,239.07Z" style="fill:#fff;stroke:#263238;stroke-linecap:round;stroke-linejoin:round"></path><path d="M346.45,246.69h5.92V248h-5.92Zm0,3.11h5.92v1.29h-5.92Z" style="fill:#263238"></path><path d="M204.06,227.19H183a5,5,0,0,0-5,5v10.26a5,5,0,0,0,5,5h5.52l4.17,9.47,5.89-9.47h5.52a5,5,0,0,0,5-5V232.15A5,5,0,0,0,204.06,227.19Z" style="fill:#fff;stroke:#263238;stroke-linecap:round;stroke-linejoin:round"></path><path d="M188.55,231.45h3.07v1.29h-1.47v9.45h1.47v1.29h-3.07Z" style="fill:#263238"></path><path d="M195.6,243.48v-1.29h1.45v-9.45H195.6v-1.29h3.05v12Z" style="fill:#263238"></path><path d="M266.78,226.14h-21.1a5,5,0,0,0-5,5v10.26a5,5,0,0,0,5,5h5.52l4.18,9.47,5.89-9.47h5.51a5,5,0,0,0,5-5V231.1A5,5,0,0,0,266.78,226.14Z" style="fill:#fff;stroke:#263238;stroke-linecap:round;stroke-linejoin:round"></path><path d="M251.94,236.38c.51.16.76.51.76,1.31v2.44a.86.86,0,0,0,1,1h.27v1.29h-.65a1.91,1.91,0,0,1-2.18-2.1v-2.64c0-.43-.22-.62-.58-.62h-.42v-1.31h.42c.36,0,.58-.19.58-.62v-2.64a1.91,1.91,0,0,1,2.18-2.1h.65v1.29h-.27a.86.86,0,0,0-1,1v2.44C252.7,235.86,252.45,236.21,251.94,236.38Z" style="fill:#263238"></path><path d="M261.74,235.72V237h-.44c-.35,0-.57.19-.57.62v2.64a1.91,1.91,0,0,1-2.19,2.1h-.65V241.1h.27a.87.87,0,0,0,1-1v-2.44c0-.8.23-1.15.74-1.31-.51-.17-.74-.52-.74-1.32v-2.44a.87.87,0,0,0-1-1h-.27v-1.29h.65a1.91,1.91,0,0,1,2.19,2.1v2.64c0,.43.22.62.57.62Z" style="fill:#263238"></path><path d="M328.84,224.06h-21.1a5,5,0,0,0-5,5v10.26a5,5,0,0,0,5,5h5.51l4.18,9.47,5.89-9.47h5.52a5,5,0,0,0,5-5V229A5,5,0,0,0,328.84,224.06Z" style="fill:#fff;stroke:#263238;stroke-linecap:round;stroke-linejoin:round"></path><path d="M317.45,231.66a1.06,1.06,0,1,1,2.11,0,1.06,1.06,0,1,1-2.11,0Zm2.11,4.89a3,3,0,0,1-.3,1.11l-.66,1.81h-1l.52-2a1,1,0,0,1-.61-.95,1,1,0,1,1,2.09,0Z" style="fill:#263238"></path><path d="M246.36,403.5h21.09a5,5,0,0,0,5-5V388.28a5,5,0,0,0-5-5h-5.51l-1.61-9.47-8.46,9.47h-5.51a5,5,0,0,0-5,5v10.26A5,5,0,0,0,246.36,403.5Z" style="fill:#fff;stroke:#263238;stroke-linecap:round;stroke-linejoin:round"></path><path d="M253.77,391.3,249.34,393l4.43,1.65V396l-5.92-2.3v-1.39l5.92-2.3Z" style="fill:#263238"></path><path d="M258.45,386.63h1.43l-4.24,12.11h-1.43Z" style="fill:#263238"></path><path d="M266.11,392.26v1.39l-5.92,2.3v-1.34l4.43-1.65-4.43-1.66V390Z" style="fill:#263238"></path><path d="M112.24,328.75h21.09a5,5,0,0,0,5-4.95V313.53a5,5,0,0,0-5-5h-5.51l1.2-9.47-11.27,9.47h-5.51a5,5,0,0,0-5,5V323.8A5,5,0,0,0,112.24,328.75Z" style="fill:#fff;stroke:#263238;stroke-linecap:round;stroke-linejoin:round"></path><path d="M118.49,322.25a1,1,0,0,1,1-1,1,1,0,0,1,1,1,1,1,0,0,1-1,1A1,1,0,0,1,118.49,322.25Zm.09-8.09h1.9l-.32,6h-1.27Z" style="fill:#263238"></path><path d="M122.14,316.46h5.92v1.29h-5.92Zm0,3.11h5.92v1.29h-5.92Z" style="fill:#263238"></path></g><g id="freepik--Mouse--inject-4"><path d="M450,317.12a71.82,71.82,0,0,1-1,11.86c-2.9,17.31-12,29.93-22.76,29.93a13.68,13.68,0,0,1-2.86-.3c-11.75-2.49-20.86-20.11-20.86-41.49,0-23.08,10.62-31.25,23.72-31.25S450,294,450,317.12Z" style="fill:#fff"></path><g style="clip-path:url(#freepik--clip-path-3--inject-4)"><path d="M441.43,317.38c.88,12.38-1.24,24.82-4.81,36.71,8.94-7.34,13.05-18.88,16.77-29.83,2.7-7.95,5.43-16.15,4.94-24.53s-5-17.11-12.84-20a17.13,17.13,0,0,0-12.13.19c-6.59,2.65-3,4.79-.21,9.53A64.6,64.6,0,0,1,441.43,317.38Z" style="fill:#FB923B"></path><path d="M441.43,317.38c.88,12.38-1.24,24.82-4.81,36.71,8.94-7.34,13.05-18.88,16.77-29.83,2.7-7.95,5.43-16.15,4.94-24.53s-5-17.11-12.84-20a17.13,17.13,0,0,0-12.13.19c-6.59,2.65-3,4.79-.21,9.53A64.6,64.6,0,0,1,441.43,317.38Z" style="fill:#fff;opacity:0.5"></path></g><path d="M450,317.12a71.82,71.82,0,0,1-1,11.86c-2.9,17.31-12,29.93-22.76,29.93a13.68,13.68,0,0,1-2.86-.3c-11.75-2.49-20.86-20.11-20.86-41.49,0-23.08,10.62-31.25,23.72-31.25S450,294,450,317.12Z" style="fill:none;stroke:#263238;stroke-miterlimit:10"></path><path d="M439.05,338.35a41,41,0,0,1-7.79,14.6" style="fill:#fff;stroke:#263238;stroke-miterlimit:10"></path><path d="M439.8,335.45c-.12.56-.26,1.12-.41,1.68" style="fill:none;stroke:#263238;stroke-miterlimit:10"></path><path d="M439.74,317.06a40.77,40.77,0,0,1,.47,16.28" style="fill:#fff;stroke:#263238;stroke-miterlimit:10"></path><path d="M402.57,317.12s27-10.66,47.46,0" style="fill:none;stroke:#263238;stroke-miterlimit:10"></path><path d="M426.3,285.87s2.7,10,3,26.27" style="fill:#fff;stroke:#263238;stroke-miterlimit:10"></path><path d="M430.07,298c.34,3.11-.2,5.75-1.21,5.91s-2.11-2.23-2.45-5.33.19-5.76,1.2-5.92S429.72,294.93,430.07,298Z" style="fill:#bfbfbf;stroke:#263238;stroke-linecap:round;stroke-linejoin:round"></path><path d="M415.66,366.91H384a7.75,7.75,0,0,1-7.69-6.71,5.33,5.33,0,0,1-.09-1.07V284.54a5.63,5.63,0,0,1,.09-1.08,7.74,7.74,0,0,1,7.69-6.7h89.72a7.66,7.66,0,0,1,3.73,1" style="fill:none;stroke:#263238;stroke-miterlimit:10"></path></g></svg>