<svg xmlns="http://www.w3.org/2000/svg" viewBox="0 0 750 500"><g id="freepik--Device--inject-3"><path d="M109.14,104.09H620a6.74,6.74,0,0,1,6.74,6.74V437a14.57,14.57,0,0,1-14.57,14.57H116A14.57,14.57,0,0,1,101.39,437V111.85A7.75,7.75,0,0,1,109.14,104.09Z" style="fill:#455a64"></path><path d="M79.42,425.83H648.63a0,0,0,0,1,0,0V442.5a13.72,13.72,0,0,1-13.72,13.72H93.14A13.72,13.72,0,0,1,79.42,442.5V425.83a0,0,0,0,1,0,0Z" style="fill:#455a64"></path><rect x="115.49" y="117.9" width="495.7" height="293.4" style="fill:#e0e0e0"></rect><polygon points="312.29 425.83 319.35 437.06 418.74 437.06 425.3 425.83 312.29 425.83" style="fill:#263238"></polygon><rect x="130.2" y="134.9" width="467.48" height="276.4" style="fill:#263238"></rect><path d="M166.07,403.18c-.24,0-.44-58.86-.44-131.46s.2-131.49.44-131.49.44,58.86.44,131.49S166.31,403.18,166.07,403.18Z" style="fill:#e0e0e0"></path><path d="M156.64,164.07c0,.24-3.4.44-7.59.44s-7.6-.2-7.6-.44,3.4-.44,7.6-.44S156.64,163.83,156.64,164.07Z" style="fill:#e0e0e0"></path><path d="M157.22,149.15c0,.24-3.4.44-7.59.44s-7.59-.2-7.59-.44,3.4-.44,7.59-.44S157.22,148.91,157.22,149.15Z" style="fill:#e0e0e0"></path><path d="M156.64,180.15c0,.24-3.4.44-7.59.44s-7.6-.2-7.6-.44,3.4-.44,7.6-.44S156.64,179.91,156.64,180.15Z" style="fill:#e0e0e0"></path><path d="M156.64,196.23c0,.25-3.4.44-7.59.44s-7.6-.19-7.6-.44,3.4-.43,7.6-.43S156.64,196,156.64,196.23Z" style="fill:#e0e0e0"></path><path d="M156.64,212.32c0,.24-3.4.44-7.59.44s-7.6-.2-7.6-.44,3.4-.44,7.6-.44S156.64,212.07,156.64,212.32Z" style="fill:#e0e0e0"></path><path d="M156.64,228.4c0,.24-3.4.44-7.59.44s-7.6-.2-7.6-.44,3.4-.44,7.6-.44S156.64,228.16,156.64,228.4Z" style="fill:#e0e0e0"></path><path d="M156.64,244.48c0,.24-3.4.44-7.59.44s-7.6-.2-7.6-.44,3.4-.44,7.6-.44S156.64,244.24,156.64,244.48Z" style="fill:#e0e0e0"></path><path d="M156.64,260.56c0,.25-3.4.44-7.59.44s-7.6-.19-7.6-.44,3.4-.43,7.6-.43S156.64,260.32,156.64,260.56Z" style="fill:#e0e0e0"></path><path d="M156.64,276.65c0,.24-3.4.43-7.59.43s-7.6-.19-7.6-.43,3.4-.44,7.6-.44S156.64,276.4,156.64,276.65Z" style="fill:#e0e0e0"></path><path d="M156.64,292.73c0,.24-3.4.44-7.59.44s-7.6-.2-7.6-.44,3.4-.44,7.6-.44S156.64,292.49,156.64,292.73Z" style="fill:#e0e0e0"></path><path d="M156.64,308.81c0,.24-3.4.44-7.59.44s-7.6-.2-7.6-.44,3.4-.44,7.6-.44S156.64,308.57,156.64,308.81Z" style="fill:#e0e0e0"></path><path d="M156.64,324.89c0,.25-3.4.44-7.59.44s-7.6-.19-7.6-.44,3.4-.43,7.6-.43S156.64,324.65,156.64,324.89Z" style="fill:#e0e0e0"></path><path d="M156.64,341c0,.24-3.4.43-7.59.43s-7.6-.19-7.6-.43,3.4-.44,7.6-.44S156.64,340.73,156.64,341Z" style="fill:#e0e0e0"></path><path d="M156.64,357.06c0,.24-3.4.44-7.59.44s-7.6-.2-7.6-.44,3.4-.44,7.6-.44S156.64,356.82,156.64,357.06Z" style="fill:#e0e0e0"></path><path d="M156.64,373.14c0,.24-3.4.44-7.59.44s-7.6-.2-7.6-.44,3.4-.44,7.6-.44S156.64,372.9,156.64,373.14Z" style="fill:#e0e0e0"></path><path d="M156.64,389.22c0,.25-3.4.44-7.59.44s-7.6-.19-7.6-.44,3.4-.44,7.6-.44S156.64,389,156.64,389.22Z" style="fill:#e0e0e0"></path><path d="M217.51,163.12c0,.24-8.82.44-19.7.44s-19.71-.2-19.71-.44,8.82-.44,19.71-.44S217.51,162.88,217.51,163.12Z" style="fill:#9A9A9A"></path><path d="M217.51,389.22c0,.25-8.82.44-19.7.44s-19.71-.19-19.71-.44,8.82-.44,19.71-.44S217.51,389,217.51,389.22Z" style="fill:#9A9A9A"></path><path d="M272.4,196.23c0,.25-16.51.44-36.87.44s-36.87-.19-36.87-.44,16.5-.43,36.87-.43S272.4,196,272.4,196.23Z" style="fill:#9A9A9A"></path><path d="M357.68,196.23c0,.25-16.51.44-36.87.44s-36.88-.19-36.88-.44,16.51-.43,36.88-.43S357.68,196,357.68,196.23Z" style="fill:#e0e0e0"></path><path d="M325.09,212.32c0,.24-24.33.44-54.34.44s-54.34-.2-54.34-.44,24.32-.44,54.34-.44S325.09,212.07,325.09,212.32Z" style="fill:#e0e0e0"></path><path d="M325.09,228.4c0,.24-24.33.44-54.34.44s-54.34-.2-54.34-.44,24.32-.44,54.34-.44S325.09,228.16,325.09,228.4Z" style="fill:#e0e0e0"></path><path d="M399.9,276.65c0,.24-24.34.43-54.34.43s-54.35-.19-54.35-.43,24.33-.44,54.35-.44S399.9,276.4,399.9,276.65Z" style="fill:#e0e0e0"></path><path d="M367.61,244.48c0,.24-24.33.44-54.33.44s-54.35-.2-54.35-.44,24.33-.44,54.35-.44S367.61,244.24,367.61,244.48Z" style="fill:#e0e0e0"></path><path d="M500.42,244.48c0,.24-24.33.44-54.33.44s-54.35-.2-54.35-.44,24.33-.44,54.35-.44S500.42,244.24,500.42,244.48Z" style="fill:#e0e0e0"></path><path d="M454.24,212.32c0,.24-24.34.44-54.34.44s-54.34-.2-54.34-.44,24.32-.44,54.34-.44S454.24,212.07,454.24,212.32Z" style="fill:#fafafa"></path><path d="M529.31,276.65c0,.24-24.33.43-54.34.43s-54.34-.19-54.34-.43,24.32-.44,54.34-.44S529.31,276.4,529.31,276.65Z" style="fill:#fafafa"></path><path d="M514.32,228.4c0,.24-37.78.44-84.38.44s-84.38-.2-84.38-.44,37.77-.44,84.38-.44S514.32,228.16,514.32,228.4Z" style="fill:#455a64"></path><path d="M217.51,180.15c0,.24-8.82.44-19.7.44s-19.71-.2-19.71-.44,8.82-.44,19.71-.44S217.51,179.91,217.51,180.15Z" style="fill:#fafafa"></path><path d="M217.51,373.14c0,.24-8.82.44-19.7.44s-19.71-.2-19.71-.44,8.82-.44,19.71-.44S217.51,372.9,217.51,373.14Z" style="fill:#fafafa"></path><path d="M237,244.48c0,.24-8.82.44-19.71.44s-19.71-.2-19.71-.44,8.83-.44,19.71-.44S237,244.24,237,244.48Z" style="fill:#fafafa"></path><path d="M552.93,244.48c0,.24-8.82.44-19.7.44s-19.71-.2-19.71-.44,8.82-.44,19.71-.44S552.93,244.24,552.93,244.48Z" style="fill:#9A9A9A"></path><path d="M272.4,308.72c0,.24-16.51.44-36.87.44s-36.87-.2-36.87-.44,16.5-.44,36.87-.44S272.4,308.47,272.4,308.72Z" style="fill:#9A9A9A"></path><path d="M357.68,308.72c0,.24-16.51.44-36.87.44s-36.88-.2-36.88-.44,16.51-.44,36.88-.44S357.68,308.47,357.68,308.72Z" style="fill:#e0e0e0"></path><path d="M325.09,324.8c0,.24-24.33.44-54.34.44s-54.34-.2-54.34-.44,24.32-.44,54.34-.44S325.09,324.56,325.09,324.8Z" style="fill:#e0e0e0"></path><path d="M325.09,340.88c0,.24-24.33.44-54.34.44s-54.34-.2-54.34-.44,24.32-.44,54.34-.44S325.09,340.64,325.09,340.88Z" style="fill:#e0e0e0"></path><path d="M367.61,357c0,.25-24.33.44-54.33.44s-54.35-.19-54.35-.44,24.33-.43,54.35-.43S367.61,356.72,367.61,357Z" style="fill:#e0e0e0"></path><path d="M500.42,357c0,.25-24.33.44-54.33.44s-54.35-.19-54.35-.44,24.33-.43,54.35-.43S500.42,356.72,500.42,357Z" style="fill:#e0e0e0"></path><path d="M454.24,324.8c0,.24-24.34.44-54.34.44s-54.34-.2-54.34-.44,24.32-.44,54.34-.44S454.24,324.56,454.24,324.8Z" style="fill:#fafafa"></path><path d="M514.32,340.88c0,.24-37.78.44-84.38.44s-84.38-.2-84.38-.44,37.77-.44,84.38-.44S514.32,340.64,514.32,340.88Z" style="fill:#455a64"></path><path d="M237,357c0,.25-8.82.44-19.71.44s-19.71-.19-19.71-.44,8.83-.43,19.71-.43S237,356.72,237,357Z" style="fill:#fafafa"></path><path d="M552.93,357c0,.25-8.82.44-19.7.44s-19.71-.19-19.71-.44,8.82-.43,19.71-.43S552.93,356.72,552.93,357Z" style="fill:#9A9A9A"></path><path d="M563.44,436c0,.14-100.64.26-224.76.26S113.9,436.12,113.9,436s100.62-.26,224.78-.26S563.44,435.84,563.44,436Z" style="fill:#263238"></path></g><g id="freepik--Floor--inject-3"><path d="M709.46,456.48c0,.15-152.44.27-340.44.27s-340.48-.12-340.48-.27S181,456.22,369,456.22,709.46,456.34,709.46,456.48Z" style="fill:#263238"></path></g><g id="freepik--speech-bubbles--inject-3"><polygon points="616.04 76.13 348.05 76.13 348.05 242.09 573.65 242.09 587.62 274.22 600 242.09 616.04 242.09 616.04 76.13" style="fill:#fafafa"></polygon><path d="M616,76.12c0,1.61.07,64,.2,166v.2H600l.19-.13c-3.87,10.07-8.05,20.92-12.37,32.13l-.19.51-.22-.5c-4.38-10.06-9.11-20.95-14-32.13l.21.14-204,0H347.79v-.26c0-59.15,0-115.28,0-166v-.23h.24l268,.23-268,.24.24-.24c0,50.69,0,106.82,0,166l-.26-.26h21.58l204,0h.15l.06.14,14,32.14h-.41L599.81,242l.05-.14H616l-.2.2C616,140.08,616,77.73,616,76.12Z" style="fill:#263238"></path><path d="M615.9,92.32c0,.2-59.88.37-133.72.37s-133.73-.17-133.73-.37S408.32,92,482.18,92,615.9,92.12,615.9,92.32Z" style="fill:#263238"></path><path d="M362.29,85a2.2,2.2,0,1,1-2.19-2.2A2.2,2.2,0,0,1,362.29,85Z" style="fill:#263238"></path><path d="M370.24,85a2.2,2.2,0,1,1-2.19-2.2A2.2,2.2,0,0,1,370.24,85Z" style="fill:#263238"></path><path d="M378.19,85a2.2,2.2,0,1,1-2.2-2.2A2.2,2.2,0,0,1,378.19,85Z" style="fill:#263238"></path><path d="M377.28,122l-6.36,2.46,6.36,2.45v1.49l-8-3.17V123.7l8-3.18Z" style="fill:#263238"></path><path d="M383.9,115.65h1.56l-5.92,16.88H378Z" style="fill:#263238"></path><path d="M394,123.7v1.54l-8,3.17v-1.49l6.38-2.45L386,122v-1.49Z" style="fill:#263238"></path><path d="M396.06,129.61a1.2,1.2,0,0,1,1.22-1.22,1.18,1.18,0,0,1,1.19,1.22,1.2,1.2,0,0,1-1.19,1.24A1.22,1.22,0,0,1,396.06,129.61Z" style="fill:#263238"></path><path d="M400.14,129.61a1.19,1.19,0,0,1,1.22-1.22,1.18,1.18,0,0,1,1.18,1.22,1.2,1.2,0,0,1-1.18,1.24A1.21,1.21,0,0,1,400.14,129.61Z" style="fill:#263238"></path><path d="M404.21,129.61a1.19,1.19,0,0,1,1.22-1.22,1.18,1.18,0,0,1,1.18,1.22,1.2,1.2,0,0,1-1.18,1.24A1.21,1.21,0,0,1,404.21,129.61Z" style="fill:#263238"></path><path d="M546.5,145.71c0,.2-39.61.36-88.47.36s-88.48-.16-88.48-.36,39.61-.37,88.48-.37S546.5,145.5,546.5,145.71Z" style="fill:#455a64"></path><path d="M575.4,146.23c0,.2-3.8.37-8.5.37s-8.5-.17-8.5-.37,3.81-.37,8.5-.37S575.4,146,575.4,146.23Z" style="fill:#263238"></path><path d="M600.25,146.23c0,.2-4.16.37-9.28.37s-9.29-.17-9.29-.37,4.16-.37,9.29-.37S600.25,146,600.25,146.23Z" style="fill:#263238"></path><path d="M482.23,160.62c0,.2-25.18.36-56.24.36s-56.23-.16-56.23-.36,25.17-.37,56.23-.37S482.23,160.41,482.23,160.62Z" style="fill:#455a64"></path><path d="M481.42,216.25c0,.2-25.18.36-56.23.36s-56.24-.16-56.24-.36,25.18-.37,56.24-.37S481.42,216.05,481.42,216.25Z" style="fill:#455a64"></path><path d="M523.09,160.62c0,.2-6.85.36-15.3.36s-15.3-.16-15.3-.36,6.85-.37,15.3-.37S523.09,160.41,523.09,160.62Z" style="fill:#263238"></path><path d="M522.77,216.25c0,.2-6.85.36-15.3.36s-15.3-.16-15.3-.36,6.85-.37,15.3-.37S522.77,216.05,522.77,216.25Z" style="fill:#263238"></path><path d="M377.14,168.2c0,.2-1.7.37-3.8.37s-3.79-.17-3.79-.37,1.7-.36,3.79-.36S377.14,168,377.14,168.2Z" style="fill:#9A9A9A"></path><path d="M403.29,168.36c0,.2-3.69.36-8.24.36s-8.24-.16-8.24-.36,3.69-.37,8.24-.37S403.29,168.16,403.29,168.36Z" style="fill:#263238"></path><path d="M420,168.36c0,.2-3.16.36-7.06.36s-7.06-.16-7.06-.36,3.16-.37,7.06-.37S420,168.16,420,168.36Z" style="fill:#263238"></path><path d="M441.22,168.36c0,.2-3.22.36-7.19.36s-7.2-.16-7.2-.36,3.22-.37,7.2-.37S441.22,168.16,441.22,168.36Z" style="fill:#263238"></path><path d="M459.79,168.36c0,.2-2.93.36-6.54.36s-6.54-.16-6.54-.36,2.93-.37,6.54-.37S459.79,168.16,459.79,168.36Z" style="fill:#263238"></path><path d="M521.26,168.36c0,.2-12.88.36-28.77.36s-28.78-.16-28.78-.36,12.88-.37,28.78-.37S521.26,168.16,521.26,168.36Z" style="fill:#263238"></path><path d="M376.09,177.88c0,.2-1.46.37-3.27.37s-3.27-.17-3.27-.37,1.46-.37,3.27-.37S376.09,177.68,376.09,177.88Z" style="fill:#9A9A9A"></path><path d="M376.35,187.82c0,.2-1.52.37-3.4.37s-3.4-.17-3.4-.37,1.52-.37,3.4-.37S376.35,187.62,376.35,187.82Z" style="fill:#9A9A9A"></path><path d="M376.35,199.07c0,.2-1.52.36-3.4.36s-3.4-.16-3.4-.36,1.52-.37,3.4-.37S376.35,198.86,376.35,199.07Z" style="fill:#9A9A9A"></path><path d="M438.34,198.54c0,.21-11.36.37-25.37.37s-25.37-.16-25.37-.37,11.36-.36,25.37-.36S438.34,198.34,438.34,198.54Z" style="fill:#263238"></path><path d="M433.9,187.82c0,.2-10.84.37-24.2.37s-24.19-.17-24.19-.37,10.83-.37,24.19-.37S433.9,187.62,433.9,187.82Z" style="fill:#263238"></path><path d="M550.82,177.36c0,.2-36.9.36-82.39.36s-82.4-.16-82.4-.36,36.88-.37,82.4-.37S550.82,177.15,550.82,177.36Z" style="fill:#263238"></path><polygon points="632.5 144 632.5 285.04 610.57 303.33 632.5 303.33 634.66 303.33 725.26 303.33 725.26 144 632.5 144" style="fill:#fafafa"></polygon><path d="M632.5,144s.55,0,1.62,0l4.8,0,18.47,0,67.87-.1h.2v.2c0,42.57,0,98.17.06,159.33v.26H709.18l-98.61,0h-.66l.51-.43,21.94-18.29-.09.18c.05-42.17.09-77.45.12-102.2,0-12.35.05-22.07.06-28.71,0-3.3,0-5.83,0-7.56,0-.84,0-1.49,0-1.93s0-.64,0-.64,0,.23,0,.67,0,1.1,0,2c0,1.73,0,4.28,0,7.6,0,6.65,0,16.39.06,28.75,0,24.72.06,60,.11,102.06v.1l-.08.07-21.92,18.31-.16-.43,98.61,0h16.08l-.26.26c0-61.16,0-116.76.06-159.33l.2.19-67.75-.1L639,144l-4.84,0Z" style="fill:#263238"></path><path d="M640.93,151a1.88,1.88,0,1,1-1.88-1.88A1.88,1.88,0,0,1,640.93,151Z" style="fill:#263238"></path><path d="M647.73,151a1.88,1.88,0,1,1-1.88-1.88A1.88,1.88,0,0,1,647.73,151Z" style="fill:#263238"></path><path d="M654.53,151a1.88,1.88,0,1,1-1.88-1.88A1.88,1.88,0,0,1,654.53,151Z" style="fill:#263238"></path><path d="M699.76,194.47c0,.17-11.76.3-26.26.3s-26.26-.13-26.26-.3,11.75-.3,26.26-.3S699.76,194.3,699.76,194.47Z" style="fill:#9A9A9A"></path><path d="M710.72,207.23c0,.16-14.31.3-32,.3s-32-.14-32-.3,14.31-.3,32-.3S710.72,207.06,710.72,207.23Z" style="fill:#9A9A9A"></path><path d="M713.32,254.83c0,.17-15.26.3-34.08.3s-34.08-.13-34.08-.3,15.26-.3,34.08-.3S713.32,254.67,713.32,254.83Z" style="fill:#9A9A9A"></path><path d="M652.16,213.72a17.7,17.7,0,0,1-6.49,0,17.7,17.7,0,0,1,6.49,0Z" style="fill:#9A9A9A"></path><path d="M674.55,213.85c0,.17-3.16.3-7,.3s-7-.13-7-.3a83,83,0,0,1,14.1,0Z" style="fill:#9A9A9A"></path><path d="M688.87,213.85c0,.17-2.7.3-6,.3s-6.05-.13-6.05-.3a61.05,61.05,0,0,1,12.09,0Z" style="fill:#9A9A9A"></path><path d="M651.27,222a13.22,13.22,0,0,1-5.6,0,13.22,13.22,0,0,1,5.6,0Z" style="fill:#9A9A9A"></path><path d="M651.49,230.51a14.26,14.26,0,0,1-5.82,0,13.81,13.81,0,0,1,5.82,0Z" style="fill:#9A9A9A"></path><path d="M651.49,240.13a14.26,14.26,0,0,1-5.82,0,14.26,14.26,0,0,1,5.82,0Z" style="fill:#9A9A9A"></path><path d="M704.54,239.68c0,.17-9.72.3-21.71.3s-21.71-.13-21.71-.3,9.72-.3,21.71-.3S704.54,239.52,704.54,239.68Z" style="fill:#9A9A9A"></path><path d="M700.73,230.51c0,.16-9.27.3-20.7.3s-20.7-.14-20.7-.3,9.26-.31,20.7-.31S700.73,230.34,700.73,230.51Z" style="fill:#9A9A9A"></path><path d="M655.73,267.54a14.26,14.26,0,0,1-5.82,0,14.26,14.26,0,0,1,5.82,0Z" style="fill:#9A9A9A"></path><path d="M655.73,277.17a14.26,14.26,0,0,1-5.82,0,13.81,13.81,0,0,1,5.82,0Z" style="fill:#9A9A9A"></path><path d="M708.78,276.72c0,.16-9.72.3-21.71.3s-21.71-.14-21.71-.3,9.71-.3,21.71-.3S708.78,276.55,708.78,276.72Z" style="fill:#9A9A9A"></path><path d="M705,267.54c0,.17-9.27.3-20.7.3s-20.71-.13-20.71-.3,9.27-.3,20.71-.3S705,267.37,705,267.54Z" style="fill:#9A9A9A"></path><path d="M716.13,221.55c0,.17-12.62.3-28.18.3s-28.18-.13-28.18-.3,12.62-.3,28.18-.3S716.13,221.39,716.13,221.55Z" style="fill:#9A9A9A"></path><path d="M724.39,158.38c0,.16-20.37.3-45.49.3s-45.49-.14-45.49-.3,20.36-.3,45.49-.3S724.39,158.21,724.39,158.38Z" style="fill:#263238"></path><path d="M666.43,186.78a154.07,154.07,0,0,1-19.22,0c0-.17,4.3-.3,9.61-.3S666.43,186.61,666.43,186.78Z" style="fill:#9A9A9A"></path><path d="M655.55,169.37c0,.17-2,.3-4.53.3s-4.53-.13-4.53-.3a34.35,34.35,0,0,1,9.06,0Z" style="fill:#9A9A9A"></path></g><g id="freepik--Character--inject-3"><path d="M575.27,374.76l20.14-19.91-35.92-61.51a34.66,34.66,0,0,0-13.78-9.59l-12.65-4.81-31.45-5.77L479.29,282a13.35,13.35,0,0,0-8.37,14l5.84,49.16,3.44,64,81.13-14.08-8.16-23.67.27-36.92Z" style="fill:#9A9A9A"></path><path d="M553.91,369.82c.19,0,.24-12.79.11-28.56s-.38-28.56-.57-28.56-.24,12.79-.11,28.56S553.72,369.82,553.91,369.82Z" style="fill:#263238"></path><path d="M550.94,379.2l-49-19.73a11.23,11.23,0,0,1-7-9.54l-3.58-47s.42-20-12.06-21l-7.11,2.79C463,289.64,460.73,303,462,313.32c1.77,14.66,2.51,35.41,4.5,48.14,1.63,10.41,7.88,18.64,17.78,22.25l60.38,13.07Z" style="fill:#9A9A9A"></path><path d="M492.05,310.1a7.87,7.87,0,0,1,.15,1.07c.08.77.19,1.8.32,3.1.25,2.75.6,6.63,1,11.4s.9,10.56,1.45,16.91c.13,1.59.27,3.22.41,4.89a37.58,37.58,0,0,0,.63,5,8.35,8.35,0,0,0,2.43,4.4,16.45,16.45,0,0,0,4.53,2.81c13.51,5.85,26,10.68,35,14.07l10.74,4,2.92,1.07a5.79,5.79,0,0,1,1,.42,7.52,7.52,0,0,1-1-.29l-3-1c-2.57-.85-6.27-2.13-10.82-3.76-9.09-3.29-21.57-8-35.13-13.91a17.13,17.13,0,0,1-4.7-2.94,8.92,8.92,0,0,1-2.61-4.73,37.2,37.2,0,0,1-.62-5.12q-.21-2.5-.39-4.89c-.5-6.36-.94-12.09-1.32-16.93s-.62-8.65-.83-11.41c-.08-1.3-.14-2.34-.19-3.11A8,8,0,0,1,492.05,310.1Z" style="fill:#263238"></path><path d="M464,335.65a1.86,1.86,0,0,1,.1.63c0,.49.1,1.09.16,1.81.15,1.68.35,3.93.58,6.67s.61,6.16,1.1,9.86a94.25,94.25,0,0,0,2.22,11.91,17.56,17.56,0,0,0,2.39,5.67,32.43,32.43,0,0,0,3.66,4.5,31.28,31.28,0,0,0,7.85,5.89,29.56,29.56,0,0,0,8.61,2.82,2.85,2.85,0,0,1-.64,0,13.08,13.08,0,0,1-1.82-.23A24.1,24.1,0,0,1,481.8,383a30.88,30.88,0,0,1-8.06-5.87,31.8,31.8,0,0,1-3.76-4.57,18.16,18.16,0,0,1-2.5-5.86,89.82,89.82,0,0,1-2.18-12c-.45-3.72-.75-7.08-1-9.9s-.31-5.11-.37-6.69c0-.73,0-1.33,0-1.83A2.58,2.58,0,0,1,464,335.65Z" style="fill:#263238"></path><path d="M484.93,368.54a7.13,7.13,0,0,1,.89-2.62,16.81,16.81,0,0,1,9.94-8.49,7.15,7.15,0,0,1,2.72-.47c0,.11-1,.31-2.56.91a19.59,19.59,0,0,0-5.56,3.3,19.29,19.29,0,0,0-4.13,5C485.39,367.59,485,368.57,484.93,368.54Z" style="fill:#263238"></path><g style="opacity:0.30000000000000004"><path d="M536.85,373.6c-5.24-3-10.37-5.24-15.85-7.73s-10.85-5.69-14.43-10.52c-6.77-9.12-6-22.28-12.92-31.28L495,342.22c.42,5.55-.43,11,3.14,14.8,3,3.17,8.88,5.61,13,7,8.35,2.75,17.34,6.84,25.68,9.6"></path></g><polygon points="553.45 316.16 557.69 342.32 553.68 334.91 553.45 316.16" style="opacity:0.30000000000000004"></polygon><path d="M490.57,300a4.25,4.25,0,0,1-1.13.09l-3.1.08c-2.61.07-6.21.2-10.18.48s-7.55.67-10.15,1l-3.07.36a5.6,5.6,0,0,1-1.13.08,4,4,0,0,1,1.1-.28c.72-.15,1.76-.33,3-.53,2.59-.4,6.18-.84,10.16-1.13s7.6-.36,10.22-.33c1.31,0,2.37.05,3.1.09A5.46,5.46,0,0,1,490.57,300Z" style="fill:#455a64"></path><path d="M492,325.06c0,.14-6.42.79-14.35,1.44s-14.39,1.08-14.4.93,6.41-.79,14.35-1.45S492,324.91,492,325.06Z" style="fill:#455a64"></path><path d="M494.33,351.37a5.35,5.35,0,0,1-1,.58c-.67.35-1.65.81-2.9,1.33A59.94,59.94,0,0,1,470,357.86c-1.35.06-2.44.06-3.19,0a4.39,4.39,0,0,1-1.16-.09,5.73,5.73,0,0,1,1.16-.11c.75,0,1.83-.09,3.17-.2A73.76,73.76,0,0,0,480.28,356a72.85,72.85,0,0,0,10-3c1.25-.48,2.26-.88,3-1.17A5,5,0,0,1,494.33,351.37Z" style="fill:#455a64"></path><path d="M511.76,364.87a25.72,25.72,0,0,0-4.86,3.9,27.16,27.16,0,0,0-3.39,5.23,5,5,0,0,1,.54-1.79,14.27,14.27,0,0,1,6-6.62A4.63,4.63,0,0,1,511.76,364.87Z" style="fill:#455a64"></path><path d="M529.49,382.19a19.05,19.05,0,0,1,5.24-9.56c.12.1-1.42,2-2.86,4.65S529.64,382.24,529.49,382.19Z" style="fill:#455a64"></path><path d="M501.55,285.3a49.44,49.44,0,0,1-6.93,1.52,48.7,48.7,0,0,1-7,1,47.4,47.4,0,0,1,6.93-1.52A48.7,48.7,0,0,1,501.55,285.3Z" style="fill:#455a64"></path><path d="M548.48,287.44a90.29,90.29,0,0,1-9.62-.88,87.75,87.75,0,0,1-9.55-1.4,93.55,93.55,0,0,1,9.62.88A90.79,90.79,0,0,1,548.48,287.44Z" style="fill:#455a64"></path><path d="M552.48,309.26a2.07,2.07,0,0,1-.61,0l-1.76,0h-6.47c-5.46,0-13,0-21.33.25s-15.86.56-21.32.85l-6.46.34-1.75.07a2.09,2.09,0,0,1-.62,0,3.38,3.38,0,0,1,.61-.09l1.75-.18c1.52-.14,3.72-.31,6.45-.5,5.45-.38,13-.78,21.33-1s15.88-.2,21.35-.1c2.73.05,4.94.11,6.46.18l1.76.08A3.27,3.27,0,0,1,552.48,309.26Z" style="fill:#455a64"></path><path d="M553.06,336.91c0,.14-12.85,1.1-28.72,2.15s-28.75,1.77-28.76,1.63,12.85-1.11,28.72-2.15S553.05,336.76,553.06,336.91Z" style="fill:#455a64"></path><path d="M551.69,361.26a5.76,5.76,0,0,1-1.08.46c-.71.27-1.74.62-3,1-2.57.84-6.16,1.89-10.17,2.86s-7.68,1.66-10.35,2.07c-1.34.22-2.42.37-3.17.45a6.08,6.08,0,0,1-1.18.08,5.34,5.34,0,0,1,1.15-.28l3.13-.61c2.65-.51,6.3-1.26,10.3-2.22s7.59-1.95,10.18-2.7l3.07-.89A4.64,4.64,0,0,1,551.69,361.26Z" style="fill:#455a64"></path><path d="M572.26,317.12a89.43,89.43,0,0,1-9.34,2.68,91.06,91.06,0,0,1-9.47,2.18,91.28,91.28,0,0,1,9.34-2.68A88.66,88.66,0,0,1,572.26,317.12Z" style="fill:#455a64"></path><path d="M562.45,298.43a17.11,17.11,0,0,1-4.13,1,17.61,17.61,0,0,1-4.24.5,18,18,0,0,1,4.14-1A17.55,17.55,0,0,1,562.45,298.43Z" style="fill:#455a64"></path><path d="M492.2,304.23c-.1,0-.26-1.66-1.17-4.17a21.11,21.11,0,0,0-14.86-13.36c-2.6-.64-4.29-.61-4.28-.71a4.38,4.38,0,0,1,1.18-.05,18.31,18.31,0,0,1,3.18.41,20.34,20.34,0,0,1,15.12,13.59,17.14,17.14,0,0,1,.74,3.12A4.3,4.3,0,0,1,492.2,304.23Z" style="fill:#263238"></path><path d="M550.6,290.9a80.32,80.32,0,0,1,1.73,9.14,80.84,80.84,0,0,1,1.21,9.23,84.48,84.48,0,0,1-1.72-9.15A82.68,82.68,0,0,1,550.6,290.9Z" style="fill:#263238"></path><path d="M605.24,438.29s37.68,10.42,39.19,11c2.27.8,1.89,9.11-1.64,9-1.67-.06-28.94,1-32.39.8s-13.84-4.31-13.84-4.31Z" style="fill:#9A9A9A"></path><path d="M620.94,452.66c.19,0,.44-2,1.66-4s2.78-3.32,2.66-3.47-1.94.92-3.21,3.15S620.78,452.68,620.94,452.66Z" style="fill:#263238"></path><path d="M617,450.88c.18,0,.56-1.75,1.57-3.72s2.19-3.34,2-3.47a7.18,7.18,0,0,0-2.62,3.19C617,449,616.85,450.87,617,450.88Z" style="fill:#263238"></path><path d="M613.32,449.9c.19,0,0-1.9.88-4s2.19-3.38,2.06-3.52-1.77,1-2.64,3.3S613.17,450,613.32,449.9Z" style="fill:#263238"></path><path d="M614,445a6.72,6.72,0,0,0,.41-2.81,13.56,13.56,0,0,0-.39-3.07,11.78,11.78,0,0,0-.56-1.75,2.09,2.09,0,0,0-.6-.92,1,1,0,0,0-1.29.06,1.67,1.67,0,0,0-.51,1.07,8.45,8.45,0,0,0,0,1,7.81,7.81,0,0,0,.23,1.85,11.43,11.43,0,0,0,1.16,2.88,7.78,7.78,0,0,0,1.69,2.27c.09-.06-.54-.94-1.3-2.48a12.81,12.81,0,0,1-1-2.8,8.64,8.64,0,0,1-.18-1.72c0-.58,0-1.3.35-1.58a.36.36,0,0,1,.5,0,1.5,1.5,0,0,1,.41.66,13.07,13.07,0,0,1,.57,1.66,14.94,14.94,0,0,1,.5,2.94C614.06,444,613.89,445,614,445Z" style="fill:#263238"></path><path d="M614,444.65a5.27,5.27,0,0,0-2.44-.4,11,11,0,0,0-2.67.33,5.82,5.82,0,0,0-1.54.57,1.6,1.6,0,0,0-.85,1.72,1.86,1.86,0,0,0,1.36,1.34,3.45,3.45,0,0,0,1.69,0A6.68,6.68,0,0,0,612,447a6.92,6.92,0,0,0,1.75-1.73,16.4,16.4,0,0,0-2,1.36,6.62,6.62,0,0,1-2.31,1,2.88,2.88,0,0,1-1.4,0,1.29,1.29,0,0,1-.92-.89,1,1,0,0,1,.56-1.06,6,6,0,0,1,1.37-.53,12.79,12.79,0,0,1,2.54-.44C613,444.6,613.93,444.75,614,444.65Z" style="fill:#263238"></path><path d="M626.73,453.07c.18,0,0-1.63.74-3.4s2-2.81,1.84-2.95-1.63.74-2.42,2.71S626.57,453.13,626.73,453.07Z" style="fill:#263238"></path><path d="M600.44,454.81a7.66,7.66,0,0,0,1.45.68,31.53,31.53,0,0,0,4.2,1.3,59.68,59.68,0,0,0,14.38,1.36c5.65-.06,10.74-.31,14.43-.46l4.36-.23a8.44,8.44,0,0,0,1.6-.17,7.29,7.29,0,0,0-1.61-.08l-4.37,0-14.41.28a67.89,67.89,0,0,1-14.29-1.16C602.58,455.62,600.48,454.69,600.44,454.81Z" style="fill:#263238"></path><path d="M599.32,455.67c0,.08,1.08-.52,2.82-1.28a13.08,13.08,0,0,1,7.13-1.19,11.31,11.31,0,0,1,6.17,3.67,22.57,22.57,0,0,0,2.17,2.22,11.68,11.68,0,0,0-1.85-2.53,15,15,0,0,0-2.49-2.33,9,9,0,0,0-3.9-1.65A12.44,12.44,0,0,0,602,454,9.84,9.84,0,0,0,599.32,455.67Z" style="fill:#263238"></path><path d="M560.65,429.54S525,452.88,523.71,453.85c-1.92,1.45.28,8.36,3.61,7.16,1.57-.56,31.49-8.89,34.71-10.14s11.88-8.31,11.88-8.31Z" style="fill:#9A9A9A"></path><path d="M550.06,448c.15,0-.48-2.09-2.39-3.81s-4-2.19-4-2,1.82.86,3.59,2.49S549.89,448.09,550.06,448Z" style="fill:#263238"></path><path d="M553.26,445.11c.15-.05-.54-1.85-2.17-3.5s-3.4-2.4-3.46-2.25,1.47,1.1,3,2.69S553.09,445.2,553.26,445.11Z" style="fill:#263238"></path><path d="M556.47,443.05c.16,0,0-2-1.56-3.92s-3.48-2.49-3.51-2.33,1.62,1,3,2.73S556.29,443.1,556.47,443.05Z" style="fill:#263238"></path><path d="M554.36,438.62c.09,0-.4-1-.81-2.67a15.59,15.59,0,0,1-.42-2.95,15,15,0,0,1,0-1.76,1.59,1.59,0,0,1,.19-.75.37.37,0,0,1,.49-.11c.41.16.62.85.81,1.4a8.08,8.08,0,0,1,.35,1.69,12.35,12.35,0,0,1-.09,3c-.25,1.69-.58,2.72-.48,2.75a7.59,7.59,0,0,0,.92-2.67,11.38,11.38,0,0,0,.23-3.1,8.16,8.16,0,0,0-.34-1.83,7.61,7.61,0,0,0-.35-.93,1.66,1.66,0,0,0-.8-.86,1,1,0,0,0-1.25.33,2.17,2.17,0,0,0-.3,1.06,14.11,14.11,0,0,0,0,1.84,12.86,12.86,0,0,0,.57,3A6.54,6.54,0,0,0,554.36,438.62Z" style="fill:#263238"></path><path d="M554.28,438.24c.05.09.88-.33,2.32-.68a12.87,12.87,0,0,1,2.55-.35,6,6,0,0,1,1.47.09,1,1,0,0,1,.85.83,1.3,1.3,0,0,1-.6,1.14,3,3,0,0,1-1.33.44,6.61,6.61,0,0,1-2.5-.25,17.91,17.91,0,0,0-2.33-.69,6.53,6.53,0,0,0,2.2,1.11,6.43,6.43,0,0,0,2.69.41,3.56,3.56,0,0,0,1.62-.51,1.89,1.89,0,0,0,.88-1.7,1.59,1.59,0,0,0-1.33-1.38,6.18,6.18,0,0,0-1.64-.07,11,11,0,0,0-2.65.5A5.46,5.46,0,0,0,554.28,438.24Z" style="fill:#263238"></path><path d="M531.86,459.71c0,.06.6-.36.88-1.38a5.25,5.25,0,0,0-.67-3.87,13.44,13.44,0,0,0-1.2-1.78,6.38,6.38,0,0,0-1.21-1.3,2.19,2.19,0,0,0-1.14-.48c-.29,0-.45.06-.44.1a3.4,3.4,0,0,1,1.3.72,8.54,8.54,0,0,1,1,1.3,20.12,20.12,0,0,1,1.12,1.74,5.56,5.56,0,0,1,.78,3.48A14.06,14.06,0,0,1,531.86,459.71Z" style="fill:#263238"></path><path d="M544.66,450.15c.17,0,.12-1.8-1.25-3.42s-3.13-2-3.14-1.84,1.44.76,2.65,2.25S544.48,450.18,544.66,450.15Z" style="fill:#263238"></path><path d="M570.24,443.82a11.36,11.36,0,0,0-1.57,1.08,45.45,45.45,0,0,1-4.39,2.69,58.48,58.48,0,0,1-7,3.11c-2.7,1-5.73,1.95-8.93,2.88-6.42,1.85-12.23,3.54-16.42,4.8l-5,1.52a10.26,10.26,0,0,0-1.79.64,11.91,11.91,0,0,0,1.86-.41l5-1.32c4.22-1.15,10-2.77,16.46-4.62,3.21-.93,6.25-1.9,9-2.95a52.78,52.78,0,0,0,7-3.26,34.3,34.3,0,0,0,4.33-2.89A9.16,9.16,0,0,0,570.24,443.82Z" style="fill:#263238"></path><path d="M571.56,444.3a9.71,9.71,0,0,0-3-.8,12.46,12.46,0,0,0-7.49.91,9,9,0,0,0-3.21,2.76,15,15,0,0,0-1.67,3,11.68,11.68,0,0,0-1,3,22.07,22.07,0,0,0,1.39-2.77c.85-1.66,2.19-4.09,4.76-5.37a13.2,13.2,0,0,1,7.16-1C570.38,444.14,571.54,444.4,571.56,444.3Z" style="fill:#263238"></path><path d="M634.77,371.16S645.46,375,645.51,387c.08,23-46.42,48.3-46.42,48.3l-61.89-41-3.88-1.57S616.86,361.31,634.77,371.16Z" style="fill:#263238"></path><path d="M568.55,415a10.06,10.06,0,0,0,1.61-1.09c1-.73,2.46-1.83,4.24-3.2,3.54-2.73,8.36-6.62,13.55-11.07s9.75-8.63,13-11.72c1.62-1.54,2.92-2.81,3.8-3.7a10.46,10.46,0,0,0,1.32-1.43,12.11,12.11,0,0,0-1.49,1.25l-3.93,3.55c-3.32,3-7.93,7.13-13.11,11.57s-9.94,8.38-13.41,11.21L570,413.69A11.92,11.92,0,0,0,568.55,415Z" style="fill:#455a64"></path><path d="M617.3,379.74a12.32,12.32,0,0,0-6,.55c-3.23.94-5.4,2.66-5.3,2.78s2.36-1.27,5.48-2.18S617.3,379.94,617.3,379.74Z" style="fill:#455a64"></path><path d="M612,376.12a7.59,7.59,0,0,0-3.66,2.76c-1.65,2-2.09,4.15-1.93,4.17s.86-1.86,2.42-3.77S612.06,376.29,612,376.12Z" style="fill:#455a64"></path><path d="M638.17,448.87c0-.07-.74-.22-1.6.48a5.78,5.78,0,0,0-1.78,3.59,6.93,6.93,0,0,0,.56,4c.44.94.92,1.39,1,1.34s-.25-.58-.56-1.5a8.17,8.17,0,0,1-.35-3.71,6.21,6.21,0,0,1,1.46-3.35C637.53,449,638.18,449,638.17,448.87Z" style="fill:#263238"></path><path d="M630.34,338.53,612.74,386a6.84,6.84,0,0,1-6.5,4.46l-96.92-1.28v-7.36l36,1.31,15.26-47.34a3.88,3.88,0,0,1,3.69-2.68l62.52.18A3.87,3.87,0,0,1,630.34,338.53Z" style="fill:#e0e0e0"></path><path d="M630.34,338.53s0,0,0-.15a2.57,2.57,0,0,0,.12-.44,3.75,3.75,0,0,0,0-1.79,3.8,3.8,0,0,0-3.46-2.84c-.66,0-1.39,0-2.15,0l-26.08,0-18.27,0-10.27,0h-5.39a4.25,4.25,0,0,0-2.58.57,3.79,3.79,0,0,0-1.61,2.11l-15.22,47.26,0,.11h-.12l-36-1.3.16-.16v7.36l-.15-.15,60.94.81,26.49.37,6.11.08,3,0a7,7,0,0,0,2.81-.41,6.67,6.67,0,0,0,3.89-3.74c.64-1.72,1.27-3.41,1.89-5.05,4.91-13.17,8.88-23.81,11.62-31.17,1.38-3.66,2.44-6.51,3.17-8.45s1.12-2.93,1.12-2.93-.35,1-1.06,3L626.16,350c-2.72,7.37-6.65,18-11.53,31.2l-1.88,5.07a6.92,6.92,0,0,1-4,3.87,7.36,7.36,0,0,1-2.91.44l-3,0-6.1-.08-26.49-.33-60.95-.79h-.15v-7.68h.16l36,1.32-.15.11,15.26-47.25a4,4,0,0,1,1.72-2.25,4.51,4.51,0,0,1,2.72-.6l5.39,0,10.27,0,18.27.08,26.08.12c.76,0,1.48,0,2.16,0a3.88,3.88,0,0,1,3.51,2.93,3.71,3.71,0,0,1,0,1.8A3.52,3.52,0,0,1,630.34,338.53Z" style="fill:#263238"></path><path d="M587.37,356.46a4.36,4.36,0,0,1,4.71.5,3.83,3.83,0,0,1,.92,4.18,4.12,4.12,0,0,1-3.54,2.47,3.71,3.71,0,0,1-3.74-2.47c-.45-1.55,0-3.86,1.65-4.68" style="fill:#fff"></path><path d="M609.52,437.85s-87.34-55.94-91.19-58.14c-3.28-1.87-12.06-7.27-20.71-4.88S481.21,385,477.33,396.31c-2.21,6.48-3.26,17.53-3.75,25.82a38.3,38.3,0,0,0,9,27.31,24.53,24.53,0,0,0,10.9,7.74c.91.28,1.86.52,2.83.73,16.53,3.59,33.52-3.83,42.81-18l2-3.1s57.2,21,58.09,20.71Z" style="fill:#263238"></path><path d="M522.84,382.81s-.08,0-.22-.13l-.61-.42c-.54-.37-1.33-.91-2.36-1.58a46.84,46.84,0,0,0-9.28-4.71,24.74,24.74,0,0,0-7-1.47,20,20,0,0,0-8,1.31,25.72,25.72,0,0,0-7.72,4.68,35.13,35.13,0,0,0-3.43,3.37,24.71,24.71,0,0,0-2.84,4,41,41,0,0,0-3.76,9c-.83,3.05-1.49,6.06-2.11,8.9a80.91,80.91,0,0,0-2,15.32,55.61,55.61,0,0,0,.79,10.39c.19,1.22.41,2.15.54,2.79l.14.73a.79.79,0,0,1,0,.25,1.29,1.29,0,0,1-.08-.24c0-.19-.12-.43-.19-.72-.17-.63-.42-1.55-.64-2.77a51.94,51.94,0,0,1-1-10.43A78.53,78.53,0,0,1,475,405.69c.62-2.86,1.26-5.85,2.08-8.94a42.14,42.14,0,0,1,3.81-9.12,25.53,25.53,0,0,1,2.9-4.11,35.13,35.13,0,0,1,3.49-3.42,26.21,26.21,0,0,1,7.88-4.74,20.4,20.4,0,0,1,8.23-1.3,25.39,25.39,0,0,1,7.08,1.56,43.87,43.87,0,0,1,9.27,4.89c1,.7,1.79,1.27,2.31,1.67l.58.46A.88.88,0,0,1,522.84,382.81Z" style="fill:#455a64"></path><path d="M501.35,422.06a4.66,4.66,0,0,0,.48.22l1.43.56L508.8,425l20.6,7.76c8.75,3.26,19.24,7.15,31,11.43s24.79,9,38.71,13.68l.26.08.12-.23c2.18-4.18,4.49-8.58,6.83-13.05L609.8,438l.14-.26-.25-.15L543,395.25l-20-12.64-5.44-3.4-1.42-.86a5.35,5.35,0,0,0-.49-.28s.15.12.46.33l1.39.92,5.38,3.49,19.93,12.8,66.58,42.51-.11-.41c-1.1,2.11-2.28,4.37-3.48,6.65l-6.82,13.05.37-.16c-13.91-4.7-26.95-9.37-38.72-13.61l-31-11.29-20.67-7.58-5.58-2-1.45-.51Z" style="fill:#455a64"></path><path d="M505.87,236.47a44.87,44.87,0,0,1-3.88-9.29,15.13,15.13,0,0,1,.52-9.88c.81-1.79,2.09-3.36,2.73-5.22.87-2.56.51-5.58,2.1-7.77,2.47-3.43,7.77-2.63,11.6-4.42,3-1.4,5.07-4.41,8.2-5.42,2.74-.88,5.73,0,8.37,1.1s5.23,2.57,8.08,2.94a54.84,54.84,0,0,0,6.15,0,8.09,8.09,0,0,1,5.67,2c1.44,1.45,1.74,4.14.18,5.47,3.59-.61,7,3,6.92,6.61s-2.79,6.84-6.1,8.36-7.08,1.61-10.71,1.32c-10.27-.8-20.59-4.7-27.58-12.26" style="fill:#9A9A9A"></path><path d="M508.08,223.62l-7,50.85a15.26,15.26,0,0,0,13.79,17.29h0a15.28,15.28,0,0,0,16.46-13.15c.52-3.83,1-7,1-7.41,0,0,13.11.56,15.81-12.12,1.3-6.13,3-19,4.32-30.61A24.15,24.15,0,0,0,533.26,202l-1.23-.24C518.65,199.87,509.58,210.19,508.08,223.62Z" style="fill:#ffbe9d"></path><path d="M532.45,271a30.22,30.22,0,0,1-15.64-8s2.09,9.94,15,11.33Z" style="fill:#eb996e"></path><path d="M546.82,239.28a1.85,1.85,0,0,1-2.12,1.48,1.77,1.77,0,0,1-1.54-2,1.85,1.85,0,0,1,2.11-1.49A1.77,1.77,0,0,1,546.82,239.28Z" style="fill:#263238"></path><path d="M548.54,234.16c-.27.19-1.44-1.1-3.4-1.48s-3.58.3-3.74,0c-.08-.13.23-.51,1-.84a5,5,0,0,1,3-.31,4.86,4.86,0,0,1,2.65,1.48C548.56,233.61,548.68,234.08,548.54,234.16Z" style="fill:#263238"></path><path d="M528.6,236.13a1.85,1.85,0,0,1-2.12,1.48,1.76,1.76,0,0,1-1.54-2,1.84,1.84,0,0,1,2.11-1.48A1.77,1.77,0,0,1,528.6,236.13Z" style="fill:#263238"></path><path d="M529.27,230.69c-.28.19-1.45-1.1-3.41-1.49s-3.58.31-3.74,0c-.08-.13.23-.51,1-.84a5,5,0,0,1,3-.31,4.92,4.92,0,0,1,2.65,1.47C529.28,230.14,529.4,230.6,529.27,230.69Z" style="fill:#263238"></path><path d="M533.46,246.6a12.82,12.82,0,0,1,3.29.06c.51.05,1,0,1.15-.28a2.57,2.57,0,0,0,0-1.55c-.22-1.3-.46-2.66-.71-4.09-1-5.82-1.56-10.56-1.33-10.6s1.21,4.65,2.18,10.47c.22,1.43.44,2.79.65,4.1a3,3,0,0,1-.13,2,1.3,1.3,0,0,1-1,.57,3.33,3.33,0,0,1-.87-.06A13,13,0,0,1,533.46,246.6Z" style="fill:#263238"></path><path d="M527.44,246.8c.32,0-.1,2.17,1.42,4s3.82,2.09,3.77,2.39c0,.14-.58.31-1.54.15a5.42,5.42,0,0,1-3.18-1.88,4.7,4.7,0,0,1-1-3.35C527,247.24,527.3,246.76,527.44,246.8Z" style="fill:#263238"></path><path d="M531.3,223.13c-.3.49-2.2-.15-4.55-.33s-4.32.07-4.53-.46c-.09-.26.33-.69,1.18-1.06a8,8,0,0,1,6.92.61C531.09,222.39,531.43,222.9,531.3,223.13Z" style="fill:#9A9A9A"></path><path d="M549,228.36c-.44.38-1.69-.35-3.3-.7s-3-.3-3.28-.82c-.09-.26.21-.66.9-1a4.88,4.88,0,0,1,5.29,1.23C549.05,227.68,549.15,228.18,549,228.36Z" style="fill:#9A9A9A"></path><path d="M507.24,233.24c-.2-.14-8.22-4.33-9.68,4.42s7.63,8.41,7.68,8.16S507.24,233.24,507.24,233.24Z" style="fill:#ffbe9d"></path><path d="M503.12,242.06s-.17.08-.44.15a1.55,1.55,0,0,1-1.15-.16c-.87-.5-1.4-2.09-1.18-3.68a5.18,5.18,0,0,1,.79-2.11,1.82,1.82,0,0,1,1.34-1,.79.79,0,0,1,.83.57c.08.27,0,.43,0,.45s.21-.11.2-.48a1,1,0,0,0-.25-.61,1.16,1.16,0,0,0-.81-.36,2.17,2.17,0,0,0-1.82,1.09,5.2,5.2,0,0,0-.93,2.35c-.24,1.77.39,3.57,1.59,4.15a1.69,1.69,0,0,0,1.44,0C503.07,242.27,503.15,242.08,503.12,242.06Z" style="fill:#eb996e"></path><path d="M555,216.66c-1.5,3.23-9.22,4.48-14.88,2.77-5.21-1.57-7.11-4.88-10.42-7.77-2.1-1.83-2.1-1.83-5.53-2.18-2.77-.29-5,2.47-7.09,4.3,1.17,7-1.92,13.84-4.94,20.21a3.51,3.51,0,0,1-1.41,1.81c-1.18.58-2.6-.34-3.31-1.46a11,11,0,0,1-1.23-6.14,36.54,36.54,0,0,1,2.91-14.08,24.74,24.74,0,0,1,9.14-11,23.5,23.5,0,0,1,17.4-2.88,28.88,28.88,0,0,1,15.25,9.15,16.86,16.86,0,0,1,4.11,7.22" style="fill:#9A9A9A"></path><path d="M537.24,237.8c.08,0,0-.75.4-2a8.52,8.52,0,0,1,3.1-4.5,8.24,8.24,0,0,1,7.74-1.11,8.1,8.1,0,0,1,3.77,2.85,8.11,8.11,0,0,1,0,9.59,8.1,8.1,0,0,1-3.77,2.85,8.22,8.22,0,0,1-7.74-1.12,8.47,8.47,0,0,1-3.1-4.49c-.35-1.28-.32-2-.4-2a2.15,2.15,0,0,0,0,.55,6.4,6.4,0,0,0,.18,1.55,8.38,8.38,0,0,0,3.06,4.83A8.7,8.7,0,0,0,552.8,243a8.7,8.7,0,0,0,0-10.41,8.7,8.7,0,0,0-12.36-1.72,8.36,8.36,0,0,0-3.06,4.82,6.52,6.52,0,0,0-.18,1.56A2,2,0,0,0,537.24,237.8Z" style="fill:#263238"></path><path d="M516.49,234.18c.08,0,0-.75.4-2a8.49,8.49,0,0,1,3.1-4.5,8.22,8.22,0,0,1,7.74-1.11,8.08,8.08,0,0,1,3.77,2.84,8.12,8.12,0,0,1,0,9.6,8,8,0,0,1-3.77,2.84,8.22,8.22,0,0,1-7.74-1.11,8.49,8.49,0,0,1-3.1-4.5c-.35-1.27-.32-2-.4-2a2.1,2.1,0,0,0,0,.54,6.52,6.52,0,0,0,.18,1.56,8.38,8.38,0,0,0,3.06,4.83,8.72,8.72,0,0,0,12.37-1.72,8.73,8.73,0,0,0,0-10.42,8.7,8.7,0,0,0-12.36-1.72,8.41,8.41,0,0,0-3.06,4.83,6.52,6.52,0,0,0-.18,1.56A2,2,0,0,0,516.49,234.18Z" style="fill:#263238"></path><path d="M533.59,234.48c.09.17,1.2-.35,2.49.05s1.94,1.43,2.11,1.33,0-.37-.25-.81a3.09,3.09,0,0,0-3.69-1.11C533.76,234.14,533.54,234.4,533.59,234.48Z" style="fill:#263238"></path><path d="M504.74,231.94c0,.2,2.79.31,6.23.27s6.22-.25,6.22-.45-2.79-.31-6.23-.26S504.74,231.74,504.74,231.94Z" style="fill:#263238"></path><path d="M559.13,208.31a2.57,2.57,0,0,1-.14.83,4.08,4.08,0,0,1-1.31,1.88,5.78,5.78,0,0,1-3.15,1.29,15.74,15.74,0,0,1-4.17-.22,73.36,73.36,0,0,1-7.42-1.49c-.94-.25-1.7-.46-2.21-.62l-.6-.19-.2-.08s.08,0,.21,0l.61.15,2.22.55c1.88.45,4.5,1,7.42,1.44a15.88,15.88,0,0,0,4.12.23,5.74,5.74,0,0,0,3.08-1.21,4.12,4.12,0,0,0,1.32-1.79C559.09,208.61,559.1,208.3,559.13,208.31Z" style="fill:#fff"></path><path d="M561.07,210.29a8.08,8.08,0,0,1-.75,2.4,10.24,10.24,0,0,1-9.87,5.89,8.09,8.09,0,0,1-2.46-.47,4.33,4.33,0,0,1,.66.13,12.31,12.31,0,0,0,1.81.2,10.4,10.4,0,0,0,9.72-5.82,9.66,9.66,0,0,0,.68-1.69A5,5,0,0,1,561.07,210.29Z" style="fill:#fff"></path></g></svg>