<?xml version="1.0" standalone="no"?><!DOCTYPE svg PUBLIC "-//W3C//DTD SVG 1.1//EN" "http://www.w3.org/Graphics/SVG/1.1/DTD/svg11.dtd"><svg t="1589285315853" class="icon" viewBox="0 0 1024 1024" version="1.1" xmlns="http://www.w3.org/2000/svg" p-id="14200" xmlns:xlink="http://www.w3.org/1999/xlink" width="200" height="200"><defs><style type="text/css"></style></defs><path d="M623.008 879.328c-10.624-20.096-21.888-49.344-15.68-66.816 5.28-14.624 9.568-18.144 18.112-25.12 11.424-9.312 27.04-22.048 39.488-54.304 4.768-12.48 7.936-25.024 10.944-37.12 10.976-43.904 14.88-50.656 46.72-46.976 23.872 2.816 38.72 14.304 55.872 27.648 16.864 13.056 36 26.944 62.368 31.488a384.704 384.704 0 0 1-217.824 171.2M181.76 708.768c27.744-3.328 58.112-13.024 79.776-36.704 23.968-26.112 24.128-60.256 24.256-87.68 0.192-37.344 2.24-47.584 21.12-54.624 25.856-9.568 37.536-0.416 61.76 21.088 14.272 12.64 30.4 26.976 51.84 33.568 25.248 7.776 55.488 4.16 80.832-9.76a107.744 107.744 0 0 0 52.032-64.8l0.128 0.032 0.224-0.96c0.096-0.256 0.224-0.448 0.288-0.704 0.256-0.928 0.288-1.792 0.544-2.72 1.888-6.528 3.2-13.088 4.032-19.616 0.416-2.912 0.544-5.568 0.8-8.384 0.16-2.24 0.448-4.512 0.544-6.72a311.424 311.424 0 0 0-0.832-44.16 337.6 337.6 0 0 1-1.024-19.552c0.32-7.456 1.664-13.44 4.352-17.216 5.216-2.528 19.2-5.024 28.864-6.72 26.688-4.672 59.328-10.656 79.04-33.824l0.288-0.224-0.032-0.032c1.152-1.376 2.464-2.592 3.52-4.096 33.344-46.976 31.296-95.52-5.28-126.752a120.768 120.768 0 0 0-8.992-6.656c-21.536-14.976-30.72-25.536-24.416-44.928 1.856-5.856 3.84-10.912 5.824-15.52 147.904 53.408 253.824 194.592 253.824 360.896 0 46.24-8.64 90.4-23.584 131.456-6.08 1.6-11.424 2.72-14.144 2.72-13.152 0-22.656-6.88-39.68-20.128-20.544-15.936-46.08-35.744-87.616-40.608-89.504-10.656-106.4 55.488-116.288 94.976-2.496 10.048-4.96 20.256-8.64 29.696-6.272 16.384-11.52 20.64-20.16 27.68-11.232 9.184-26.656 21.76-37.888 53.184-12.48 34.816-1.088 73.792 11.36 101.792-15.52 1.92-31.264 3.232-47.36 3.232-140.032 0-262.208-75.232-329.312-187.232M511.04 128c23.264 0 45.92 2.4 68.032 6.368-1.6 4.032-3.136 8.032-4.608 12.608-21.888 67.904 31.36 104.96 48.832 117.088 1.664 1.184 3.072 2.112 3.968 2.816 3.904 3.328 13.824 12.192-3.616 38.336-6.176 5.28-12.512 6.24-28 6.976-20.832 0.992-52.16 2.528-80 33.504l-0.128 0.096-0.064 0.096-0.352 0.32c-0.576 0.64-0.96 1.344-1.472 1.984-14.784 17.312-18.976 36.256-19.424 54.848-0.672 12.288 0.096 24.64 0.832 36.416 0.8 12.896 1.472 25.184 0.416 36.096-0.672 5.12-1.664 10.368-3.136 15.744a43.84 43.84 0 0 1-21.76 27.232c-10.176 5.568-22.528 7.456-31.168 4.736-8.192-2.528-17.952-11.168-28.256-20.32-25.376-22.496-63.68-56.544-126.56-33.152-62.336 23.232-62.592 78.016-62.784 114.272-0.096 18.944-0.192 36.864-7.456 44.8-13.376 14.624-40.8 17.696-62.72 17.184A381.824 381.824 0 0 1 127.104 512c0-212.064 171.936-384 384-384m0-64c-247.04 0-448 200.96-448 448s200.96 448 448 448 448-200.96 448-448-200.96-448-448-448" fill="#ffffff" p-id="14201"></path></svg>