<?xml version="1.0" standalone="no"?><!DOCTYPE svg PUBLIC "-//W3C//DTD SVG 1.1//EN" "http://www.w3.org/Graphics/SVG/1.1/DTD/svg11.dtd"><svg t="1584152969165" class="icon" viewBox="0 0 1024 1024" version="1.1" xmlns="http://www.w3.org/2000/svg" p-id="2114" xmlns:xlink="http://www.w3.org/1999/xlink" width="200" height="200"><defs><style type="text/css"></style></defs><path d="M1014.272 813.056a37.376 37.376 0 0 1-34.304 34.816h-2.56c-33.28 0-59.904 26.624-59.904 59.904 0.512 7.68 2.048 15.36 5.12 22.528 7.68 18.432 1.536 39.936-14.848 51.2l-69.632 38.4c-6.144 2.56-12.288 4.096-18.944 4.096a50.5344 50.5344 0 0 1-27.648-14.848c-13.312-15.36-31.232-25.6-51.2-29.696-19.968 4.096-37.888 14.336-51.2 29.184a46.4384 46.4384 0 0 1-51.2 10.752l-69.12-37.888a44.1856 44.1856 0 0 1-15.872-53.76c2.56-7.168 4.608-14.848 5.12-22.528 0-15.872-6.144-31.232-17.408-42.496-11.264-11.264-26.624-17.408-42.496-17.408h-2.56a39.2704 39.2704 0 0 1-34.816-35.328c-8.192-36.352-8.192-73.728-0.512-110.08 1.536-18.432 15.872-33.28 34.304-34.816h3.072c16.896 1.024 33.28-4.608 45.568-16.384s18.944-28.16 18.432-45.056c-0.512-7.68-2.56-15.36-5.632-22.528a44.032 44.032 0 0 1 14.848-51.2l71.168-38.912c5.12-2.56 11.264-3.584 16.896-3.584 12.8 0 25.088 5.12 33.792 13.824 12.8 14.336 29.696 24.576 48.64 28.672 18.432-4.096 34.816-13.824 47.616-27.648 9.216-8.192 21.504-13.312 33.792-13.312 6.144 0 11.776 1.024 17.408 3.584l70.144 38.4c16.384 11.264 23.04 32.256 16.384 51.2-3.072 7.168-4.608 14.848-5.12 22.528 0 32.768 26.624 59.392 59.392 59.904h2.56c18.432 1.536 32.768 16.384 34.304 34.816 3.584 18.432 5.632 36.864 6.144 55.296-1.536 19.456-4.608 38.912-9.728 58.368z m-48.128-95.744a114.7392 114.7392 0 0 1-96.768-112.128c0.512-11.776 2.56-23.04 6.144-34.304l-51.2-27.648c-6.656 5.632-13.312 11.264-20.48 16.384-17.408 13.824-38.912 22.016-61.44 23.04-23.04-1.024-44.544-9.216-62.464-23.552-7.168-5.12-14.336-10.752-20.48-16.896l-51.2 28.672c4.096 10.752 6.144 22.528 6.144 34.304a114.8416 114.8416 0 0 1-102.4 112.128c-4.608 24.576-4.608 50.176 0 74.752 56.832 7.68 99.84 56.32 99.328 113.664 0 11.776-2.048 23.04-6.144 34.304l48.128 27.136c6.656-6.144 13.312-11.776 20.48-17.408 17.92-14.848 40.448-23.552 63.488-24.576 23.552 1.536 45.568 10.24 64 25.088 8.704 6.656 15.872 13.312 20.48 17.408l51.2-27.648c-3.584-11.264-5.632-23.04-6.144-34.816 0-57.344 42.496-105.472 99.328-113.152 2.048-12.8 3.072-25.088 3.072-37.888s-1.024-25.088-3.072-36.864z m-228.352 143.36c-58.368 0-105.984-47.616-105.984-105.984 0-58.368 47.616-105.984 105.984-105.984 28.16 0 55.296 11.264 74.752 31.232 19.968 19.968 31.232 46.592 31.232 74.752 0 58.368-47.616 105.984-105.984 105.984z m19.456-153.6a51.5072 51.5072 0 0 0-67.072 67.072c7.68 18.944 26.624 31.744 47.104 31.744 28.16 0 51.2-23.04 51.2-51.2a50.0224 50.0224 0 0 0-31.232-47.616z m33.28-367.616a578.2016 578.2016 0 0 1-365.056 108.544c-130.56 6.144-259.072-31.744-364.544-108.544v108.544c0 64 131.072 115.2 303.616 126.464v63.488c-107.52-2.048-212.48-33.28-303.616-91.136v95.232c0 63.488 131.072 116.224 304.128 125.952v61.952c-108.032-2.048-212.992-33.28-304.128-91.136v93.184c0 70.656 163.328 128 364.544 128V1024C190.464 1024 0 937.984 0 832V224.256C0 102.4 190.464 0 425.472 0s425.472 102.4 425.472 224.256v201.728h-60.416V339.456zM425.472 64c-201.216 0-364.544 72.192-364.544 160.256S224.256 384 425.472 384c201.728 0 365.056-71.168 365.056-159.744 0-88.576-163.84-160.256-365.056-160.256z" fill="#CCD0E2" p-id="2115"></path></svg>