<?xml version="1.0" standalone="no"?><!DOCTYPE svg PUBLIC "-//W3C//DTD SVG 1.1//EN" "http://www.w3.org/Graphics/SVG/1.1/DTD/svg11.dtd"><svg t="1590756383689" class="icon" viewBox="0 0 1024 1024" version="1.1" xmlns="http://www.w3.org/2000/svg" p-id="4279" xmlns:xlink="http://www.w3.org/1999/xlink" width="200" height="200"><defs><style type="text/css"></style></defs><path d="M832 394.666667H192v160h213.333333a32 32 0 0 1 32 32 74.666667 74.666667 0 0 0 149.333334 0 32 32 0 0 1 32-32h213.333333V394.666667z m0-64V224a53.333333 53.333333 0 0 0-53.333333-53.333333H245.333333a53.333333 53.333333 0 0 0-53.333333 53.333333v106.666667h640z m0 288H646.954667C632.512 679.818667 577.568 725.333333 512 725.333333c-65.568 0-120.512-45.514667-134.954667-106.666666H192v181.333333a53.333333 53.333333 0 0 0 53.333333 53.333333h533.333334a53.333333 53.333333 0 0 0 53.333333-53.333333V618.666667zM245.333333 106.666667h533.333334c64.8 0 117.333333 52.533333 117.333333 117.333333v576c0 64.8-52.533333 117.333333-117.333333 117.333333H245.333333c-64.8 0-117.333333-52.533333-117.333333-117.333333V224c0-64.8 52.533333-117.333333 117.333333-117.333333z" p-id="4280" fill="#ffffff"></path></svg>