<?xml version="1.0" standalone="no"?><!DOCTYPE svg PUBLIC "-//W3C//DTD SVG 1.1//EN" "http://www.w3.org/Graphics/SVG/1.1/DTD/svg11.dtd"><svg t="1584161352684" class="icon" viewBox="0 0 1024 1024" version="1.1" xmlns="http://www.w3.org/2000/svg" p-id="7257" xmlns:xlink="http://www.w3.org/1999/xlink" width="200" height="200"><defs><style type="text/css"></style></defs><path d="M445.409848 894.762622a27.294641 27.294641 0 0 1-13.738913-3.686608l-71.31641-41.21674a27.477827 27.477827 0 0 1-11.128519-35.492193 53.890888 53.890888 0 0 0-21.673136-70.137153 53.158145 53.158145 0 0 0-25.428439-6.869456 27.477827 27.477827 0 0 1-26.699288-27.477827v-81.838127a27.477827 27.477827 0 0 1 26.561899-27.477827 54.085522 54.085522 0 0 0 52.608589-54.119869 53.513067 53.513067 0 0 0-7.854079-27.592318 27.477827 27.477827 0 0 1 9.926365-37.907952l70.606565-40.770225a27.477827 27.477827 0 0 1 37.782012 10.453023c0.194635 0.354922 0.400718 0.75564 0.606802 1.14491a53.913786 53.913786 0 0 0 93.619245-1.202155 27.477827 27.477827 0 0 1 37.644623-10.235491l70.595116 40.747328a27.477827 27.477827 0 0 1 9.159276 39.06431c-6.503086 11.323154-8.426534 25.966546-4.671231 40.07183a54.051175 54.051175 0 0 0 25.371194 33.053536 53.398576 53.398576 0 0 0 24.672798 6.869457 27.477827 27.477827 0 0 1 26.332917 27.477826v81.975517a27.477827 27.477827 0 0 1-26.241324 27.477826 53.810744 53.810744 0 0 0-46.609264 76.937915 27.477827 27.477827 0 0 1-11.174316 35.412049l-71.373655 41.21674a27.477827 27.477827 0 0 1-36.236383-8.014366 53.535966 53.535966 0 0 0-88.684686 0.286227 27.477827 27.477827 0 0 1-22.657758 11.849813z m-38.194179-81.288571l32.503979 18.776515a104.324149 104.324149 0 0 1 18.146815-13.315297 108.468721 108.468721 0 0 1 126.821619 12.891681l32.836003-18.936802a105.331669 105.331669 0 0 1-2.289819-21.833424 109.041175 109.041175 0 0 1 78.117171-104.587477v-35.606684a103.225035 103.225035 0 0 1-23.550787-9.98361 109.556385 109.556385 0 0 1-50.719488-124.199777l-28.70288-16.543941a107.08338 107.08338 0 0 1-23.3905 18.375796 109.510588 109.510588 0 0 1-133.313256-18.558982l-28.450999 16.4409a106.2018 106.2018 0 0 1 4.362105 30.053873 108.766397 108.766397 0 0 1-79.170488 104.988196v34.931187a104.026472 104.026472 0 0 1 24.638451 10.304185 108.296984 108.296984 0 0 1 52.162074 116.780763z" p-id="7258" fill="#dbdbdb"></path><path d="M511.894739 763.212527a97.580632 97.580632 0 1 1 97.580632-97.580632 97.683674 97.683674 0 0 1-97.580632 97.580632z m0-140.171263a42.590631 42.590631 0 1 0 42.579183 42.590631 42.636428 42.636428 0 0 0-42.579183-42.590631z" p-id="7259" fill="#dbdbdb"></path><path d="M821.123331 1024H202.414268A112.853724 112.853724 0 0 1 89.675035 911.272216V190.803601a112.865173 112.865173 0 0 1 112.739233-112.739233h618.709063a112.853724 112.853724 0 0 1 112.716335 112.739233v720.468615a112.842275 112.842275 0 0 1-112.716335 112.727784zM202.414268 138.561383a52.288014 52.288014 0 0 0-52.242218 52.242218v720.468615a52.299463 52.299463 0 0 0 52.242218 52.253667h618.709063a52.310913 52.310913 0 0 0 52.253667-52.253667V190.803601a52.299463 52.299463 0 0 0-52.253667-52.242218z" p-id="7260" fill="#dbdbdb"></path><path d="M881.780634 369.604109H142.008845a30.248508 30.248508 0 1 1 0-60.497015h739.771789a30.248508 30.248508 0 0 1 0 60.497015zM291.545468 222.30006a30.259957 30.259957 0 0 1-30.248508-30.248508V30.825404a30.248508 30.248508 0 0 1 60.497015 0v161.226148a30.259957 30.259957 0 0 1-30.248507 30.248508zM731.992131 222.30006a30.248508 30.248508 0 0 1-30.225609-30.248508V30.825404a30.237058 30.237058 0 1 1 60.462667 0v161.226148a30.248508 30.248508 0 0 1-30.237058 30.248508z" p-id="7261" fill="#dbdbdb"></path></svg>