<?xml version="1.0" standalone="no"?><!DOCTYPE svg PUBLIC "-//W3C//DTD SVG 1.1//EN" "http://www.w3.org/Graphics/SVG/1.1/DTD/svg11.dtd"><svg t="1588227025068" class="icon" viewBox="0 0 1024 1024" version="1.1" xmlns="http://www.w3.org/2000/svg" p-id="3881" xmlns:xlink="http://www.w3.org/1999/xlink" width="200" height="200"><defs><style type="text/css"></style></defs><path d="M258.828514 570.138842h-1.889996c-34.945929 0-63.273871-28.327942-63.273871-63.271872s28.327942-63.273871 63.273871-63.273871h500.592983c34.943929 0 63.271871 28.327942 63.271872 63.273871 0 34.935929-28.327942 63.271871-63.271872 63.271872h-1.891996" fill="#EDC59D" p-id="3882"></path><path d="M583.803854 868.990235h111.367774c57.093884 0 103.36779 46.273906 103.36779 103.36779v35.983927H215.914601V972.358025c0-57.093884 46.273906-103.36779 103.36779-103.36779h111.365774" fill="#BA7E56" p-id="3883"></path><path d="M755.631505 334.59932v248.399496c0 137.179721-111.201774 248.399495-248.397495 248.399495-68.599861 0-130.687735-27.799944-175.647644-72.751852-44.937909-44.959909-72.749852-107.069783-72.749852-175.647643V334.59932z m0 0" fill="#FFDCB6" p-id="3884"></path><path d="M755.631505 334.59932v211.75157c-60.201878 8.061984-139.327717 12.381975-242.991506 12.381975-49.929899 0-94.155809-0.999998-133.335729-2.943994-47.131904-2.335995-86.913823-6.031988-120.467756-10.985978V334.60132z m0 0" fill="#EDC59D" p-id="3885"></path><path d="M434.132158 868.990235c-57.085884 0-103.36579 46.273906-103.36579 103.36779v35.983927H215.914601V972.358025c0-57.093884 46.273906-103.36779 103.36779-103.36779z m0 0" fill="#996441" p-id="3886"></path><path d="M634.507751 868.990235l-34.695929 139.351717-92.585812-80.883836-92.585812 80.883836-34.69393-139.351717" fill="#844B2A" p-id="3887"></path><path d="M505.468013 831.388311c-67.897862-0.451999-129.295737-28.171943-173.881647-72.733852-44.953909-44.967909-72.749852-107.053783-72.749852-175.655643V334.58532h111.835773V582.998816c0 68.599861 15.273969 130.687735 39.991919 175.655643 24.327951 44.24991 57.789883 71.875854 94.803807 72.733852z m0 0" fill="#EDC59D" p-id="3888"></path><path d="M586.579849 818.452338v29.655939c0 32.639934-19.68996 60.663877-47.845903 72.859852a79.239839 79.239839 0 0 1-31.507936 6.489987c-43.811911 0-79.349839-35.521928-79.349839-79.349839v-29.655939z m0 0" fill="#EDC59D" p-id="3889"></path><path d="M586.579849 818.452338v29.655939c0 32.639934-19.68996 60.663877-47.845903 72.859852-28.147943-12.195975-47.859903-40.219918-47.859903-72.859852v-29.655939z m0 0" fill="#FFDCB6" p-id="3890"></path><path d="M512.639999 506.87497c-49.929899 0-94.163809-1.007998-133.343729-2.945994-254.585483-12.625974-295.2634-64.851868-293.585404-138.259719 1.407997-61.787874 87.383823-125.215746 193.047608-135.879724H746.499524c105.671785 10.663978 191.639611 74.09185 193.053608 135.879724 1.939996 84.703828-52.545893 141.203713-426.913133 141.203713z m0 0" fill="#BA7E56" p-id="3891"></path><path d="M379.29627 503.918976C124.720787 491.305002 84.016869 439.079108 85.710866 365.673257c1.399997-61.789874 87.367823-125.225746 193.039608-135.881724h17.351965c-18.797962 30.327938-29.883939 64.00587-30.367939 97.397802-1.163998 77.437843 17.875964 139.437717 113.56177 176.733641z m0 0" fill="#996441" p-id="3892"></path><path d="M789.053437 334.78932c-134.039728 59.787879-296.559398 72.467853-442.7391 37.935923-38.165922-8.983982-75.219847-21.209957-110.345776-36.663926l-2.913994-1.271997s22.711954-151.469692 41.539915-216.55556c10.459979-36.147927 24.147951-61.873874 40.077919-78.539841v-0.014c15.709968-16.429967 33.553932-24.015951 52.599893-24.015951 11.673976 0 21.555956 4.437991 32.119935 10.599979h0.014c24.093951 14.103971 51.639895 37.259924 111.647773 37.259924 49.499899 0 76.929844-15.765968 98.5478-29.195941v-0.016h0.024c16.045967-9.96798 28.897941-18.647962 45.225908-18.647962 38.351922 0 71.881854 30.773937 92.663812 102.569792 18.819962 65.085868 41.539916 216.55556 41.539915 216.55556z m0 0" fill="#996441" p-id="3893"></path><path d="M511.054002 63.523871c49.499899 0 76.929844-15.765968 98.5478-29.195941-0.819998 2.053996-59.30588 144.523706-124.703747 120.225756-65.865866-24.47595-85.507826-128.287739-85.507826-128.287739h0.016c24.093951 14.099971 51.639895 37.257924 111.647773 37.257924z m0 0M346.312337 372.725243c-38.171922-8.983982-75.219847-21.209957-110.351776-36.663926l-2.913994-1.271997s22.719954-151.469692 41.539915-216.55556c10.459979-36.147927 24.155951-61.873874 40.085919-78.539841-0.655999 4.273991-40.843917 262.119468 31.639936 333.031324z m0 0" fill="#844B2A" p-id="3894"></path><path d="M609.617802 34.31193l-0.016 0.016v-0.016z m0 0" fill="#D6C8B0" p-id="3895"></path><path d="M955.2031 365.327258c-1.407997-62.773872-73.493851-123.867748-169.413656-145.045705-7.163985-38.977921-15.469969-79.571838-23.235953-106.407784C735.313546 19.75996 688.953641 0 654.85171 0c-19.81996 0-34.779929 9.335981-50.625897 19.219961l-2.429995 1.513997a13.103973 13.103973 0 0 0-0.951998 0.601999c-18.187963 11.295977-43.133912 26.523946-89.789818 26.523946-47.287904 0-71.663854-15.219969-93.171811-28.649942-3.631993-2.263995-7.059986-4.413991-10.559978-6.459987-0.174-0.094-0.345999-0.196-0.525999-0.289999C395.594236 5.953988 383.032262 0 367.274294 0c-24.109951 0-45.617907 9.70998-63.92187 28.859941-0.14 0.148-0.279999 0.303999-0.421999 0.459999-18.079963 19.109961-32.671934 47.553903-43.383912 84.561829-7.811984 26.999945-16.169967 67.945862-23.365953 107.139782C142.140751 242.843507 71.460895 303.633383 70.060898 365.313258c-0.765998 33.319932 5.195989 75.469847 58.585881 105.891785 13.983972 7.959984 30.811937 14.91397 50.749897 20.913957-0.913998 4.81999-1.397997 9.73998-1.397998 14.74997 0 38.835921 28.203943 71.185855 65.195868 77.709843 0.405999 69.921858 27.819943 135.617725 77.319843 185.139624 26.529946 26.531946 57.709883 46.719905 91.693814 59.805878v18.585962c0 1.749996 0.064 3.491993 0.157999 5.21999h-67.157863a15.661968 15.661968 0 0 0-15.663968 15.661968 15.661968 15.661968 0 0 0 15.663968 15.663968h22.493954L394.600238 992.677984H231.58657v-20.319959c0-36.563926 23.023953-69.639859 57.295883-82.313833a15.665968 15.665968 0 0 0 9.265981-20.115959 15.653968 15.653968 0 0 0-20.123959-9.259981c-46.515906 17.197965-77.765842 62.079874-77.765842 111.689773v35.983927A15.659968 15.659968 0 0 0 215.920601 1023.99792h582.622817a15.659968 15.659968 0 0 0 15.663968-15.655968V972.358025c0-65.633867-53.397892-119.031758-119.029758-119.031758h-93.085811c0.094-1.725996 0.148-3.467993 0.148-5.21999v-18.731962c98.3278-38.055923 168.375658-133.351729 169.031656-244.797502 36.991925-6.523987 65.193868-38.873921 65.193868-77.709843 0-3.999992-0.303999-7.953984-0.889998-11.843976 10.819978-2.929994 20.811958-6.093988 29.953939-9.51598 8.099984-3.031994 12.209975-12.053976 9.179981-20.155959s-12.055976-12.211975-20.157959-9.179982c-62.999872 23.569952-174.835645 35.031929-341.913305 35.031929-48.803901 0-93.40581-0.985998-132.559731-2.929994-116.579763-5.773988-193.751606-20.259959-235.923521-44.28991-31.249937-17.803964-43.647911-40.389918-42.779913-77.951842 0.513999-22.469954 15.483969-46.671905 42.163914-68.139861 23.311953-18.759962 53.483891-33.657932 86.615824-42.999913-7.139985 41.379916-12.155975 74.679848-12.593974 77.575843a15.659968 15.659968 0 0 0 9.219981 16.671966l2.873995 1.259997c35.539928 15.631968 73.579851 28.271943 113.05377 37.567924 55.179888 13.039974 112.063772 19.45996 168.671657 19.45996 99.227798 0 197.571599-19.75596 284.047423-58.333881a15.651968 15.651968 0 0 0 9.109982-16.625966 3926.802024 3926.802024 0 0 0-12.743974-78.443841c73.65785 20.021959 131.085734 67.507863 132.085731 112.015772 0.657999 28.021943-5.639989 46.505906-21.085957 61.859875a15.701968 15.701968 0 0 0-3.405993 17.083965 15.681968 15.681968 0 0 0 14.485971 9.67198c4.569991 0 8.679982-1.959996 11.545976-5.077989 27.787944-27.991943 30.311938-61.467875 29.77994-84.249829zM209.320615 506.85897c0-2.313995 0.172-4.601991 0.499999-6.851986a605.226771 605.226771 0 0 0 33.351932 6.389987v46.039907c-19.56196-5.913988-33.851931-24.101951-33.851931-45.579908z m210.211573 377.787233c9.93598 23.773952 29.279941 42.655913 53.343891 52.023894l-49.2279 43.007913-23.663951-95.031807z m87.693822 63.609871l50.851896 44.41991h-101.695793z m275.65544 24.099951v20.319959h-163.029669l26.897945-108.029781h48.419902c48.369902 0 87.711822 39.34392 87.711822 87.711822z m-168.413658-87.709822l-23.663952 95.031807-49.2259-43.007913c24.061951-9.367981 43.405912-28.249943 53.351892-52.023894z m-43.545912-36.539926c0 35.119929-28.579942 63.687871-63.69587 63.687871s-63.685871-28.569942-63.685871-63.685871v-8.749982a265.74546 265.74546 0 0 0 63.693871 7.701984 263.799464 263.799464 0 0 0 63.68787-7.779984zM805.147405 506.85897c0 21.475956-14.287971 39.663919-33.859932 45.577908V508.098968a682.408614 682.408614 0 0 0 33.625932-5.883988c0.148 1.531997 0.234 3.079994 0.234 4.63999z m-423.56114 12.843974v17.959964a15.659968 15.659968 0 1 0 31.319936 0v-16.687966c30.749938 1.023998 64.13987 1.547997 99.733798 1.547997 31.655936 0 61.249876-0.399999 88.921819-1.187998v16.327967a15.659968 15.659968 0 1 0 31.319936 0v-17.437965c40.007919-1.693997 75.593846-4.343991 107.085783-7.975984V582.998816c0 128.335739-104.405788 232.733527-232.733527 232.733527-62.163874 0-120.607755-24.201951-164.569666-68.163861-43.959911-43.983911-68.171862-102.429792-68.171862-164.569666v-72.069854c30.553938 3.843992 65.099868 6.701986 104.039789 8.631983l3.053994 0.139999z m-31.687936-162.21967c-34.62393-8.155983-68.053862-18.991961-99.523798-32.265935 5.749988-36.859925 23.977951-149.779696 39.259921-202.631588 9.373981-32.389934 21.607956-56.631885 36.359926-72.069854 0.124-0.126 0.247999-0.259999 0.365999-0.391999 12.239975-12.647974 25.623948-18.803962 40.913917-18.803962 8.061984 0 15.515968 3.383993 24.219951 8.469983 0.146 0.092 0.301999 0.18 0.459999 0.256 2.967994 1.749996 6.069988 3.687993 9.341981 5.727988 22.579954 14.099971 53.493891 33.405932 109.759777 33.405932 51.699895 0 81.115835-15.585968 106.811783-31.547936 0.092-0.06 0.186-0.116 0.279999-0.179999l2.663995-1.661997c13.469973-8.399983 23.195953-14.469971 34.047931-14.469971 42.319914 0 65.559867 49.633899 77.607842 91.259815 15.289969 52.849893 33.515932 165.801663 39.27392 202.645588-127.561741 53.819891-280.55343 65.633867-421.843143 32.259935z m0 0" p-id="3896"></path><path d="M446.828132 684.17061a178.321638 178.321638 0 0 0 60.405878 10.523979 178.321638 178.321638 0 0 0 60.405877-10.523979 15.661968 15.661968 0 1 0-10.615978-29.46794 147.265701 147.265701 0 0 1-99.579798 0 15.661968 15.661968 0 0 0-10.617979 29.46794z m0 0" p-id="3897"></path></svg>