<?xml version="1.0" standalone="no"?><!DOCTYPE svg PUBLIC "-//W3C//DTD SVG 1.1//EN" "http://www.w3.org/Graphics/SVG/1.1/DTD/svg11.dtd"><svg t="1584161470191" class="icon" viewBox="0 0 1024 1024" version="1.1" xmlns="http://www.w3.org/2000/svg" p-id="8046" xmlns:xlink="http://www.w3.org/1999/xlink" width="200" height="200"><defs><style type="text/css"></style></defs><path d="M745.6 916.48h-6.4a163.84 163.84 0 0 1-64-34.56 23.04 23.04 0 0 1 0-36.48 19.2 19.2 0 0 0 7.68-14.72 17.28 17.28 0 0 0-27.52-16.64 25.6 25.6 0 0 1-20.48 0 22.4 22.4 0 0 1-12.8-15.36 161.92 161.92 0 0 1-7.04-44.16 166.4 166.4 0 0 1 5.76-41.6 24.32 24.32 0 0 1 11.52-14.72 25.6 25.6 0 0 1 19.2 0 18.56 18.56 0 0 0 25.6-17.28 19.2 19.2 0 0 0-6.4-14.08 26.24 26.24 0 0 1-8.32-17.92 25.6 25.6 0 0 1 7.68-17.28 180.48 180.48 0 0 1 68.48-38.4 23.68 23.68 0 0 1 28.8 16 19.2 19.2 0 0 0 35.84 0 23.04 23.04 0 0 1 28.8-18.56 164.48 164.48 0 0 1 67.84 37.76 23.04 23.04 0 0 1 7.68 17.28 23.04 23.04 0 0 1-7.68 17.92 17.92 17.92 0 0 0-7.04 14.08 18.56 18.56 0 0 0 26.24 17.28 25.6 25.6 0 0 1 19.2 0 24.32 24.32 0 0 1 11.52 14.72 167.68 167.68 0 0 1 5.12 41.6 179.2 179.2 0 0 1-5.76 42.24 22.4 22.4 0 0 1-11.52 14.72 21.12 21.12 0 0 1-18.56 0A18.56 18.56 0 0 0 896 832a18.56 18.56 0 0 0 7.04 14.08 24.96 24.96 0 0 1 7.04 17.28 23.04 23.04 0 0 1-7.68 17.28 167.68 167.68 0 0 1-64 37.12 23.68 23.68 0 0 1-19.84 0 22.4 22.4 0 0 1-10.24-16 19.84 19.84 0 0 0-18.56-16.64A19.2 19.2 0 0 0 768 896a21.12 21.12 0 0 1-10.24 16 23.04 23.04 0 0 1-12.16 4.48z m-21.12-58.24l8.32 4.48a68.48 68.48 0 0 1 108.8 0l11.52-6.4a64 64 0 0 1-5.76-26.24 64 64 0 0 1 64-64 58.88 58.88 0 0 0 0-10.24 48.64 48.64 0 0 0 0-9.6 64 64 0 0 1-64-64 68.48 68.48 0 0 1 5.76-27.52 117.12 117.12 0 0 0-15.36-8.32 68.48 68.48 0 0 1-102.4 0l-16 8.32a69.12 69.12 0 0 1 6.4 27.52 64 64 0 0 1-64 64 72.32 72.32 0 0 0 0 19.2 64 64 0 0 1 64 64 64 64 0 0 1-1.28 28.8z" fill="#e6e6e6" p-id="8047"></path><path d="M786.56 814.08a64 64 0 1 1 64-64 64 64 0 0 1-64 64z m0-74.88a14.08 14.08 0 0 0-14.08 14.08c0 15.36 28.16 15.36 28.16 0a14.08 14.08 0 0 0-14.08-14.08zM518.4 554.88a272 272 0 1 1 272-272 272 272 0 0 1-272 272z m0-481.28a209.28 209.28 0 1 0 209.28 209.28A209.28 209.28 0 0 0 518.4 73.6z" fill="#e6e6e6" p-id="8048"></path><path d="M640 1013.76H67.84v-70.4a451.2 451.2 0 0 1 448-448 31.36 31.36 0 0 1 0 64 388.48 388.48 0 0 0-387.84 384v7.68h512a31.36 31.36 0 1 1 0 64z" fill="#e6e6e6" p-id="8049"></path></svg>