<?xml version="1.0" standalone="no"?><!DOCTYPE svg PUBLIC "-//W3C//DTD SVG 1.1//EN" "http://www.w3.org/Graphics/SVG/1.1/DTD/svg11.dtd"><svg t="1653104552747" class="icon" viewBox="0 0 1024 1024" version="1.1" xmlns="http://www.w3.org/2000/svg" p-id="16631" xmlns:xlink="http://www.w3.org/1999/xlink" width="128" height="128"><defs><style type="text/css">@font-face { font-family: feedback-iconfont; src: url("//at.alicdn.com/t/font_1031158_u69w8yhxdu.woff2?t=1630033759944") format("woff2"), url("//at.alicdn.com/t/font_1031158_u69w8yhxdu.woff?t=1630033759944") format("woff"), url("//at.alicdn.com/t/font_1031158_u69w8yhxdu.ttf?t=1630033759944") format("truetype"); }
</style></defs><path d="M924.8 385.6c-22.6-53.4-54.9-101.3-96-142.4-41.1-41.1-89-73.4-142.4-96C631.1 123.8 572.5 112 512 112s-119.1 11.8-174.4 35.2c-53.4 22.6-101.3 54.9-142.4 96-41.1 41.1-73.4 89-96 142.4C75.8 440.9 64 499.5 64 560c0 132.7 58.3 257.7 159.9 343.1l1.7 1.4c5.8 4.8 13.1 7.5 20.6 7.5h531.7c7.5 0 14.8-2.7 20.6-7.5l1.7-1.4C901.7 817.7 960 692.7 960 560c0-60.5-11.9-119.1-35.2-174.4zM761.4 836H262.6C184.5 765.5 140 665.6 140 560c0-99.4 38.7-192.8 109-263 70.3-70.3 163.7-109 263-109 99.4 0 192.8 38.7 263 109 70.3 70.3 109 163.7 109 263 0 105.6-44.5 205.5-122.6 276z" p-id="16632"></path><path d="M623.5 421.5c-3.1-3.1-8.2-3.1-11.3 0L527.7 506c-18.7-5-39.4-0.2-54.1 14.5-21.9 21.9-21.9 57.3 0 79.2 21.9 21.9 57.3 21.9 79.2 0 14.7-14.7 19.5-35.4 14.5-54.1l84.5-84.5c3.1-3.1 3.1-8.2 0-11.3l-28.3-28.3zM490 320h44c4.4 0 8-3.6 8-8v-80c0-4.4-3.6-8-8-8h-44c-4.4 0-8 3.6-8 8v80c0 4.4 3.6 8 8 8z m260 218v44c0 4.4 3.6 8 8 8h80c4.4 0 8-3.6 8-8v-44c0-4.4-3.6-8-8-8h-80c-4.4 0-8 3.6-8 8z m12.7-197.2l-31.1-31.1c-3.1-3.1-8.2-3.1-11.3 0l-56.6 56.6c-3.1 3.1-3.1 8.2 0 11.3l31.1 31.1c3.1 3.1 8.2 3.1 11.3 0l56.6-56.6c3.1-3.1 3.1-8.2 0-11.3z m-458.6-31.1c-3.1-3.1-8.2-3.1-11.3 0l-31.1 31.1c-3.1 3.1-3.1 8.2 0 11.3l56.6 56.6c3.1 3.1 8.2 3.1 11.3 0l31.1-31.1c3.1-3.1 3.1-8.2 0-11.3l-56.6-56.6zM262 530h-80c-4.4 0-8 3.6-8 8v44c0 4.4 3.6 8 8 8h80c4.4 0 8-3.6 8-8v-44c0-4.4-3.6-8-8-8z" p-id="16633"></path></svg>