<?xml version="1.0" standalone="no"?><!DOCTYPE svg PUBLIC "-//W3C//DTD SVG 1.1//EN" "http://www.w3.org/Graphics/SVG/1.1/DTD/svg11.dtd"><svg t="1639799836562" class="icon" viewBox="0 0 1024 1024" version="1.1" xmlns="http://www.w3.org/2000/svg" p-id="2215" xmlns:xlink="http://www.w3.org/1999/xlink" width="128" height="128"><defs><style type="text/css"></style></defs><path d="M487.112351 943.649605c0 21.881659-17.90207 39.783729-39.783729 39.783729H182.339049c-21.881659 0-39.783729-17.90207-39.783729-39.783729V80.350395c0-21.881659 17.90207-39.783729 39.783729-39.783729H447.328622c21.881659 0 39.783729 17.90207 39.783729 39.783729v863.29921z" fill="#ADD8FF" p-id="2216"></path><path d="M314.833835 790.482046m-65.640921 0a65.640922 65.640922 0 1 0 131.281843 0 65.640922 65.640922 0 1 0-131.281843 0Z" fill="#F0F0FF" p-id="2217"></path><path d="M314.833835 155.500143v63.653155M314.833835 282.806453v334.180078" fill="#F0F0FF" p-id="2218"></path><path d="M466.829018 943.649605a19.524736 19.524736 0 0 1-19.500396 19.500397H182.339049a19.524736 19.524736 0 0 1-19.500397-19.500397V80.350395A19.520679 19.520679 0 0 1 182.339049 60.849998H447.328622a19.524736 19.524736 0 0 1 19.500396 19.500397v863.29921z m40.562609 0V80.350395C507.391627 47.231769 480.447247 20.283333 447.328622 20.283333H182.339049C149.220423 20.283333 122.276043 47.231769 122.276043 80.350395v863.29921c0 33.118626 26.944379 60.067062 60.067062 60.067062h264.989573c33.118626 0 60.063005-26.948436 60.058949-60.067062z" fill="#6E6E96" p-id="2219"></path><path d="M888.72234 939.592939c0 21.881659-17.90207 39.783729-39.783729 39.783729h-264.989573c-21.881659 0-39.783729-17.90207-39.783729-39.783729V76.293728c0-21.881659 17.90207-39.783729 39.783729-39.783729h264.985517c21.881659 0 39.783729 17.90207 39.783729 39.783729l0.004056 863.299211z" fill="#FF9C9C" p-id="2220"></path><path d="M716.443825 786.42538m-65.640922 0a65.640922 65.640922 0 1 0 131.281843 0 65.640922 65.640922 0 1 0-131.281843 0Z" fill="#F0F0FF" p-id="2221"></path><path d="M716.443825 151.443476v63.653155M716.443825 278.749786v334.180078" fill="#F0F0FF" p-id="2222"></path><path d="M868.439007 939.592939a19.524736 19.524736 0 0 1-19.500396 19.500396h-264.989573a19.524736 19.524736 0 0 1-19.500396-19.500396V76.293728A19.520679 19.520679 0 0 1 583.949038 56.793332h264.985517a19.524736 19.524736 0 0 1 19.500396 19.500396l0.004056 863.299211z m40.562609 0V76.293728C909.001616 43.175102 882.061294 16.226666 848.938611 16.226666h-264.985516c-33.118626 0-60.067062 26.948436-60.067062 60.067062v863.299211c0 33.118626 26.948436 60.067062 60.067062 60.067062h264.989573c33.118626 0 60.063005-26.948436 60.058948-60.067062z" fill="#6E6E96" p-id="2223"></path></svg>