<?xml version="1.0" standalone="no"?><!DOCTYPE svg PUBLIC "-//W3C//DTD SVG 1.1//EN" "http://www.w3.org/Graphics/SVG/1.1/DTD/svg11.dtd"><svg t="1653104348939" class="icon" viewBox="0 0 1024 1024" version="1.1" xmlns="http://www.w3.org/2000/svg" p-id="10844" xmlns:xlink="http://www.w3.org/1999/xlink" width="128" height="128"><defs><style type="text/css">@font-face { font-family: feedback-iconfont; src: url("//at.alicdn.com/t/font_1031158_u69w8yhxdu.woff2?t=1630033759944") format("woff2"), url("//at.alicdn.com/t/font_1031158_u69w8yhxdu.woff?t=1630033759944") format("woff"), url("//at.alicdn.com/t/font_1031158_u69w8yhxdu.ttf?t=1630033759944") format("truetype"); }
</style></defs><path d="M862.4 250.8L562.6 77.7c-31.2-18-70-18-101.1 0L161.6 250.8c-31.2 18-50.6 51.6-50.6 87.6v346.2c0 36 19.4 69.6 50.6 87.6l299.8 173.1c15.6 9 33.1 13.5 50.6 13.5s35-4.5 50.6-13.5l299.8-173.1c31.2-18 50.6-51.6 50.6-87.6V338.4c0-36-19.4-69.6-50.6-87.6zM843 684.6c0 11.1-6 21.4-15.6 27L527.6 884.7c-9.6 5.5-21.5 5.5-31.1 0L196.6 711.6c-9.6-5.5-15.6-15.9-15.6-27V338.4c0-11.1 6-21.4 15.6-27l299.8-173.1c4.8-2.8 10.2-4.2 15.6-4.2s10.8 1.4 15.6 4.2l299.8 173.1c9.6 5.5 15.6 15.9 15.6 27v346.2z" p-id="10845"></path><path d="M409.5 566H408c-19.1 0-34.7 15.5-34.7 34.7v52.8c0 19.1 15.5 34.7 34.7 34.7h1.5c19.1 0 34.7-15.5 34.7-34.7v-52.8c0-19.2-15.5-34.7-34.7-34.7zM511.9 407.1h-1.5c-19.1 0-34.7 15.5-34.7 34.7v211.7c0 19.1 15.5 34.7 34.7 34.7h1.5c19.1 0 34.7-15.5 34.7-34.7V441.8c0-19.2-15.6-34.7-34.7-34.7zM614.2 485.3h-1.5c-19.1 0-34.7 15.5-34.7 34.7v133.6c0 19.1 15.5 34.7 34.7 34.7h1.5c19.1 0 34.7-15.5 34.7-34.7V519.9c0-19.1-15.5-34.6-34.7-34.6z" p-id="10846"></path></svg>