<?xml version="1.0" standalone="no"?><!DOCTYPE svg PUBLIC "-//W3C//DTD SVG 1.1//EN" "http://www.w3.org/Graphics/SVG/1.1/DTD/svg11.dtd"><svg t="1634054280919" class="icon" viewBox="0 0 1024 1024" version="1.1" xmlns="http://www.w3.org/2000/svg" p-id="4073" xmlns:xlink="http://www.w3.org/1999/xlink" width="200" height="200"><defs><style type="text/css"></style></defs><path d="M412.16 572.928c-139.264 0-252.928-113.664-252.928-252.928s113.664-252.928 252.928-252.928 252.928 113.664 252.928 252.928-113.664 252.928-252.928 252.928z m0-454.656c-111.104 0-201.728 90.624-201.728 201.728s90.624 201.728 201.728 201.728 201.728-90.624 201.728-201.728-90.624-201.728-201.728-201.728z" p-id="4074"></path><path d="M818.688 974.336c-14.336 0-25.6-11.264-25.6-25.6 0-201.728-163.84-365.568-365.568-365.568s-365.568 163.84-365.568 365.568c0 14.336-11.264 25.6-25.6 25.6s-25.6-11.264-25.6-25.6c0-229.888 186.88-416.768 416.768-416.768 229.888 0 416.768 186.88 416.768 416.768 0 14.336-11.264 25.6-25.6 25.6z" p-id="4075"></path><path d="M653.312 475.136h-25.6v-51.2h25.6c90.112 0 163.328-73.216 163.328-163.328S743.424 97.28 653.312 97.28c-37.376 0-72.704 12.288-101.888 35.328l-19.968 15.872-31.744-39.936 19.968-15.872C558.08 61.952 604.16 46.08 653.312 46.08c118.272 0 214.528 96.256 214.528 214.528s-96.256 214.528-214.528 214.528z" p-id="4076"></path><path d="M989.696 799.744c-14.336 0-25.6-11.264-25.6-25.6 0-164.352-134.144-298.496-298.496-298.496-14.336 0-25.6-11.264-25.6-25.6s11.264-25.6 25.6-25.6c193.024 0 349.696 156.672 349.696 349.696 0 14.336-11.264 25.6-25.6 25.6z" p-id="4077"></path></svg>