<?xml version="1.0" standalone="no"?><!DOCTYPE svg PUBLIC "-//W3C//DTD SVG 1.1//EN" "http://www.w3.org/Graphics/SVG/1.1/DTD/svg11.dtd"><svg t="1658706873562" class="icon" viewBox="0 0 1024 1024" version="1.1" xmlns="http://www.w3.org/2000/svg" p-id="5659" xmlns:xlink="http://www.w3.org/1999/xlink" width="128" height="128"><defs><style type="text/css">@font-face { font-family: feedback-iconfont; src: url("//at.alicdn.com/t/font_1031158_u69w8yhxdu.woff2?t=1630033759944") format("woff2"), url("//at.alicdn.com/t/font_1031158_u69w8yhxdu.woff?t=1630033759944") format("woff"), url("//at.alicdn.com/t/font_1031158_u69w8yhxdu.ttf?t=1630033759944") format("truetype"); }
</style></defs><path d="M512.3 920.64c-8.32 0-16.71-1.12-24.99-3.37l-6.12-2.36-349.81-176.58c-40.06-12.61-67.73-50.63-67.73-93.73V379.38c0-43.08 27.67-81.1 67.73-93.71l355.94-178.95c28.6-7.77 58.57-1.92 82.28 16.2 24.49 18.69 38.54 47.33 38.54 78.55v621.05c0 31.22-14.05 59.86-38.53 78.56-16.85 12.85-36.87 19.56-57.31 19.56z m-5.11-65.85c10.67 1.88 18.73-2.63 22.73-5.68 8.16-6.23 12.83-15.91 12.83-26.59V201.47c0-10.68-4.68-20.37-12.83-26.59-4.01-3.06-12.11-7.6-22.73-5.68L152.1 347.7c-13.58 3.72-23.07 16.74-23.07 31.68V644.6c0 14.94 9.48 27.97 23.06 31.67l6.13 2.36 348.97 176.16zM809.98 776.53c-9.67 0-19.25-4.26-25.7-12.45-11.17-14.19-8.74-34.73 5.44-45.91 66.9-52.74 105.26-131.56 105.26-216.27 0-84.73-38.36-163.55-105.25-216.25-14.18-11.17-16.62-31.73-5.44-45.92 11.17-14.14 31.72-16.62 45.91-5.44 82.72 65.19 130.17 162.73 130.17 267.62 0 104.87-47.45 202.4-130.16 267.6-6.02 4.72-13.15 7.02-20.23 7.02z" p-id="5660"></path></svg>