<?xml version="1.0" standalone="no"?><!DOCTYPE svg PUBLIC "-//W3C//DTD SVG 1.1//EN" "http://www.w3.org/Graphics/SVG/1.1/DTD/svg11.dtd"><svg t="1653103706162" class="icon" viewBox="0 0 1024 1024" version="1.1" xmlns="http://www.w3.org/2000/svg" p-id="5095" xmlns:xlink="http://www.w3.org/1999/xlink" width="128" height="128"><defs><style type="text/css">@font-face { font-family: feedback-iconfont; src: url("//at.alicdn.com/t/font_1031158_u69w8yhxdu.woff2?t=1630033759944") format("woff2"), url("//at.alicdn.com/t/font_1031158_u69w8yhxdu.woff?t=1630033759944") format("woff"), url("//at.alicdn.com/t/font_1031158_u69w8yhxdu.ttf?t=1630033759944") format("truetype"); }
</style></defs><path d="M922.60347 767.705615c0 7.167642-2.867057 12.082596-8.498775 14.949653L469.813309 1021.849708 467.663017 1021.849708C466.331883 1023.283236 464.181591 1024 461.314534 1024c-2.867057 0-5.017349-0.716764-6.450877-2.150292L452.713364 1021.849708 8.524374 782.655267C2.892655 779.890605 0.025599 774.873256 0.025599 767.705615L0.025599 255.219239 0.025599 253.068947c0-1.331133 0.716764-2.867057 2.150292-4.300585L2.175891 246.720464l4.300585-4.300585 2.150292-2.150292L452.713364 1.075146c5.734113-1.433528 11.365832-1.433528 17.099945 0l444.188991 239.19444 2.150292 2.150292 4.300585 4.300585 0 2.150292L922.60347 253.068947l0 2.150292L922.60347 767.705615zM34.225489 757.056547l409.989101 222.094495 0-474.088296L34.225489 282.968252 34.225489 757.056547zM655.660017 370.515874 247.718814 150.571671 53.373331 255.219239 461.314534 475.163442 655.660017 370.515874zM284.068997 131.321434 691.907805 351.265637l177.245538-96.148793L461.314534 35.275036 284.068997 131.321434zM888.40358 757.056547l0-474.088296L478.414479 505.062747l0 474.088296L888.40358 757.056547z" p-id="5096"></path></svg>