<?xml version="1.0" standalone="no"?><!DOCTYPE svg PUBLIC "-//W3C//DTD SVG 1.1//EN" "http://www.w3.org/Graphics/SVG/1.1/DTD/svg11.dtd"><svg t="1665307144705" class="icon" viewBox="0 0 1024 1024" version="1.1" xmlns="http://www.w3.org/2000/svg" p-id="4267" xmlns:xlink="http://www.w3.org/1999/xlink" width="64" height="64"><path d="M575.764966 895.884854H223.765304A95.805493 95.805493 0 0 1 127.880338 799.999887V224.000113c0-25.648316 9.930595-49.808308 28.061426-67.942751s42.182449-28.177024 67.82354-28.177024h575.999775A96.202861 96.202861 0 0 1 895.884854 224.000113v351.999661a31.970084 31.970084 0 1 0 63.940168 0V224.000113A160.031044 160.031044 0 0 0 799.765079 63.940169H223.765304A159.702312 159.702312 0 0 0 63.940169 224.000113v575.999774A159.445829 159.445829 0 0 0 223.765304 959.825022h351.999662a31.970084 31.970084 0 1 0 0-63.940168z" fill="" p-id="4268"></path><path d="M925.376805 758.207581l-83.584612-83.584612a118.27125 118.27125 0 0 0-141.96885-19.221787 32.150706 32.150706 0 0 0-3.912271-4.750357L650.239007 604.975147a254.890078 254.890078 0 0 0 53.767541-156.978534c0-141.383635-114.615462-255.999097-255.999097-255.999097S192.001129 306.612979 192.001129 448.000226s114.615462 255.999097 255.999097 255.999097A254.890078 254.890078 0 0 0 604.975147 650.239007l45.675678 45.675677a32.150706 32.150706 0 0 0 4.750357 3.912272c-25.648316 45.108525-19.250687 103.499988 19.221787 141.968849l83.584612 83.584612a118.206227 118.206227 0 0 0 167.169224 0c46.163357-46.166969 46.163357-121.013092 0-167.172836zM522.719913 624.951934a191.66156 191.66156 0 0 1-182.019961-17.700951 192.745291 192.745291 0 0 1-69.633372-84.53107 191.66156 191.66156 0 0 1 17.70095-182.019961 192.745291 192.745291 0 0 1 84.531071-69.633372 191.66156 191.66156 0 0 1 182.01996 17.70095 192.745291 192.745291 0 0 1 69.633373 84.531071 191.66156 191.66156 0 0 1-17.700951 182.01996A192.745291 192.745291 0 0 1 522.719913 624.951934z m357.407482 255.186298a54.208259 54.208259 0 0 1-76.659567 0L719.875992 796.542783A54.208259 54.208259 0 0 1 796.542783 719.875992l83.584612 83.584612a54.208259 54.208259 0 0 1-0.007225 76.659566z" fill="" p-id="4269"></path></svg>