<?xml version="1.0" standalone="no"?><!DOCTYPE svg PUBLIC "-//W3C//DTD SVG 1.1//EN" "http://www.w3.org/Graphics/SVG/1.1/DTD/svg11.dtd"><svg t="1653104132734" class="icon" viewBox="0 0 1024 1024" version="1.1" xmlns="http://www.w3.org/2000/svg" p-id="3670" xmlns:xlink="http://www.w3.org/1999/xlink" width="128" height="128"><defs><style type="text/css">@font-face { font-family: feedback-iconfont; src: url("//at.alicdn.com/t/font_1031158_u69w8yhxdu.woff2?t=1630033759944") format("woff2"), url("//at.alicdn.com/t/font_1031158_u69w8yhxdu.woff?t=1630033759944") format("woff"), url("//at.alicdn.com/t/font_1031158_u69w8yhxdu.ttf?t=1630033759944") format("truetype"); }
</style></defs><path d="M512 627.2c-64 0-115.2-51.2-115.2-115.2s51.2-115.2 115.2-115.2 115.2 51.2 115.2 115.2S576 627.2 512 627.2zM512 448c-35.84 0-64 28.16-64 64s28.16 64 64 64 64-28.16 64-64S547.84 448 512 448z" p-id="3671"></path><path d="M153.6 627.2c-64 0-115.2-51.2-115.2-115.2s51.2-115.2 115.2-115.2 115.2 51.2 115.2 115.2S215.04 627.2 153.6 627.2zM153.6 448c-35.84 0-64 28.16-64 64s28.16 64 64 64 64-28.16 64-64S186.88 448 153.6 448z" p-id="3672"></path><path d="M870.4 627.2c-64 0-115.2-51.2-115.2-115.2s51.2-115.2 115.2-115.2 115.2 51.2 115.2 115.2S934.4 627.2 870.4 627.2zM870.4 448c-35.84 0-64 28.16-64 64s28.16 64 64 64 64-28.16 64-64S906.24 448 870.4 448z" p-id="3673"></path></svg>