<?xml version="1.0" standalone="no"?><!DOCTYPE svg PUBLIC "-//W3C//DTD SVG 1.1//EN" "http://www.w3.org/Graphics/SVG/1.1/DTD/svg11.dtd"><svg t="1639799706460" class="icon" viewBox="0 0 1331 1024" version="1.1" xmlns="http://www.w3.org/2000/svg" p-id="1902" xmlns:xlink="http://www.w3.org/1999/xlink" width="166.375" height="128"><defs><style type="text/css"></style></defs><path d="M134.295082 514.797814l-78.338798 453.245902h559.562842L520.393443 514.797814H134.295082z m1045.794973 0h-386.098361l-78.338798 453.245902h559.562842l-95.125683-453.245902z m-330.142077-458.84153h-386.098361l-78.338797 453.245902h559.562841l-95.125683-453.245902z" fill="#FFD75F" p-id="1903"></path><path d="M435.239169 500.842317l78.685727 374.907104H46.242273l-13.541421 78.338798h559.562842l-95.125683-453.245902H435.239169z m-1.169486-5.595628h487.742951l-95.125683-453.245902h-61.898842l78.685727 374.907104-414.5913 5.595628h-54.059367L385.51082 481.224044l48.558863 14.022645z m722.76494 5.595628h-40.792131l57.579016 374.907104H705.944481l-13.547017 78.338798h559.562842l-95.125683-453.245902z" fill="#F0C237" p-id="1904"></path><path d="M418.737661 481.224044l123.747323-335.737705 284.744743-61.551913h-339.822514zM89.530055 934.469945l123.747322-335.737705 284.750339-61.551912H158.199607zM746.076328 934.469945l123.752918-335.737705 284.744743-61.551912h-339.822514z" fill="#FFFFFF" opacity=".64" p-id="1905"></path><path d="M55.956284 996.021858h559.562842a27.983738 27.983738 0 0 0 27.385005-33.730448l-95.125683-453.245902A27.978142 27.978142 0 0 0 520.393443 486.819672H134.295082a27.966951 27.966951 0 0 0-27.569661 23.210667l-78.338798 453.245901a27.95576 27.95576 0 0 0 6.166382 22.785399A27.950164 27.950164 0 0 0 55.956284 996.021858z m78.338798-453.245902h386.098361a27.994929 27.994929 0 0 1-27.390601-22.231431l95.125683 453.245901a27.989333 27.989333 0 0 1 27.390601-33.736043H55.956284c8.253552 0 16.087432 3.642754 21.403279 9.949027a27.994929 27.994929 0 0 1 6.166382 22.785399l78.338798-453.245902A27.978142 27.978142 0 0 1 134.295082 542.775956zM715.652896 996.021858h559.562842a28.000525 28.000525 0 0 0 27.390601-33.730448l-95.125683-453.245902A28.000525 28.000525 0 0 0 1180.090055 486.819672h-386.098361a27.978142 27.978142 0 0 0-27.569661 23.210667l-78.338798 453.245901a27.994929 27.994929 0 0 0 27.569661 32.745618z m78.338798-453.245902h386.098361a27.989333 27.989333 0 0 1-27.385006-22.231431l95.125683 453.245901a27.978142 27.978142 0 0 1 27.385006-33.736043h-559.562842c8.259148 0 16.087432 3.642754 21.403279 9.949027a27.994929 27.994929 0 0 1 6.166382 22.785399l78.338798-453.245902A27.983738 27.983738 0 0 1 793.991694 542.775956z" fill="#6E6E96" p-id="1906"></path><path d="M385.51082 537.180328h559.562841a27.994929 27.994929 0 0 0 27.390601-33.724853l-95.125683-453.245901A28.000525 28.000525 0 0 0 849.947978 27.978142h-386.098361a27.978142 27.978142 0 0 0-27.569661 23.210667l-78.338798 453.245901A27.966951 27.966951 0 0 0 385.51082 537.180328z m78.338797-453.245902h386.098361a27.989333 27.989333 0 0 1-27.385005-22.231431l95.125683 453.245901a28.000525 28.000525 0 0 1 27.385005-33.730448h-559.562841a27.961355 27.961355 0 0 1 27.569661 32.745618l78.338798-453.245902A27.983738 27.983738 0 0 1 463.849617 83.934426z" fill="#6E6E96" p-id="1907"></path><path d="M869.829246 598.73224l303.792262 277.017181L1121.632525 548.371585zM213.277377 598.73224l300.647519 277.017181L444.561486 553.967213zM542.484984 145.486339l300.994448 271.421552-67.556022-321.882929z" fill="#FFFFFF" opacity=".29" p-id="1908"></path><path d="M111.173945 875.749421L231.927607 693.857923l281.997289 181.891498L213.277377 598.73224zM440.437508 422.346842l116.036547-179.871476 287.005377 174.432525L542.484984 145.486339zM769.107934 869.191344l119.371541-171.601136 285.142033 178.159213L869.829246 598.73224z" fill="#FFFFFF" opacity=".63" p-id="1909"></path></svg>