<?xml version="1.0" standalone="no"?><!DOCTYPE svg PUBLIC "-//W3C//DTD SVG 1.1//EN" "http://www.w3.org/Graphics/SVG/1.1/DTD/svg11.dtd"><svg t="1639799941760" class="icon" viewBox="0 0 1024 1024" version="1.1" xmlns="http://www.w3.org/2000/svg" p-id="2534" xmlns:xlink="http://www.w3.org/1999/xlink" width="128" height="128"><defs><style type="text/css"></style></defs><path d="M976.462606 671.952199c0 165.446108-134.105759 299.551867-299.551867 299.551867v-299.551867h299.551867z" fill="#FFCA5F" p-id="2535"></path><path d="M909.685909 669.827718c-22.587485 121.129427-118.014938 216.55688-239.144365 239.144365v60.407502c165.446108 0 299.551867-134.105759 299.551867-299.551867h-60.407502z" fill="#EDBC58" p-id="2536"></path><path d="M955.217793 671.952199c0 74.339851-28.943934 144.231037-81.5121 196.794955s-122.455104 81.5121-196.794954 81.512099c11.739884 0 21.244813 9.509178 21.244813 21.244813v-299.551867c0 11.739884-9.504929 21.244813-21.244813 21.244813h299.551867a21.244813 21.244813 0 0 1-21.244813-21.244813z m-299.551868 0v299.551867c0 11.739884 9.509178 21.244813 21.244814 21.244814 85.693079 0 166.249162-33.371353 226.843618-93.953063 60.590207-60.585959 93.953062-141.150539 93.953062-226.843618 0-11.735635-9.504929-21.244813-21.244813-21.244813h-299.551867a21.244813 21.244813 0 0 0-21.244814 21.244813z" fill="#6E6E96" p-id="2537"></path><path d="M119.723021 770.026755L512 512H981.510373C981.510373 252.698556 771.301444 42.489627 512 42.489627S42.489627 252.698556 42.489627 512 252.698556 981.510373 512 981.510373V512" fill="#9BDEEB" p-id="2538"></path><path d="M507.751037 38.240664c-98.291253 0-189.512232 30.222871-264.918572 81.856265C288.122158 109.818689 344.013012 106.224066 412.149378 106.224066c249.558573 0 485.223037 89.712598 485.223037 339.275419h-451.877178v451.877179c-249.562822 0-368.521029-244.043419-368.52103-493.601992 0-35.687037 1.759071-67.235585 5.48966-95.130025C54.114788 369.094639 38.240664 436.563917 38.240664 507.751037 38.240664 767.052481 248.449593 977.261411 507.751037 977.261411V507.751037H977.261411C977.261411 248.449593 767.052481 38.240664 507.751037 38.240664z" fill="#8CC8D4" p-id="2539"></path><path d="M97.726141 545.991701C97.726141 307.811851 295.570589 114.721992 539.618257 114.721992c221.277477 0 404.564979 158.736996 436.844349 365.890921C962.402788 233.947884 757.942705 38.240664 507.751037 38.240664 248.449593 38.240664 38.240664 248.449593 38.240664 507.751037S248.449593 977.261411 507.751037 977.261411v-1.130224C278.578988 960.189079 97.726141 773.719104 97.726141 545.991701z" fill="#C4ECF5" p-id="2540"></path><path d="M131.394921 787.774672l392.281228-258.031004a21.266058 21.266058 0 0 1-11.676149 3.492647H981.510373a21.244813 21.244813 0 0 0 21.244814-21.244813C1002.755187 241.396315 782.607934 21.244813 512 21.244813 241.396315 21.244813 21.244813 241.396315 21.244813 512 21.244813 782.607934 241.396315 1002.755187 512 1002.755187a21.244813 21.244813 0 0 0 21.244813-21.244814V512a21.244813 21.244813 0 1 0-42.489626 0V981.510373a21.244813 21.244813 0 0 1 21.244813-21.244813C264.825095 960.26556 63.73444 759.174905 63.73444 512S264.825095 63.73444 512 63.73444 960.26556 264.825095 960.26556 512a21.244813 21.244813 0 0 1 21.244813-21.244813H512c-4.151237 0-8.208996 1.215203-11.676149 3.496896l-392.27698 258.022506a21.244813 21.244813 0 0 0 23.34805 35.500083z" fill="#6E6E96" p-id="2541"></path><path d="M490.755187 551.400631l-306.184498 251.381377-34.824498-27.082888z" fill="#C4ECF5" p-id="2542"></path></svg>