<?xml version="1.0" standalone="no"?><!DOCTYPE svg PUBLIC "-//W3C//DTD SVG 1.1//EN" "http://www.w3.org/Graphics/SVG/1.1/DTD/svg11.dtd"><svg t="1653103639871" class="icon" viewBox="0 0 1024 1024" version="1.1" xmlns="http://www.w3.org/2000/svg" p-id="25719" xmlns:xlink="http://www.w3.org/1999/xlink" width="128" height="128"><defs><style type="text/css">@font-face { font-family: feedback-iconfont; src: url("//at.alicdn.com/t/font_1031158_u69w8yhxdu.woff2?t=1630033759944") format("woff2"), url("//at.alicdn.com/t/font_1031158_u69w8yhxdu.woff?t=1630033759944") format("woff"), url("//at.alicdn.com/t/font_1031158_u69w8yhxdu.ttf?t=1630033759944") format("truetype"); }
</style></defs><path d="M1024 962.752 0 962.752l0-87.424C0 726.656 120 606.72 268.544 606.72l486.464 0c148.48 0 268.992 119.936 268.992 268.544L1024 962.752zM51.008 911.232l921.472 0 0-35.968c0-120.064-97.024-217.472-217.472-217.472L268.544 657.792c-120 0-217.536 97.408-217.536 217.472L51.008 911.232zM512 598.72c-148.48 0-268.992-120-268.992-268.48S363.52 61.248 512 61.248s268.416 120.512 268.416 268.992C780.416 476.224 660.48 598.72 512 598.72zM512 112.768c-120.512 0-217.984 97.024-217.984 217.472 0 120.512 97.472 217.472 217.984 217.472 120 0 217.472-96.96 217.472-217.472C729.472 209.728 632 112.768 512 112.768z" p-id="25720"></path></svg>