<?xml version="1.0" encoding="UTF-8"?>
<svg xmlns="http://www.w3.org/2000/svg" xmlns:xlink="http://www.w3.org/1999/xlink" version="1.1" width="99" height="38" viewBox="0 0 99 38">
<desc>Created with Sketch.</desc>
<defs>
</defs>
<g transform="matrix(1 0 0 1 46.5 19)"  >
<g style=""   >
		<g transform="matrix(1 0 0 1 1.81 6.25)" id="Fill-1"  >
<path style="stroke: none; stroke-width: 1; stroke-dasharray: none; stroke-linecap: butt; stroke-dashoffset: 0; stroke-linejoin: miter; stroke-miterlimit: 4; fill: rgb(255,255,255); fill-rule: evenodd; opacity: 1;"  transform=" translate(-48.31, -25.25)" d="M 48.7217 20.9722 C 47.9585333 22.9672 46.5372278 26.6806444 45.64845 28.6851444 L 45.5497556 28.9083944 L 47.8160333 29.7296167 L 47.9020611 29.53645 C 49.0352 26.9994222 50.0443111 24.4639778 50.98745 21.78445 L 51.0629222 21.5707 L 48.8013944 20.7647833 L 48.7217 20.9722 Z" stroke-linecap="round" />
</g>
		<g transform="matrix(1 0 0 1 1.81 -7.31)" id="Fill-3"  >
<path style="stroke: none; stroke-width: 1; stroke-dasharray: none; stroke-linecap: butt; stroke-dashoffset: 0; stroke-linejoin: miter; stroke-miterlimit: 4; fill: rgb(255,255,255); fill-rule: evenodd; opacity: 1;"  transform=" translate(-48.31, -11.69)" d="M 47.1649139 12.3122639 C 47.8679139 12.8548194 48.6648583 13.4702083 49.1651917 13.900875 L 49.3451639 14.0560417 L 50.8377194 12.1660694 L 50.6756917 12.0235694 C 49.988525 11.4197917 48.896025 10.556875 47.4272194 9.459625 L 47.2467194 9.32451389 L 45.7889972 11.2324306 L 45.9610528 11.3717639 C 46.2756083 11.625625 46.7068028 11.9586528 47.1649139 12.3122639" stroke-linecap="round" />
</g>
		<g transform="matrix(1 0 0 1 1.57 -2.15)" id="Fill-5"  >
<path style="stroke: none; stroke-width: 1; stroke-dasharray: none; stroke-linecap: butt; stroke-dashoffset: 0; stroke-linejoin: miter; stroke-miterlimit: 4; fill: rgb(255,255,255); fill-rule: evenodd; opacity: 1;"  transform=" translate(-48.07, -16.85)" d="M 49.3460611 19.4095556 L 50.8391444 17.5185278 L 50.6734222 17.3765556 C 49.4901444 16.36375 48.1627833 15.3161111 46.9346444 14.4262778 L 46.7546722 14.2953889 L 45.29695 16.2122778 L 45.4848389 16.3495 C 46.6823667 17.2224444 47.9891444 18.2547778 49.1660889 19.2565 L 49.3460611 19.4095556 Z" stroke-linecap="round" />
</g>
		<g transform="matrix(1 0 0 1 12.72 -0.08)" id="Fill-7"  >
<path style="stroke: none; stroke-width: 1; stroke-dasharray: none; stroke-linecap: butt; stroke-dashoffset: 0; stroke-linejoin: miter; stroke-miterlimit: 4; fill: rgb(255,255,255); fill-rule: evenodd; opacity: 1;"  transform=" translate(-59.22, -18.92)" d="M 61.7289417 12.4118028 L 61.1299139 14.4353028 L 57.313025 14.4353028 L 56.7139972 12.4118028 L 61.7289417 12.4118028 Z M 61.1631639 23.673525 L 61.1631639 24.8393861 C 61.1631639 25.0135528 61.0211917 25.1549972 60.8475528 25.1549972 L 57.279775 25.1549972 L 57.279775 23.673525 L 61.1631639 23.673525 Z M 60.5324694 7.83069167 L 57.9109972 7.83069167 L 57.9109972 10.2194139 L 50.8561917 10.2194139 L 50.8561917 12.4118028 L 54.1136361 12.4144417 L 54.8256083 14.4379417 L 51.456275 14.434775 L 51.456275 30.0158306 L 53.8661083 30.0158306 L 53.8661083 16.6276917 L 58.0165528 16.6276917 L 58.0165528 17.9587472 L 54.5020806 17.9587472 L 54.5020806 20.1511361 L 58.0165528 20.1511361 L 58.0165528 21.4811361 L 55.0879139 21.4811361 L 55.0879139 27.3473861 L 61.7706361 27.3473861 C 62.6441083 27.3473861 63.355025 26.6364694 63.355025 25.7619417 L 63.355025 21.4811361 L 60.4263861 21.4811361 L 60.4263861 20.1511361 L 63.7170806 20.1511361 L 63.7170806 17.9587472 L 60.4263861 17.9587472 L 60.4263861 16.6276917 L 64.5773583 16.6276917 L 64.5773583 26.965275 C 64.5773583 27.4381639 64.1920806 27.8229139 63.7186639 27.8229139 L 61.1003583 27.8229139 L 61.7431917 30.0158306 L 64.0448306 30.0158306 C 65.6666917 30.0158306 66.9866639 28.6958583 66.9866639 27.0734694 L 66.9866639 14.4353028 L 63.6168028 14.4353028 L 64.3282472 12.4118028 L 67.5862194 12.4118028 L 67.5862194 10.2194139 L 60.5324694 10.2194139 L 60.5324694 7.83069167 Z" stroke-linecap="round" />
</g>
		<g transform="matrix(1 0 0 1 27.17 6.25)" id="Fill-9"  >
<path style="stroke: none; stroke-width: 1; stroke-dasharray: none; stroke-linecap: butt; stroke-dashoffset: 0; stroke-linejoin: miter; stroke-miterlimit: 4; fill: rgb(255,255,255); fill-rule: evenodd; opacity: 1;"  transform=" translate(-73.67, -25.25)" d="M 74.0896028 20.9722 C 73.324325 22.9703667 71.9003806 26.6906722 71.0163528 28.6851444 L 70.9181861 28.9083944 L 73.1839361 29.7296167 L 73.2699639 29.53645 C 74.4009917 27.0025889 75.4101028 24.4666167 76.354825 21.78445 L 76.4302972 21.5707 L 74.1692972 20.7647833 L 74.0896028 20.9722 Z" stroke-linecap="round" />
</g>
		<g transform="matrix(1 0 0 1 27.18 -7.31)" id="Fill-11"  >
<path style="stroke: none; stroke-width: 1; stroke-dasharray: none; stroke-linecap: butt; stroke-dashoffset: 0; stroke-linejoin: miter; stroke-miterlimit: 4; fill: rgb(255,255,255); fill-rule: evenodd; opacity: 1;"  transform=" translate(-73.68, -11.69)" d="M 72.5371972 12.3159583 C 73.2386139 12.8574583 74.033975 13.4712639 74.5332528 13.900875 L 74.713225 14.0560417 L 76.2052528 12.1660694 L 76.043225 12.0235694 C 75.3581694 11.421375 74.2651417 10.5584583 72.7952806 9.459625 L 72.6147806 9.32451389 L 71.1570583 11.2324306 L 71.3291139 11.3717639 C 71.6441972 11.6266806 72.0775028 11.9607639 72.5371972 12.3159583" stroke-linecap="round" />
</g>
		<g transform="matrix(1 0 0 1 26.94 -2.15)" id="Fill-13"  >
<path style="stroke: none; stroke-width: 1; stroke-dasharray: none; stroke-linecap: butt; stroke-dashoffset: 0; stroke-linejoin: miter; stroke-miterlimit: 4; fill: rgb(255,255,255); fill-rule: evenodd; opacity: 1;"  transform=" translate(-73.44, -16.85)" d="M 74.7140167 19.4095556 L 76.2071 17.5185278 L 76.0413778 17.3765556 C 74.8581 16.36375 73.5307389 15.3161111 72.3026 14.4262778 L 72.1226278 14.2953889 L 70.6654333 16.2122778 L 70.8527944 16.3495 C 72.0524333 17.2240278 73.3597389 18.2568889 74.5340444 19.2565 L 74.7140167 19.4095556 Z" stroke-linecap="round" />
</g>
		<g transform="matrix(1 0 0 1 38.09 -0.08)" id="Fill-15"  >
<path style="stroke: none; stroke-width: 1; stroke-dasharray: none; stroke-linecap: butt; stroke-dashoffset: 0; stroke-linejoin: miter; stroke-miterlimit: 4; fill: rgb(255,255,255); fill-rule: evenodd; opacity: 1;"  transform=" translate(-84.59, -18.92)" d="M 87.0968972 12.4118028 L 86.4973417 14.4353028 L 82.6809806 14.4353028 L 82.0819528 12.4118028 L 87.0968972 12.4118028 Z M 86.5305917 23.673525 L 86.5305917 24.8393861 C 86.5305917 25.0135528 86.3886194 25.1549972 86.2155083 25.1549972 L 82.6477306 25.1549972 L 82.6477306 23.673525 L 86.5305917 23.673525 Z M 85.8998972 7.83069167 L 83.278425 7.83069167 L 83.278425 10.2194139 L 76.224675 10.2194139 L 76.224675 12.4118028 L 79.4815917 12.4144417 L 80.1930361 14.4379417 L 76.8242306 14.434775 L 76.8242306 30.0158306 L 79.2335361 30.0158306 L 79.2335361 16.6276917 L 83.3839806 16.6276917 L 83.3839806 17.9587472 L 79.8700361 17.9587472 L 79.8700361 20.1511361 L 83.3839806 20.1511361 L 83.3839806 21.4811361 L 80.4558694 21.4811361 L 80.4558694 27.3473861 L 87.1380639 27.3473861 C 88.0120639 27.3473861 88.7224528 26.6364694 88.7224528 25.7619417 L 88.7224528 21.4811361 L 85.7943417 21.4811361 L 85.7943417 20.1511361 L 89.0845083 20.1511361 L 89.0845083 17.9587472 L 85.7943417 17.9587472 L 85.7943417 16.6276917 L 89.9447861 16.6276917 L 89.9447861 26.965275 C 89.9447861 27.4381639 89.5595083 27.8229139 89.0866194 27.8229139 L 86.4677861 27.8229139 L 87.1106194 30.0158306 L 89.4122583 30.0158306 C 91.0346472 30.0158306 92.3546194 28.6958583 92.3546194 27.0734694 L 92.3546194 14.4353028 L 88.9852861 14.4353028 L 89.6967306 12.4118028 L 92.9536472 12.4118028 L 92.9536472 10.2194139 L 85.8998972 10.2194139 L 85.8998972 7.83069167 Z" stroke-linecap="round" />
</g>
		<g transform="matrix(1 0 0 1 -27.57 -0.07)" id="Fill-17"  >
<path style="stroke: none; stroke-width: 1; stroke-dasharray: none; stroke-linecap: butt; stroke-dashoffset: 0; stroke-linejoin: miter; stroke-miterlimit: 4; fill: rgb(255,255,255); fill-rule: evenodd; opacity: 1;"  transform=" translate(-18.93, -18.93)" d="M 30.0177306 37.7670389 L 7.83839722 37.7670389 C 3.55811944 37.7670389 0.0890361111 34.2974278 0.0890361111 30.0176778 L 0.0890361111 7.83834444 C 0.0890361111 3.55806667 3.55811944 0.0889833333 7.83839722 0.0889833333 L 30.0177306 0.0889833333 C 34.2974806 0.0889833333 37.7670917 3.55806667 37.7670917 7.83834444 L 37.7670917 30.0176778 C 37.7670917 34.2974278 34.2974806 37.7670389 30.0177306 37.7670389" stroke-linecap="round" />
</g>
		<g transform="matrix(1 0 0 1 -27.57 -0.07)" id="Stroke-19"  >
<path style="stroke: none; stroke-width: 1; stroke-dasharray: none; stroke-linecap: butt; stroke-dashoffset: 0; stroke-linejoin: miter; stroke-miterlimit: 4; fill: none; fill-rule: evenodd; opacity: 1;"  transform=" translate(-18.93, -18.93)" d="M 30.0177306 37.7670389 L 7.83839722 37.7670389 C 3.55811944 37.7670389 0.0890361111 34.2974278 0.0890361111 30.0176778 L 0.0890361111 7.83834444 C 0.0890361111 3.55806667 3.55811944 0.0889833333 7.83839722 0.0889833333 L 30.0177306 0.0889833333 C 34.2974806 0.0889833333 37.7670917 3.55806667 37.7670917 7.83834444 L 37.7670917 30.0176778 C 37.7670917 34.2974278 34.2974806 37.7670389 30.0177306 37.7670389 Z" stroke-linecap="round" />
</g>
		<g transform="matrix(1 0 0 1 -27.16 0.77)" id="Fill-21"  >
<path style="stroke: none; stroke-width: 1; stroke-dasharray: none; stroke-linecap: butt; stroke-dashoffset: 0; stroke-linejoin: miter; stroke-miterlimit: 4; fill: rgb(255,100,0); fill-rule: evenodd; opacity: 1;"  transform=" translate(-19.34, -19.77)" d="M 19.419425 25.8178333 C 23.9799528 25.6753333 27.5957583 22.0463333 27.6490639 17.5401667 L 27.6490639 13.6662778 L 32.6666472 13.6662778 L 32.6666472 17.9497222 C 32.5690083 24.9169167 26.5122306 30.41425 19.419425 30.5720556 L 19.419425 30.571 C 12.2105083 30.5261389 6.10675833 24.9902778 6.00736001 17.9486667 L 6.00736001 10.2483889 C 5.99645278 9.46094444 6.50945278 8.95005556 7.28423056 8.96113889 L 27.6469528 8.96008333 L 27.6469528 13.6641667 L 11.6790361 13.6683889 C 11.2694806 13.6683889 11.0230083 13.9180278 11.0230083 14.3238889 L 11.0230083 17.4620556 C 11.0773694 22.0278611 14.7554528 25.7708611 19.4183694 25.8178333 L 19.419425 25.8178333 Z" stroke-linecap="round" />
</g>
</g>
</g>
</svg>