<?xml version="1.0" encoding="UTF-8"?>
<svg xmlns="http://www.w3.org/2000/svg" xmlns:xlink="http://www.w3.org/1999/xlink" version="1.1" width="99" height="38" viewBox="0 0 99 38">
<desc>Created with Sketch.</desc>
<defs>
</defs>
<g transform="matrix(1 0 0 1 46.5 19)"  >
<g style=""   >
		<g transform="matrix(1 0 0 1 2 6.5)" id="Fill-1"  >
<path style="stroke: none; stroke-width: 1; stroke-dasharray: none; stroke-linecap: butt; stroke-dashoffset: 0; stroke-linejoin: miter; stroke-miterlimit: 4; fill: rgb(40,40,40); fill-rule: evenodd; opacity: 1;"  transform=" translate(-48.5, -25.5)" d="M 48.8766992 21.2082303 C 48.1845683 23.2110562 46.8955581 26.9390675 46.0895079 28.9514306 L 46 29.1755563 L 48.0553322 30 L 48.1333525 29.8060756 C 49.1610186 27.2590957 50.0762014 24.7137054 50.9315527 22.0236665 L 51 21.8090781 L 48.9489757 21 L 48.8766992 21.2082303 Z" stroke-linecap="round" />
</g>
		<g transform="matrix(1 0 0 1 2 -7.5)" id="Fill-3"  >
<path style="stroke: none; stroke-width: 1; stroke-dasharray: none; stroke-linecap: butt; stroke-dashoffset: 0; stroke-linejoin: miter; stroke-miterlimit: 4; fill: rgb(40,40,40); fill-rule: evenodd; opacity: 1;"  transform=" translate(-48.5, -11.5)" d="M 47.3626385 12.1572783 C 48.0588543 12.7306191 48.8481079 13.3809258 49.3436128 13.836029 L 49.5218482 14 L 51 12.0027886 L 50.8395359 11.852203 C 50.1590006 11.2141662 49.0770437 10.3022867 47.6224127 9.14277747 L 47.4436546 9 L 46 11.016174 L 46.1703951 11.1634133 C 46.4819151 11.4316788 46.9089484 11.7836029 47.3626385 12.1572783" stroke-linecap="round" />
</g>
		<g transform="matrix(1 0 0 1 1.5 -2.5)" id="Fill-5"  >
<path style="stroke: none; stroke-width: 1; stroke-dasharray: none; stroke-linecap: butt; stroke-dashoffset: 0; stroke-linejoin: miter; stroke-miterlimit: 4; fill: rgb(40,40,40); fill-rule: evenodd; opacity: 1;"  transform=" translate(-48, -16.5)" d="M 49.3835825 19 L 51 17.1511868 L 50.8205885 17.0123839 C 49.5395677 16.0221878 48.1025617 14.997936 46.772974 14.127967 L 46.5781354 14 L 45 15.874097 L 45.2034092 16.0082559 C 46.4998572 16.8617131 47.9145796 17.871001 49.1887439 18.8503612 L 49.3835825 19 Z" stroke-linecap="round" />
</g>
		<g transform="matrix(1 0 0 1 12 0)" id="Fill-7"  >
<path style="stroke: none; stroke-width: 1; stroke-dasharray: none; stroke-linecap: butt; stroke-dashoffset: 0; stroke-linejoin: miter; stroke-miterlimit: 4; fill: rgb(40,40,40); fill-rule: evenodd; opacity: 1;"  transform=" translate(-58.5, -19)" d="M 61.0482034 12.5428809 L 60.4395091 14.5494945 L 56.5610272 14.5494945 L 55.9523329 12.5428809 L 61.0482034 12.5428809 Z M 60.4732957 23.7106221 L 60.4732957 24.8667539 C 60.4732957 25.0394671 60.3290325 25.1797312 60.1525916 25.1797312 L 56.5272406 25.1797312 L 56.5272406 23.7106221 L 60.4732957 23.7106221 Z M 59.8324237 8 L 57.1686489 8 L 57.1686489 10.3687879 L 50 10.3687879 L 50 12.5428809 L 53.3100098 12.5454978 L 54.0334711 14.5521113 L 50.6097669 14.5489711 L 50.6097669 30 L 53.0584876 30 L 53.0584876 16.7235875 L 57.2759078 16.7235875 L 57.2759078 18.0435351 L 53.7047225 18.0435351 L 53.7047225 20.2176282 L 57.2759078 20.2176282 L 57.2759078 21.5365291 L 54.3000095 21.5365291 L 54.3000095 27.3538242 L 61.0905707 27.3538242 C 61.9781381 27.3538242 62.7005268 26.6488403 62.7005268 25.7816106 L 62.7005268 21.5365291 L 59.7246285 21.5365291 L 59.7246285 20.2176282 L 63.0684249 20.2176282 L 63.0684249 18.0435351 L 59.7246285 18.0435351 L 59.7246285 16.7235875 L 63.9425849 16.7235875 L 63.9425849 26.9749019 C 63.9425849 27.4438444 63.5510899 27.8253836 63.0700338 27.8253836 L 60.4094766 27.8253836 L 61.0626834 30 L 63.4014638 30 C 65.0494968 30 66.3907694 28.6910432 66.3907694 27.0821934 L 66.3907694 14.5494945 L 62.9665289 14.5494945 L 63.6894539 12.5428809 L 67 12.5428809 L 67 10.3687879 L 59.8324237 10.3687879 L 59.8324237 8 Z" stroke-linecap="round" />
</g>
		<g transform="matrix(1 0 0 1 27 6.5)" id="Fill-9"  >
<path style="stroke: none; stroke-width: 1; stroke-dasharray: none; stroke-linecap: butt; stroke-dashoffset: 0; stroke-linejoin: miter; stroke-miterlimit: 4; fill: rgb(40,40,40); fill-rule: evenodd; opacity: 1;"  transform=" translate(-73.5, -25.5)" d="M 73.8767714 21.2082303 C 73.1825929 23.2142353 71.8909422 26.9491346 71.0890463 28.9514306 L 71 29.1755563 L 73.055247 30 L 73.1332823 29.8060756 C 74.1592302 27.2622748 75.0745883 24.7163546 75.9315396 22.0236665 L 76 21.8090781 L 73.9490617 21 L 73.8767714 21.2082303 Z" stroke-linecap="round" />
</g>
		<g transform="matrix(1 0 0 1 27 -7.5)" id="Fill-11"  >
<path style="stroke: none; stroke-width: 1; stroke-dasharray: none; stroke-linecap: butt; stroke-dashoffset: 0; stroke-linejoin: miter; stroke-miterlimit: 4; fill: rgb(40,40,40); fill-rule: evenodd; opacity: 1;"  transform=" translate(-73.5, -11.5)" d="M 72.3669629 12.1611824 C 73.0616832 12.7334077 73.8494511 13.3820413 74.3439624 13.836029 L 74.5222164 14 L 76 12.0027886 L 75.8395191 11.852203 C 75.1610037 11.2158394 74.0784109 10.3039598 72.6225823 9.14277747 L 72.4438055 9 L 71 11.016174 L 71.170413 11.1634133 C 71.4824882 11.4327942 71.9116571 11.7858338 72.3669629 12.1611824" stroke-linecap="round" />
</g>
		<g transform="matrix(1 0 0 1 26.5 -2.5)" id="Fill-13"  >
<path style="stroke: none; stroke-width: 1; stroke-dasharray: none; stroke-linecap: butt; stroke-dashoffset: 0; stroke-linejoin: miter; stroke-miterlimit: 4; fill: rgb(40,40,40); fill-rule: evenodd; opacity: 1;"  transform=" translate(-73, -16.5)" d="M 74.3834286 19 L 76 17.1511868 L 75.8205714 17.0123839 C 74.5394286 16.0221878 73.1022857 14.997936 71.7725714 14.127967 L 71.5777143 14 L 70 15.874097 L 70.2028571 16.0082559 C 71.5017143 16.8632611 72.9171429 17.873065 74.1885714 18.8503612 L 74.3834286 19 Z" stroke-linecap="round" />
</g>
		<g transform="matrix(1 0 0 1 38 0)" id="Fill-15"  >
<path style="stroke: none; stroke-width: 1; stroke-dasharray: none; stroke-linecap: butt; stroke-dashoffset: 0; stroke-linejoin: miter; stroke-miterlimit: 4; fill: rgb(40,40,40); fill-rule: evenodd; opacity: 1;"  transform=" translate(-84.5, -19)" d="M 87.0483642 12.5428809 L 86.4390952 14.5494945 L 82.5609048 14.5494945 L 81.9521721 12.5428809 L 87.0483642 12.5428809 Z M 86.4728839 23.7106221 L 86.4728839 24.8667539 C 86.4728839 25.0394671 86.3286115 25.1797312 86.1526958 25.1797312 L 82.5271161 25.1797312 L 82.5271161 23.7106221 L 86.4728839 23.7106221 Z M 85.8319715 8 L 83.1680285 8 L 83.1680285 10.3687879 L 76 10.3687879 L 76 12.5428809 L 79.3096823 12.5454978 L 80.0326529 14.5521113 L 76.609269 14.5489711 L 76.609269 30 L 79.057608 30 L 79.057608 16.7235875 L 83.2752942 16.7235875 L 83.2752942 18.0435351 L 79.70442 18.0435351 L 79.70442 20.2176282 L 83.2752942 20.2176282 L 83.2752942 21.5365291 L 80.2997445 21.5365291 L 80.2997445 27.3538242 L 87.0901978 27.3538242 C 87.9783576 27.3538242 88.7002555 26.6488403 88.7002555 25.7816106 L 88.7002555 21.5365291 L 85.7247058 21.5365291 L 85.7247058 20.2176282 L 89.0681768 20.2176282 L 89.0681768 18.0435351 L 85.7247058 18.0435351 L 85.7247058 16.7235875 L 89.942392 16.7235875 L 89.942392 26.9749019 C 89.942392 27.4438444 89.5508723 27.8253836 89.0703221 27.8253836 L 86.4090608 27.8253836 L 87.0623087 30 L 89.4012367 30 C 91.0499101 30 92.3912673 28.6910432 92.3912673 27.0821934 L 92.3912673 14.5494945 L 88.9673471 14.5494945 L 89.6903177 12.5428809 L 93 12.5428809 L 93 10.3687879 L 85.8319715 10.3687879 L 85.8319715 8 Z" stroke-linecap="round" />
</g>
		<g transform="matrix(1 0 0 1 -27.5 0)" id="Fill-17"  >
<path style="stroke: none; stroke-width: 1; stroke-dasharray: none; stroke-linecap: butt; stroke-dashoffset: 0; stroke-linejoin: miter; stroke-miterlimit: 4; fill: rgb(255,255,255); fill-rule: evenodd; opacity: 1;"  transform=" translate(-19, -19)" d="M 7.81557641 38 C 3.49872531 38 0 34.5007424 0 30.1844236 L 0 7.81557641 C 0 3.49872531 3.49872531 0 7.81557641 0 L 30.1844236 0 C 34.5007424 0 38 3.49872531 38 7.81557641 L 38 30.1844236 C 38 34.5007424 34.5007424 38 30.1844236 38 L 7.81557641 38 Z" stroke-linecap="round" />
</g>
		<g transform="matrix(1 0 0 1 -27.5 0)" id="Stroke-19"  >
<path style="stroke: rgb(40,40,40); stroke-width: 0.5; stroke-dasharray: none; stroke-linecap: butt; stroke-dashoffset: 0; stroke-linejoin: miter; stroke-miterlimit: 4; fill: none; fill-rule: evenodd; opacity: 1;"  transform=" translate(-19, -19)" d="M 30.1844236 0.25 C 32.273614 0.25 34.165062 1.09675306 35.5341855 2.46587654 C 36.903224 3.8349151 37.75 5.72625825 37.75 7.81557641 L 37.75 7.81557641 L 37.75 30.1844236 C 37.75 32.2735491 36.9031671 34.1649422 35.5340547 35.5340547 C 34.1649422 36.9031671 32.2735491 37.75 30.1844236 37.75 L 30.1844236 37.75 L 7.81557641 37.75 C 5.72625825 37.75 3.8349151 36.903224 2.46587654 35.5341855 C 1.09675306 34.165062 0.25 32.273614 0.25 30.1844236 L 0.25 30.1844236 L 0.25 7.81557641 C 0.25 5.72619329 1.0966961 3.83479537 2.46574574 2.46574574 C 3.83479537 1.0966961 5.72619329 0.25 7.81557641 0.25 L 7.81557641 0.25 Z" stroke-linecap="round" />
</g>
		<g transform="matrix(1 0 0 1 -27 1)" id="Fill-21"  >
<path style="stroke: none; stroke-width: 1; stroke-dasharray: none; stroke-linecap: butt; stroke-dashoffset: 0; stroke-linejoin: miter; stroke-miterlimit: 4; fill: rgb(255,100,0); fill-rule: evenodd; opacity: 1;"  transform=" translate(-19.5, -20)" d="M 27.9182906 17.7341327 L 27.9182906 13.7906909 L 33 13.7906909 L 33 18.1510415 C 32.9011133 25.2433271 26.7669283 30.8393612 19.5834748 31 C 12.2824262 30.9532589 6.10066866 25.3180053 6 18.149967 L 6 10.3114362 C 5.98895337 9.50985372 6.50850965 8.98979218 7.29318929 9.00107451 L 27.9161525 9 L 27.9161525 13.7885418 L 11.7441616 13.7928399 C 11.3293718 13.7928399 11.0797496 14.0469609 11.0797496 14.4601089 L 11.0797496 17.6546192 C 11.1348055 22.3024005 14.8598957 26.1126035 19.5824057 26.1604191 C 24.2022873 26.0153606 27.8643038 22.3212044 27.9182906 17.7341327 Z" stroke-linecap="round" />
</g>
</g>
</g>
</svg>