<?xml version="1.0" encoding="utf-8"?>
<!-- Generator: Adobe Illustrator 25.0.1, SVG Export Plug-In . SVG Version: 6.00 Build 0)  -->
<svg version="1.1" id="图层_1" xmlns="http://www.w3.org/2000/svg" xmlns:xlink="http://www.w3.org/1999/xlink" x="0px" y="0px"
	 viewBox="0 0 90.6 26.7" style="enable-background:new 0 0 90.6 26.7;" xml:space="preserve">
<style type="text/css">
	.st0{fill-rule:evenodd;clip-rule:evenodd;fill:#DA0E2C;}
	.st1{fill-rule:evenodd;clip-rule:evenodd;fill:#FFFFFF;}
	.st2{fill-rule:evenodd;clip-rule:evenodd;fill:#EFC018;}
	.st3{fill-rule:evenodd;clip-rule:evenodd;fill:#231815;}
	.st4{fill:#231815;}
	.st5{fill:#040000;}
</style>
<g>
	<g>
		<path class="st0" d="M6.5,0.8h15.8c2.6,0,4.7,2.1,4.7,4.7v15.8c0,2.6-2.1,4.7-4.7,4.7H6.5c-2.6,0-4.7-2.1-4.7-4.7V5.5
			C1.8,2.9,3.9,0.8,6.5,0.8z"/>
		<g>
			<path class="st1" d="M5,14.9c-0.1-0.2-0.1-0.3-0.1-0.5v-2.7c0-0.3-0.1-0.6-0.3-0.8c-0.2-0.2-0.5-0.3-0.8-0.3H3.7v0.1v3.7
				c0,0.4,0.1,0.7,0.2,1c0.1,0.3,0.3,0.6,0.6,0.8c0.3,0.3,0.5,0.4,0.8,0.6c0.3,0.1,0.6,0.2,1,0.2h1.2h0.1v-0.1c0-0.1,0-0.3-0.1-0.4
				c-0.1-0.1-0.1-0.2-0.2-0.4l0,0c-0.1-0.1-0.2-0.2-0.4-0.2c-0.1-0.1-0.3-0.1-0.4-0.1H6.3c-0.2,0-0.4,0-0.5-0.1
				c-0.2-0.1-0.3-0.2-0.4-0.3C5.2,15.2,5.1,15,5,14.9z"/>
			<path class="st1" d="M23.7,14.9c0.1-0.2,0.1-0.3,0.1-0.5v-2.7c0-0.3,0.1-0.6,0.3-0.8c0.2-0.2,0.5-0.3,0.8-0.3H25v0.1v3.7
				c0,0.4-0.1,0.7-0.2,1c-0.1,0.3-0.3,0.6-0.6,0.8c-0.3,0.3-0.5,0.4-0.8,0.6c-0.3,0.1-0.6,0.2-1,0.2h-1.2h-0.1v-0.1
				c0-0.1,0-0.3,0.1-0.4c0.1-0.1,0.1-0.2,0.2-0.4l0,0c0.1-0.1,0.2-0.2,0.4-0.2c0.1-0.1,0.3-0.1,0.4-0.1h0.2c0.2,0,0.4,0,0.5-0.1
				c0.2-0.1,0.3-0.2,0.4-0.3C23.5,15.2,23.6,15,23.7,14.9z"/>
			<path class="st1" d="M10,12.9c0.8,0,1.4,0.6,1.4,1.4c0,0.8-0.6,1.4-1.4,1.4c-0.8,0-1.4-0.6-1.4-1.4C8.6,13.6,9.2,12.9,10,12.9
				L10,12.9z M18.7,12.9c-0.8,0-1.4,0.6-1.4,1.4c0,0.8,0.6,1.4,1.4,1.4c0.8,0,1.4-0.6,1.4-1.4C20.1,13.6,19.5,12.9,18.7,12.9
				L18.7,12.9z M18.7,11.7c0.5,0,1,0.1,1.3,0.4v-0.4v-0.1c0-0.3,0.1-0.6,0.3-0.8c0.2-0.2,0.5-0.3,0.8-0.3h0.1v0.1v3.7
				c0,0,0,0.1,0,0.1c0,1.4-1.2,2.5-2.6,2.5c-1.4,0-2.6-1.2-2.6-2.6S17.3,11.7,18.7,11.7L18.7,11.7z M10,11.7c-0.5,0-1,0.1-1.3,0.4
				v-0.4v-0.1c0-0.3-0.1-0.6-0.3-0.8c-0.2-0.2-0.5-0.3-0.8-0.3H7.4v0.1v3.7c0,0,0,0.1,0,0.1c0,1.4,1.2,2.5,2.6,2.5
				c1.4,0,2.6-1.2,2.6-2.6S11.4,11.7,10,11.7L10,11.7z M15.4,14.1c0.2,0.2,0.3,0.5,0.3,0.8v0.1h-0.1h-1.6c-0.1,0-0.3,0-0.4-0.1
				c-0.1-0.1-0.2-0.1-0.4-0.2c-0.1-0.1-0.2-0.2-0.2-0.4C13,14.1,13,14,13,13.8v-0.1h0.1h1.6C14.9,13.7,15.2,13.8,15.4,14.1z"/>
			<path class="st1" d="M20.4,17.5c-1.1,2.3-3.4,3.9-6.1,3.9c-2.7,0-5-1.6-6.1-3.9c1.2,0,1.4,0.1,1.8,0.6c1,1.3,2.6,2.1,4.3,2.1
				c1.7,0,3.3-0.8,4.3-2.1C19.1,17.6,19.2,17.5,20.4,17.5z"/>
			<path class="st2" d="M13.2,5.6L9.5,7.8L5.7,10c0.6,0.3,1.1,0.4,1.7,0.4c0.6,0,1.1-0.2,1.8-0.5l0,0L10.6,9c1.1-0.7,2.3-1.3,3.4-2
				c0.4-0.2,0.5-0.2,0.8,0l0,0c1.1,0.7,2.3,1.3,3.4,2l1.5,0.9l0,0l0,0l0,0l0,0c0.6,0.3,1.2,0.5,1.8,0.5c0.5,0,1.1-0.1,1.7-0.4
				l-3.8-2.3l-3.7-2.2C14.6,5,14.1,5,13.2,5.6z"/>
		</g>
	</g>
	<g>
		<g>
			<path class="st3" d="M43.4,4.9H32.8c-0.4,0-0.7,0.3-0.7,0.7v2.3c0,0.4,0.3,0.7,0.7,0.7h10.6c0.4,0,0.7-0.3,0.7-0.7V5.6
				C44.1,5.2,43.8,4.9,43.4,4.9z M36.9,7.6h-2.6V7.1h2.6V7.6z M36.9,6.3L36.9,6.3l-2.6,0.1V6h2.6V6.3z M41.9,7.6h-2.7V7.1h2.7V7.6z
				 M41.9,6.3L41.9,6.3l-2.6,0.1h-0.1V6h0.1h1.9h0.7V6.3z"/>
			<path class="st4" d="M44.2,10.2H32c-0.2,0-0.4-0.2-0.4-0.4V9.4C31.6,9.2,31.8,9,32,9h12.2c0.2,0,0.4,0.2,0.4,0.4v0.3
				C44.7,10,44.5,10.2,44.2,10.2z"/>
			<path class="st3" d="M43.3,3.3h-0.5h-2h-5.6l0.2-0.3h-2l-0.9,1.6h2l0.1-0.2h5.7l-0.9,0.5h-5.7c0,0,0,0,0,0h9.2c0,0,0,0,0,0h-0.1
				h-0.1l0.8-0.5c0.2-0.1,0.4-0.3,0.4-0.5v0C43.8,3.6,43.6,3.3,43.3,3.3z"/>
			<g>
				<path class="st4" d="M74.1,9.1V3.8V3.3c0-0.1-0.1-0.1-0.1-0.1h-1.8c-0.1,0-0.1,0.1-0.1,0.1v9.1c0,0,0,0,0,0v0.3
					c0,0.1,0,0.3-0.1,0.4c-0.1,0.1-0.2,0.1-0.3,0.1h-1.7l-0.7,1.6h1.6v0H73h0.5c0.3,0,0.6-0.3,0.6-0.6V9.1
					C74.1,9.1,74.1,9.1,74.1,9.1z"/>
				<path class="st4" d="M69.3,12.5h1.5c0.1,0,0.1-0.1,0.1-0.1V3.9c0-0.1-0.1-0.1-0.1-0.1h-1.5c-0.1,0-0.1,0.1-0.1,0.1v8.5
					C69.2,12.5,69.3,12.5,69.3,12.5z"/>
				<path class="st4" d="M61.4,11.5h2.5v1.2c0,0.1,0.1,0.1,0.1,0.1h1.6c0.1,0,0.1-0.1,0.1-0.1v-1.2h2.5c0.1,0,0.1-0.1,0.1-0.1v-1.3
					c0-0.1-0.1-0.1-0.1-0.1h-2.5V8.8c0-0.1-0.1-0.1-0.1-0.1H64c-0.1,0-0.1,0.1-0.1,0.1v1.1h-2.5c-0.1,0-0.1,0.1-0.1,0.1v1.3
					C61.2,11.5,61.3,11.5,61.4,11.5z"/>
				<path class="st4" d="M68.4,13.3h-7.2c-0.1,0-0.1,0.1-0.1,0.1v1.3c0,0.1,0.1,0.1,0.1,0.1h7.2c0.1,0,0.1-0.1,0.1-0.1v-1.3
					C68.5,13.3,68.5,13.3,68.4,13.3z"/>
			</g>
			<path class="st4" d="M68.4,3.1h-7.3c-0.1,0-0.1,0.1-0.1,0.1v1.3c0,0.1,0.1,0.1,0.1,0.1h1.4L61.1,7c-0.2,1,0.3,1.4,1.4,1.4h2.1v0
				h2.1c0.6,0,1.1-0.2,1.3-0.6c0.2-0.3,0.4-0.7,0.4-1.2v0c0,0,0,0,0,0V5.7c0,0,0,0,0,0v0h0c0-0.1-0.1-0.1-0.1-0.1h-1.6
				c-0.1,0-0.1,0.1-0.1,0.1V6c0,0.6-0.3,0.8-0.6,0.8h-1.4v0h-0.8l1.3-2h3.4c0.1,0,0.1-0.1,0.1-0.1V3.3C68.5,3.2,68.5,3.1,68.4,3.1z"
				/>
			<g>
				<path class="st4" d="M51.1,12.1h1.1c0.1,0,0.2-0.1,0.2-0.2V3.6c0-0.1-0.1-0.2-0.2-0.2h-1.1c-0.1,0-0.2,0.1-0.2,0.2v8.3
					C50.9,12,51,12.1,51.1,12.1z"/>
				<path class="st4" d="M54.6,3.1H53c-0.1,0-0.2,0.1-0.2,0.2v0.4v8v1.1c0,0.1,0,0.2-0.1,0.3c-0.1,0.1-0.2,0.1-0.4,0.1h-0.9h-1.1
					h-0.7V9.8v0h0.7c0.1,0,0.1-0.1,0.1-0.1V8.3c0-0.1-0.1-0.1-0.1-0.1h-0.7V4.9h0.5v0h0.1c0.1,0,0.1-0.1,0.1-0.1V3.4
					c0-0.1-0.1-0.1-0.1-0.1h-0.1h-2.3h-0.8l-1.3,0.9v0.7h1.6v3.3h-0.7c-0.1,0-0.1,0.1-0.1,0.1v1.4c0,0.1,0.1,0.1,0.1,0.1h0.7v0v3.4
					h-1.1v1.6h4.4h0.8h0.1h1.9h0.2h0.5c0.3,0,0.6-0.3,0.6-0.6v-0.6v-0.5v-1.5v-8V3.3C54.8,3.2,54.7,3.1,54.6,3.1z"/>
				<path class="st4" d="M59.2,13.2h-0.7V9.8H59c0.1,0,0.1-0.1,0.1-0.1V8.3c0-0.1-0.1-0.1-0.1-0.1h-0.6V4.9h0.7
					c0.1,0,0.2-0.1,0.2-0.2V3.4c0-0.1-0.1-0.2-0.2-0.2h-0.3h-3.2h-0.2c-0.1,0-0.2,0.1-0.2,0.2v1.3c0,0.1,0.1,0.2,0.2,0.2h0.8v3.3
					h-0.7c-0.1,0-0.1,0.1-0.1,0.1v1.4c0,0.1,0.1,0.1,0.1,0.1h0.7v3.4h-0.8c-0.1,0-0.2,0.1-0.2,0.2v1.3c0,0.1,0.1,0.2,0.2,0.2h0.7
					h1.1h1.1h0.5c0.3,0,0.6-0.3,0.6-0.6v-0.4v0v-0.5C59.3,13.3,59.3,13.2,59.2,13.2z"/>
			</g>
			<g>
				<path class="st3" d="M84.7,9.5c-0.1,0.2,0,0.6,0,0.6s0.9,2.8,1.1,3.8c0.1,0.3,0.2,0.5,0.6,0.8c0.4,0.3,1,0.2,1,0.2h1.3l-1.5-4.7
					c0,0,0-0.1,0-0.1c0,0,0.1,0,0.1,0l1.6-0.3v-1V8.7l-3.6,0.5C85.2,9.2,84.8,9.3,84.7,9.5z"/>
				<path class="st3" d="M88.8,5.2C88.8,5.2,88.8,5.2,88.8,5.2l0-0.8c0,0,0,0,0,0c0,0,0-0.1,0-0.1v0c0-0.5-0.4-0.9-0.9-0.9h-0.6
					c0,0,0,0,0,0c0,0-0.1,0-0.1,0h-4L83,2.8h-2.2L81,3.4h0h-0.8h-2.7c0,0-0.1,0-0.1,0c0,0,0,0,0,0h-0.6c-0.5,0-0.9,0.4-0.9,0.9v0
					c0,0,0,0.1,0,0.1c0,0,0,0,0,0V6c0,0.1,0.1,0.1,0.1,0.1h1.6c0.1,0,0.1-0.1,0.1-0.1V5.4c0-0.1,0-0.3,0.1-0.4
					c0.1-0.1,0.2-0.1,0.3-0.1h2h1.4H82h4.5c0.1,0,0.2,0,0.3,0.1c0.1,0.1,0.1,0.2,0.1,0.4v0.1V6v0c0,0.1,0,0.1,0.1,0.1h0h1.6h0
					c0.1,0,0.1,0,0.1-0.1v0V6h0V5.2z"/>
				<path class="st3" d="M88.7,6.5L88.7,6.5h-0.9h-5h-0.6h-5.4h-0.8c-0.1,0-0.1,0.1-0.1,0.1v0.8c0,0.1,0.1,0.1,0.1,0.1h0.8h5.4h0.6
					h1.6l-8.4,1.2c-0.1,0-0.2,0.1-0.2,0.1v0.9c0,0.1,0.1,0.1,0.2,0.1l3.8-0.5L81,9.2c0,0,0,0,0,0c0.1,0,0.2,0,0.2,0.1
					c0,0.1,0,0.3,0,0.4v0.3l-5.4,1.2c0,0-0.1,0.1-0.1,0.1v0.9c0,0.1,0,0.1,0.1,0.1l5.4-1.2v1l-5.4,1.2c0,0-0.1,0.1-0.1,0.1v0.9
					c0,0.1,0,0.1,0.1,0.1l5.4-1.2V14c0,0.1,0,0.1-0.1,0.2c-0.1,0-0.1,0.1-0.2,0.1h-1l-0.5,0.6h2h1.2H83h0.5c0.3,0,0.6-0.3,0.6-0.6
					v-0.2v-0.5v-0.2v-1.9V9.7c0,0,0-0.6-0.2-0.9c0,0,0,0,0,0l4.5-0.6v0c0.3-0.1,0.5-0.3,0.5-0.6V7.4V6.8V6.7
					C88.8,6.6,88.8,6.5,88.7,6.5z"/>
			</g>
			<path class="st3" d="M43.3,10.5H32.9c-0.4,0-0.7,0.3-0.7,0.7v2.9c0,0.4,0.3,0.7,0.7,0.7h10.4c0.4,0,0.7-0.3,0.7-0.7v-2.9
				C44,10.9,43.7,10.5,43.3,10.5z M41.8,11.8V12v0.1v1.2v0.2v0.1v0.1h-7.1h-0.2v-0.4h0.2h5.3h1.4v-1.2h-6.6h-0.2v-0.4h0.2h5.3h1.8
				V11.8z"/>
		</g>
		<g>
			<path class="st5" d="M36.7,23.3v0.4h-5.1v-0.4h0.6v-1.3h3.9v1.3H36.7z M32.9,19.4h-1.3v-0.4h1.3v-0.4h0.4v0.4h1.5v-0.4h0.4v0.4
				h1.3v0.4h-1.3v0.3h-0.4v-0.3h-1.5v0.3h-0.4V19.4z M32,21.7v-1.6h0.4v1.6H32z M32.6,23.3h0.8v-0.9h-0.8V23.3z M33.1,19.9h0.4v1.9
				h-0.4V19.9z M33.7,22.4v0.9h0.8v-0.9H33.7z M36.4,20.7h-1.7c-0.1,0.4-0.3,0.7-0.5,0.9c-0.1-0.1-0.2-0.2-0.3-0.2
				c0.3-0.4,0.6-1,0.7-1.6l0.4,0.1c0,0.1-0.1,0.3-0.1,0.4h1.6V20.7z M34.9,22.4v0.9h0.8v-0.9H34.9z M35.6,21.9
				c-0.1-0.3-0.4-0.7-0.6-1l0.3-0.2c0.3,0.3,0.5,0.7,0.7,1L35.6,21.9z"/>
			<path class="st5" d="M39.7,20.6c-0.2-0.3-0.6-0.8-1-1.2c-0.3,0.5-0.6,1-1.1,1.4c-0.1-0.1-0.2-0.2-0.3-0.3
				c0.6-0.5,1.1-1.2,1.3-1.9l0.4,0.1c0,0.1-0.1,0.2-0.1,0.3c0.4,0.4,0.9,0.9,1.1,1.2L39.7,20.6z M39.7,21.4
				c-0.2,0.5-0.6,1.2-0.9,1.6c0.2,0.2,0.4,0.4,0.5,0.6L39,23.8c-0.2-0.3-0.8-0.9-1.2-1.2l0.3-0.2c0.1,0.1,0.3,0.2,0.4,0.4
				c0.2-0.3,0.5-0.8,0.7-1.1h-1.5v-0.4h1.7l0.1,0L39.7,21.4z M38.6,20.1c0.2,0.2,0.4,0.5,0.6,0.6L38.8,21c-0.1-0.2-0.4-0.5-0.6-0.7
				L38.6,20.1z M41.4,20.5c0,2.1-0.1,2.9-1.6,3.3c0-0.1-0.1-0.2-0.2-0.3c1.3-0.4,1.4-1.1,1.4-3H41.4z M40.8,19.9
				c0.1-0.2,0.1-0.4,0.2-0.6H40V19h2.5v0.4h-1c-0.1,0.2-0.2,0.4-0.2,0.6h1.1v2.6h-0.4v-2.3h-1.4v2.3h-0.4v-2.6H40.8z M41.5,22.6
				c0.4,0.3,0.9,0.7,1.1,0.9l-0.3,0.3c-0.2-0.3-0.7-0.7-1.1-1L41.5,22.6z"/>
			<path class="st5" d="M45,21.5c-0.2,0.1-0.5,0.1-0.7,0.2v1.6c0,0.2-0.1,0.4-0.2,0.4c-0.1,0.1-0.4,0.1-0.8,0.1
				c0-0.1-0.1-0.3-0.1-0.4c0.3,0,0.5,0,0.6,0c0.1,0,0.1,0,0.1-0.1v-1.5L43.3,22l-0.1-0.4c0.2-0.1,0.5-0.1,0.8-0.2v-1.2h-0.7v-0.4
				h0.7v-1.1h0.4v1.1H45v0.4h-0.6v1.1c0.2-0.1,0.4-0.1,0.6-0.2L45,21.5z M48.1,20.9c-0.2,0.8-0.6,1.4-1.2,1.9
				c0.4,0.3,0.9,0.6,1.5,0.7c-0.1,0.1-0.2,0.2-0.3,0.4c-0.6-0.2-1.1-0.5-1.5-0.8c-0.5,0.4-1,0.6-1.6,0.8c0-0.1-0.1-0.3-0.2-0.4
				c0.6-0.1,1.1-0.4,1.5-0.7c-0.4-0.4-0.7-0.9-0.9-1.6l0,0h-0.2v-0.4h1.2v-0.8h-1.3v-0.4h1.3v-0.9h0.4v0.9h1.4v0.4h-1.4v0.8h0.9
				l0.1,0L48.1,20.9z M45.8,21.2c0.2,0.5,0.5,0.9,0.8,1.3c0.4-0.4,0.7-0.8,0.9-1.3H45.8z"/>
			<path class="st5" d="M54.1,23v0.4H49V23h2.3v-3.3h-2v-0.4h4.5v0.4h-2V23H54.1z"/>
			<path class="st5" d="M56.8,23.3c0,0.2,0,0.4-0.2,0.4c-0.1,0.1-0.4,0.1-0.7,0.1c0-0.1-0.1-0.3-0.1-0.4c0.3,0,0.5,0,0.6,0
				c0.1,0,0.1,0,0.1-0.1v-1.4h-0.9c-0.1,0.7-0.2,1.4-0.4,1.9c-0.1-0.1-0.2-0.2-0.3-0.2c0.4-0.8,0.4-1.9,0.4-2.8v-2h1.6V23.3z
				 M56.4,21.5v-1h-0.9v0.3c0,0.2,0,0.4,0,0.6H56.4z M55.6,19.3v0.9h0.9v-0.9H55.6z M59.9,20.9c-0.1,0.8-0.4,1.4-0.8,1.9
				c0.3,0.3,0.6,0.6,0.9,0.7c-0.1,0.1-0.2,0.2-0.3,0.3c-0.3-0.2-0.6-0.4-0.9-0.8c-0.3,0.3-0.5,0.5-0.9,0.7c-0.1-0.1-0.2-0.2-0.2-0.3
				c0.3-0.2,0.6-0.4,0.9-0.7c-0.3-0.5-0.6-1-0.8-1.6h-0.1v2.7h-0.4v-5h2.4V20c0,0.2-0.1,0.3-0.2,0.4c-0.2,0.1-0.5,0.1-0.9,0.1
				c0-0.1-0.1-0.3-0.1-0.4c0.3,0,0.6,0,0.7,0c0.1,0,0.1,0,0.1-0.1v-0.7h-1.6v1.5h1.8l0.1,0L59.9,20.9z M58.2,21.2
				c0.2,0.5,0.4,0.9,0.6,1.3c0.2-0.4,0.4-0.8,0.6-1.3H58.2z"/>
			<path class="st5" d="M65.2,19.4c-0.3,0.5-0.9,0.9-1.5,1.2c0.6,0.2,1.3,0.3,2,0.3c-0.1,0.1-0.2,0.3-0.2,0.4
				c-0.9-0.1-1.7-0.2-2.3-0.5c-0.8,0.3-1.6,0.5-2.4,0.6c0-0.1-0.1-0.3-0.2-0.4c0.7-0.1,1.5-0.2,2.1-0.4c-0.3-0.2-0.6-0.4-0.8-0.7
				c-0.2,0.2-0.5,0.4-0.8,0.5c-0.1-0.1-0.2-0.2-0.3-0.3c0.8-0.4,1.4-1,1.6-1.5l0.4,0.1c-0.1,0.2-0.2,0.3-0.4,0.5h2.3l0.1,0
				L65.2,19.4z M65.3,21.8c0,0,0,0.1,0,0.2c-0.1,1-0.2,1.5-0.4,1.6c-0.1,0.1-0.2,0.1-0.5,0.2c-0.2,0-0.5,0-0.8,0
				c0-0.1-0.1-0.3-0.1-0.4c0.4,0,0.7,0,0.9,0c0.1,0,0.2,0,0.2-0.1c0.1-0.1,0.2-0.5,0.3-1.2h-1.7c-0.4,0.9-1.1,1.4-2.2,1.7
				c0-0.1-0.2-0.3-0.2-0.4c1-0.2,1.6-0.6,2-1.3h-1.6v-0.4h1.7c0-0.2,0.1-0.4,0.1-0.6l0.4,0c0,0.2-0.1,0.4-0.1,0.5H65.3z M62.2,19.7
				c0.2,0.3,0.6,0.6,1,0.7c0.5-0.2,1-0.5,1.3-0.8L62.2,19.7L62.2,19.7z"/>
			<path class="st5" d="M71.6,21.6V22h-5.1v-0.4h1.3v-1.3h-1.1v-0.4h1.1v-1.1h0.4v1.1h1.6v-1.1h0.4v1.1h1.1v0.4h-1.1v1.3H71.6z
				 M68.5,22.5c-0.4,0.5-1,1-1.6,1.3c-0.1-0.1-0.2-0.2-0.3-0.3c0.6-0.3,1.2-0.8,1.5-1.2L68.5,22.5z M68.2,21.6h1.6v-1.3h-1.6V21.6z
				 M69.9,22.3c0.5,0.4,1.2,0.9,1.6,1.2l-0.4,0.3c-0.3-0.3-1-0.9-1.5-1.3L69.9,22.3z"/>
			<path class="st5" d="M77.3,22.8H75v0.7c0,0.2-0.1,0.3-0.3,0.4c-0.2,0.1-0.5,0.1-1,0.1c0-0.1-0.1-0.2-0.1-0.4c0.4,0,0.8,0,0.9,0
				c0.1,0,0.1,0,0.1-0.1v-0.6h-2.3v-0.4h2.3V22c0.4-0.1,0.8-0.2,1.2-0.3h-2.9v-0.3h3.6l0.1,0l0.3,0.2c-0.5,0.3-1.1,0.5-1.8,0.7v0.1
				h2.3V22.8z M77.3,19.5h-4.9v-0.4h2.3c-0.1-0.1-0.1-0.3-0.2-0.4l0.4-0.1c0.1,0.2,0.2,0.4,0.2,0.5h2.2V19.5z M73.1,21v-1.1h3.5V21
				H73.1z M73.5,20.7h2.7v-0.5h-2.7V20.7z"/>
			<path class="st5" d="M83.2,21.8h-2.3v2h-0.4v-2h-2.3v-0.4h2.3v-2h-2V19h4.4v0.4h-2v2h2.3V21.8z M79.2,19.7
				c0.2,0.4,0.5,0.9,0.5,1.3l-0.4,0.1c-0.1-0.3-0.3-0.9-0.5-1.3L79.2,19.7z M81.5,21c0.2-0.4,0.5-0.9,0.6-1.3l0.4,0.1
				c-0.2,0.5-0.5,1-0.7,1.3L81.5,21z"/>
			<path class="st5" d="M87.3,19.3c0.6,0.5,1.2,1.2,1.5,1.6l-0.4,0.3c-0.1-0.1-0.2-0.3-0.3-0.5c-3.2,0.2-3.6,0.2-3.8,0.3
				c0-0.1-0.1-0.3-0.1-0.4c0.1,0,0.3-0.1,0.5-0.3c0.2-0.2,0.9-0.9,1.3-1.6l0.4,0.2c-0.4,0.6-1,1.2-1.5,1.7l2.9-0.1
				c-0.3-0.3-0.6-0.6-0.8-0.8L87.3,19.3z M84.6,21.5h3.6v2.4h-0.4v-0.3h-2.7v0.3h-0.4V21.5z M85.1,21.9v1.3h2.7v-1.3H85.1z"/>
		</g>
	</g>
</g>
</svg>
