<svg width="123" height="22" xmlns="http://www.w3.org/2000/svg" xmlns:xlink="http://www.w3.org/1999/xlink"><defs><path id="a" d="M0 17.456h80.048V0H0z"/></defs><g fill="none" fill-rule="evenodd"><g fill="#EE404A" fill-rule="nonzero"><path d="M14.28 8.196c-.431.609-3.383 5.455-5.141 7.594-.988 1.202-4.05 4.871-7.254 1.215-2.86-3.263-2.04-8.799-.344-11.26.736-1.07 1.7-1.943 3.12-1.872 1.172.058 2.122.61 2.993 2.126 1.92 3.339 4.957 3.323 6.626 2.197M12.45 13.383s4.524-7.774 7.484-10.867c3.426-3.578 8.292-3.232 10.406.35 1.307 2.214 2.02 4.927 2.03 7.77.009 2.81-1.003 8.834-4.636 10.445-2.181.967-5.084.677-7.516-2.204-4.39-5.204-5.93-5.97-7.768-5.494"/></g><g transform="translate(42 2)"><path d="M56.54 10.865v3.885c0 .66-.567 1.198-1.265 1.198H44.407V14.16h10.862v-1.506H44.407v-1.788H56.54zm-13.724 6.59h12.459c1.575 0 2.856-1.213 2.856-2.705V9.359H42.816v8.095z" fill="#131415"/><mask id="b" fill="#fff"><use xlink:href="#a"/></mask><path d="M52.605 6.634h5.043V2.136h-5.043v4.498zm-1.59 1.506h8.223V.63h-8.222v7.51zM41.71 7.05l.501 1.41c.139-.045 2.476-.677 3.861-2.554a16.13 16.13 0 012.406 2.493l1.283-.89c-.628-.84-1.344-1.55-1.968-2.134h1.904V3.87h-3.003V2.136h3.003V.63H43.5V0h-1.59v2.136h3.192v1.733h-3.188v1.506h2.615c-.833.852-2.148 1.468-2.82 1.675M64.779 2.136h13.185V.63H64.779zM62.695 8.14h17.353V6.634H62.695zM78.89 13.455h-1.64l.342 1.288a.923.923 0 01-.185.832 1.036 1.036 0 01-.807.373H65.96l1.688-6.353h-1.64l-2.087 7.86H76.6a2.65 2.65 0 002.06-.953c.499-.606.671-1.38.473-2.126l-.245-.92zM24.352 9.872h1.59V2.353C26.975 1.311 27.624.417 27.902 0h-1.945a17.414 17.414 0 01-5.059 4.271V5.99a18.76 18.76 0 003.454-2.205v6.087zM30.37 10.178h-1.59V11.7h-7.882v1.506h7.882v4.25h1.59v-4.25h7.882V11.7H30.37zM38.252 1.347c-.679.381-2.613 1.419-4.815 2.187v1.597c1.945-.624 3.723-1.476 4.815-2.047V1.347z" fill="#131415" mask="url(#b)"/><path d="M33.624 8.306c-.698 0-1.265-.537-1.265-1.198V0h-1.59v7.108c0 1.492 1.28 2.705 2.855 2.705h4.628V8.306h-4.628zM17.354 5.299h-6.407V2.282c1.175-.085 3.552-.3 5.919-.741V.003c-3.242.633-6.722.822-6.758.824l-.751.039v10.268c0 2.883-.07 4.515-.695 6.321h1.69c.48-1.484.595-3.567.595-6.32v-4.33h3.51v10.65h1.59V6.805h1.307V5.299zM7.932 13.533c0 1.692.222 2.63.27 2.813H6.84c-.5-1.115-.499-2.21-.499-3.575v-.904h1.59v1.666zM.27 13.533c0 1.692-.221 2.63-.27 2.813h1.363c.499-1.115.498-2.21.498-3.575v-.904H.271v1.666zM1.918 3.083H.288c.092.412.404 1.423.84 2.154h1.466a18.555 18.555 0 01-.676-2.154M6.327 3.083h1.63c-.091.412-.403 1.423-.839 2.154H5.652c.339-.887.555-1.66.675-2.154M4.47 0H2.697l.55 1.051H0v1.507h8.24V1.051H5.02z" fill="#131415" mask="url(#b)"/><path d="M0 7.243h3.324v1.734H0v1.506h3.324v4.761c0 .372-.247.812-.742 1.086v1.125c1.079 0 2.333-.966 2.333-2.21v-4.762h3.324V8.977H4.915V7.243h3.324V5.737H0v1.506z" fill="#131415" mask="url(#b)"/></g></g></svg>